<svg width="144" height="144" viewBox="0 0 144 144" fill="none" xmlns="http://www.w3.org/2000/svg">
<rect width="144" height="144" fill="#E6E6E6"/>
<path d="M113.42 84.7466C113.42 87.6366 94.9696 89.9793 72.21 89.9793C49.4503 89.9793 31 87.6366 31 84.7466C31 81.8567 49.4503 79.514 72.21 79.514C94.9696 79.514 113.42 81.8567 113.42 84.7466Z" fill="#955C28"/>
<path d="M32.9741 86.4909H109.965V88.4637H32.9741V86.4909Z" fill="#9B231B"/>
<path d="M113.42 78.2602C113.42 81.1501 94.9696 83.4928 72.21 83.4928C49.4503 83.4928 31 81.1501 31 78.2602C31 75.3703 49.4503 73.0275 72.21 73.0275C94.9696 73.0275 113.42 75.3703 113.42 78.2602Z" fill="#955C28"/>
<path d="M33.5582 73H110.558V75.4324H33.5582V73Z" fill="#71F85B"/>
<path d="M113.42 99.9088C113.42 102.799 94.9696 105.141 72.21 105.141C49.4503 105.141 31 102.799 31 99.9088C31 97.0189 49.4503 94.6762 72.21 94.6762C94.9696 94.6762 113.42 97.0189 113.42 99.9088Z" fill="#955C28"/>
<path d="M32.9741 101.653H109.965V103.626H32.9741V101.653Z" fill="#9B231B"/>
<path d="M33.5582 102.757H110.558V106H33.5582V102.757Z" fill="#71F85B"/>
<path d="M113.42 93.4223C113.42 96.3122 94.9696 98.655 72.21 98.655C49.4503 98.655 31 96.3122 31 93.4223C31 90.5324 49.4503 88.1897 72.21 88.1897C94.9696 88.1897 113.42 90.5324 113.42 93.4223Z" fill="#955C28"/>
<path d="M33.5582 88.1622H110.558V90.5946H33.5582V88.1622Z" fill="#71F85B"/>
<path d="M35.3281 15.626C35.3281 16.9525 35.202 18.0999 34.9497 19.0684C34.7056 20.0286 34.3882 20.8506 33.9976 21.5342C33.6069 22.2096 33.1675 22.759 32.6792 23.1821C32.1909 23.6053 31.7026 23.9308 31.2144 24.1587C30.7261 24.3947 30.2663 24.5534 29.835 24.6348C29.4036 24.7243 29.0496 24.769 28.7729 24.769C28.7078 24.769 28.5614 24.765 28.3335 24.7568C28.1138 24.7487 27.8411 24.7284 27.5156 24.6958C27.1901 24.6714 26.8198 24.6307 26.4048 24.5737C25.9979 24.5168 25.5706 24.4354 25.123 24.3296C25.1312 22.7183 25.1393 21.3226 25.1475 20.1426C25.1637 18.9544 25.1759 17.9331 25.1841 17.0786C25.1922 16.2241 25.2004 15.508 25.2085 14.9302C25.2166 14.3524 25.2207 13.856 25.2207 13.4409C25.2288 13.0259 25.2329 12.6719 25.2329 12.3789C25.241 12.0778 25.2451 11.7848 25.2451 11.5C25.2451 11.0524 25.241 10.5926 25.2329 10.1206C25.2248 9.64046 25.2085 9.1766 25.1841 8.729C25.1597 8.28141 25.1271 7.8623 25.0864 7.47168C25.0457 7.08105 24.9928 6.7474 24.9277 6.4707C25.5625 6.43001 26.1403 6.4056 26.6611 6.39746C27.1901 6.38118 27.6458 6.37305 28.0283 6.37305C28.9886 6.37305 29.835 6.49105 30.5674 6.72705C31.2998 6.95492 31.9346 7.27637 32.4717 7.69141C33.0169 8.09831 33.4686 8.59066 33.8267 9.16846C34.1929 9.73812 34.4858 10.3647 34.7056 11.0483C34.9334 11.7319 35.0921 12.4644 35.1816 13.2456C35.2793 14.0187 35.3281 14.8122 35.3281 15.626ZM32.1543 15.2476C32.1543 13.8071 32.0851 12.6353 31.9468 11.7319C31.8166 10.8205 31.6009 10.1125 31.2998 9.60791C31.0068 9.10335 30.6203 8.76156 30.1401 8.58252C29.6681 8.39535 29.0944 8.30176 28.4189 8.30176H28.0527L28.1992 22.645C28.362 22.7101 28.5125 22.7549 28.6509 22.7793C28.7974 22.7956 28.9398 22.8037 29.0781 22.8037C29.6234 22.8037 30.0872 22.6776 30.4697 22.4253C30.8604 22.1649 31.1777 21.7417 31.4219 21.1558C31.6742 20.5617 31.8573 19.7845 31.9712 18.8242C32.0933 17.8558 32.1543 16.6636 32.1543 15.2476ZM41.1143 24.6958C40.3086 24.6958 39.6128 24.5208 39.0269 24.1709C38.4491 23.821 37.9689 23.3327 37.5864 22.7061C37.2121 22.0794 36.9354 21.3348 36.7563 20.4722C36.5773 19.6095 36.4878 18.6696 36.4878 17.6523C36.4878 16.4723 36.5936 15.39 36.8052 14.4053C37.0168 13.4206 37.326 12.5742 37.7329 11.8662C38.1479 11.1582 38.6566 10.6089 39.2588 10.2183C39.8691 9.8195 40.569 9.62012 41.3584 9.62012C42.1559 9.62012 42.8436 9.78695 43.4214 10.1206C43.9992 10.4543 44.4753 10.9222 44.8496 11.5244C45.2321 12.1266 45.5129 12.8468 45.6919 13.6851C45.8709 14.5233 45.9604 15.4469 45.9604 16.4561C45.9604 16.9769 45.9279 17.5425 45.8628 18.1528C45.8058 18.7632 45.7041 19.3735 45.5576 19.9839C45.4193 20.5942 45.2321 21.1842 44.9961 21.7539C44.7601 22.3154 44.4631 22.8159 44.105 23.2554C43.7469 23.6948 43.3197 24.0448 42.8232 24.3052C42.335 24.5656 41.7653 24.6958 41.1143 24.6958ZM43.0186 15.5527C43.0186 14.9342 42.9901 14.3809 42.9331 13.8926C42.8761 13.3962 42.7826 12.9771 42.6523 12.6353C42.5303 12.2935 42.3716 12.033 42.1763 11.854C41.9891 11.6668 41.7612 11.5732 41.4927 11.5732C41.1997 11.5732 40.9271 11.7279 40.6748 12.0371C40.4225 12.3464 40.1987 12.7939 40.0034 13.3799C39.8162 13.9658 39.6657 14.682 39.5518 15.5283C39.446 16.3665 39.3931 17.3146 39.3931 18.3726C39.3931 19.0562 39.4256 19.6706 39.4907 20.2158C39.5558 20.7529 39.6535 21.2127 39.7837 21.5952C39.9139 21.9696 40.0726 22.2585 40.2598 22.4619C40.4551 22.6572 40.6829 22.7549 40.9434 22.7549C41.2038 22.7549 41.4357 22.6491 41.6392 22.4375C41.8426 22.2178 42.0176 21.9248 42.1641 21.5586C42.3187 21.1924 42.4489 20.7692 42.5547 20.2891C42.6686 19.8008 42.7581 19.2922 42.8232 18.7632C42.8883 18.2261 42.9372 17.6808 42.9697 17.1274C43.0023 16.5741 43.0186 16.0492 43.0186 15.5527ZM53.3335 24.1221C53.3498 23.7965 53.366 23.4873 53.3823 23.1943C53.4067 22.8932 53.4312 22.6043 53.4556 22.3276C53.1789 22.8159 52.8818 23.1903 52.5645 23.4507C52.2552 23.7111 51.9663 23.9064 51.6978 24.0366C51.3804 24.1831 51.0671 24.2726 50.7578 24.3052C50.1556 24.3052 49.6307 24.1546 49.1831 23.8535C48.7355 23.5524 48.3652 23.1252 48.0723 22.5718C47.7793 22.0184 47.5596 21.3551 47.4131 20.582C47.2747 19.8008 47.2056 18.93 47.2056 17.9697C47.2056 16.627 47.2463 15.3249 47.3276 14.0635C47.4172 12.8021 47.5596 11.5651 47.7549 10.3525L50.8555 10.6943C50.6602 11.6628 50.5096 12.5295 50.4038 13.2944C50.3062 14.0513 50.2329 14.6982 50.1841 15.2354C50.1271 15.862 50.0946 16.4072 50.0864 16.8711C50.0864 17.6442 50.1108 18.3197 50.1597 18.8975C50.2085 19.4671 50.2939 19.9432 50.416 20.3257C50.5462 20.7 50.7212 20.9808 50.9409 21.168C51.1606 21.3551 51.4414 21.4487 51.7832 21.4487C52.0192 21.408 52.2511 21.2453 52.479 20.9604C52.5767 20.8384 52.6784 20.6838 52.7842 20.4966C52.89 20.3013 52.9958 20.0653 53.1016 19.7886C53.2074 19.5119 53.3091 19.1864 53.4067 18.812C53.5044 18.4377 53.598 18.0023 53.6875 17.5059C53.7038 17.0257 53.7119 16.5496 53.7119 16.0776C53.7119 15.5975 53.7119 15.0807 53.7119 14.5273C53.7119 13.9414 53.7119 13.3026 53.7119 12.6108C53.7119 11.9191 53.7038 11.1419 53.6875 10.2793L56.4585 10.3281C56.4178 10.9466 56.3853 11.5203 56.3608 12.0493C56.3364 12.5701 56.3161 13.0625 56.2998 13.5264C56.2917 13.9821 56.2835 14.4134 56.2754 14.8203C56.2673 15.2272 56.2632 15.6219 56.2632 16.0044C56.2632 16.5903 56.2673 17.1641 56.2754 17.7256C56.2917 18.2871 56.312 18.8853 56.3364 19.52C56.3608 20.1466 56.3853 20.8384 56.4097 21.5952C56.4422 22.3439 56.4748 23.2025 56.5073 24.1709L53.3335 24.1221ZM61.6709 5.62842C61.5732 6.6945 61.4878 7.75244 61.4146 8.80225C61.3413 9.84391 61.2762 10.8937 61.2192 11.9517C61.4959 11.4552 61.793 11.0728 62.1104 10.8042C62.4277 10.5275 62.7248 10.3241 63.0015 10.1938C63.327 10.0474 63.6444 9.95785 63.9536 9.92529C64.5396 9.92529 65.0604 10.0474 65.5161 10.2915C65.9718 10.5356 66.3543 10.9548 66.6636 11.5488C66.981 12.1348 67.221 12.9201 67.3838 13.9048C67.5465 14.8813 67.6279 16.1061 67.6279 17.5791C67.6279 18.9382 67.4977 20.0815 67.2373 21.0093C66.985 21.9289 66.6554 22.6735 66.2485 23.2432C65.8498 23.8047 65.4022 24.2075 64.9058 24.4517C64.4175 24.7039 63.9333 24.8301 63.4531 24.8301C63.4043 24.8301 63.2944 24.8179 63.1235 24.7935C62.9608 24.7772 62.7614 24.7161 62.5254 24.6104C62.2894 24.5127 62.0371 24.3621 61.7686 24.1587C61.5 23.9552 61.2437 23.6704 60.9995 23.3042V24.647L58.2529 24.5981C58.3262 23.41 58.375 22.2259 58.3994 21.0459C58.432 19.8659 58.4482 18.6859 58.4482 17.5059C58.4482 15.5202 58.4157 13.5508 58.3506 11.5977C58.2855 9.63639 58.2082 7.66292 58.1187 5.67725L61.6709 5.62842ZM62.5498 22.5718C62.5905 22.5881 62.6312 22.5962 62.6719 22.5962C62.7207 22.5962 62.7695 22.5962 62.8184 22.5962C63.0381 22.5962 63.266 22.5229 63.502 22.3765C63.7461 22.2218 63.9658 21.9533 64.1611 21.5708C64.3564 21.1883 64.5192 20.6715 64.6494 20.0205C64.7796 19.3613 64.8447 18.5231 64.8447 17.5059C64.8447 16.5944 64.8 15.8376 64.7104 15.2354C64.6291 14.625 64.5151 14.1367 64.3687 13.7705C64.2222 13.4043 64.0513 13.1479 63.856 13.0015C63.6606 12.8468 63.4572 12.7695 63.2456 12.7695C63.0259 12.7695 62.8224 12.8306 62.6353 12.9526C62.4562 13.0666 62.2935 13.2212 62.147 13.4165C62.0005 13.6037 61.8662 13.8193 61.7441 14.0635C61.6302 14.3076 61.5285 14.5518 61.439 14.7959C61.3494 15.0319 61.2721 15.2638 61.207 15.4917C61.1501 15.7114 61.1053 15.8986 61.0728 16.0532C61.0239 17.6564 60.9995 19.2474 60.9995 20.8262C61.1867 21.2168 61.3739 21.526 61.561 21.7539C61.7482 21.9818 61.915 22.1567 62.0615 22.2788C62.2324 22.4253 62.3952 22.5229 62.5498 22.5718ZM72.2666 5.22559C72.2178 6.21842 72.173 7.13802 72.1323 7.98438C72.0916 8.83073 72.055 9.62826 72.0225 10.377C71.998 11.1257 71.9777 11.8377 71.9614 12.5132C71.9451 13.1886 71.9289 13.856 71.9126 14.5151C71.9045 15.1743 71.8963 15.8376 71.8882 16.5049C71.8882 17.1722 71.8882 17.8721 71.8882 18.6045C71.8882 19.4183 71.8882 20.2891 71.8882 21.2168C71.8882 22.1445 71.8963 23.174 71.9126 24.3052L69.1416 24.2441C69.1904 23.0153 69.223 21.8068 69.2393 20.6187C69.2555 19.4224 69.2637 18.1976 69.2637 16.9443C69.2637 16.1061 69.2596 15.2476 69.2515 14.3687C69.2433 13.4816 69.2311 12.5579 69.2148 11.5977C69.1986 10.6292 69.1782 9.61198 69.1538 8.5459C69.1375 7.47982 69.1172 6.34863 69.0928 5.15234L72.2666 5.22559ZM82.4961 21.3755C82.4961 21.8556 82.3862 22.3073 82.1665 22.7305C81.9468 23.1536 81.6497 23.5199 81.2754 23.8291C80.901 24.1383 80.4616 24.3825 79.957 24.5615C79.4525 24.7406 78.9154 24.8301 78.3457 24.8301C77.9632 24.8301 77.5767 24.7772 77.186 24.6714C76.7954 24.5656 76.4211 24.3906 76.063 24.1465C75.7049 23.9023 75.3672 23.5809 75.0498 23.1821C74.7324 22.7834 74.4557 22.2951 74.2197 21.7173C73.9919 21.1395 73.8088 20.464 73.6704 19.6909C73.5402 18.9097 73.4751 18.0145 73.4751 17.0054C73.4751 16.0532 73.5402 15.2109 73.6704 14.4785C73.8088 13.7461 73.9919 13.1073 74.2197 12.562C74.4557 12.0168 74.7284 11.561 75.0376 11.1948C75.3468 10.8205 75.6764 10.5194 76.0264 10.2915C76.3844 10.0555 76.7507 9.88867 77.125 9.79102C77.5075 9.69336 77.8818 9.64453 78.248 9.64453C78.7933 9.64453 79.3101 9.73405 79.7983 9.91309C80.2866 10.084 80.7139 10.3403 81.0801 10.6821C81.4463 11.0239 81.7352 11.4471 81.9468 11.9517C82.1665 12.4481 82.2764 13.0218 82.2764 13.6729C82.2764 14.2588 82.1543 14.8529 81.9102 15.4551C81.6742 16.0492 81.3201 16.6147 80.8481 17.1519C80.3761 17.6808 79.7902 18.165 79.0903 18.6045C78.3986 19.0358 77.6011 19.3776 76.6978 19.6299C76.7466 20.1344 76.8158 20.5942 76.9053 21.0093C77.0029 21.4243 77.1209 21.7783 77.2593 22.0713C77.4058 22.3643 77.5726 22.5921 77.7598 22.7549C77.9551 22.9176 78.1789 22.999 78.4312 22.999C78.5939 22.9909 78.7485 22.9624 78.895 22.9136C79.0252 22.8729 79.1554 22.8078 79.2856 22.7183C79.424 22.6287 79.5379 22.4985 79.6274 22.3276C79.4159 22.23 79.2531 22.1038 79.1392 21.9492C79.0252 21.7946 78.9398 21.6481 78.8828 21.5098C78.8177 21.347 78.7811 21.1761 78.7729 20.9971C78.7729 20.6064 78.8503 20.2891 79.0049 20.0449C79.1595 19.8008 79.3426 19.6095 79.5542 19.4712C79.7658 19.3328 79.9814 19.2393 80.2012 19.1904C80.4209 19.1335 80.5959 19.105 80.7261 19.105C80.8644 19.105 81.0312 19.1335 81.2266 19.1904C81.43 19.2474 81.6253 19.3573 81.8125 19.52C81.9997 19.6828 82.1584 19.9147 82.2886 20.2158C82.4269 20.5088 82.4961 20.8953 82.4961 21.3755ZM79.481 13.6973C79.481 13.4043 79.4525 13.1276 79.3955 12.8672C79.3467 12.5986 79.2694 12.3667 79.1636 12.1714C79.0659 11.9761 78.9398 11.8215 78.7852 11.7075C78.6387 11.5854 78.4678 11.5244 78.2725 11.5244C77.9388 11.5244 77.6662 11.679 77.4546 11.9883C77.243 12.2894 77.0721 12.6922 76.9419 13.1968C76.8117 13.7013 76.7222 14.2832 76.6733 14.9424C76.6245 15.6016 76.6001 16.2892 76.6001 17.0054V17.8965C77.0151 17.6768 77.3976 17.4163 77.7476 17.1152C78.1056 16.8141 78.4108 16.4845 78.6631 16.1265C78.9235 15.7603 79.1229 15.3737 79.2612 14.9668C79.4077 14.5599 79.481 14.1367 79.481 13.6973ZM100.208 15.2476C100.208 16.5496 100.086 17.7703 99.8423 18.9097C99.5981 20.049 99.236 21.0459 98.7559 21.9004C98.2757 22.7467 97.6776 23.4181 96.9614 23.9146C96.2534 24.4028 95.4355 24.647 94.5078 24.647C93.5638 24.647 92.7337 24.4028 92.0176 23.9146C91.3096 23.4181 90.7155 22.7467 90.2354 21.9004C89.7633 21.0459 89.4053 20.049 89.1611 18.9097C88.9251 17.7703 88.8071 16.5496 88.8071 15.2476C88.8071 13.9536 88.9211 12.737 89.1489 11.5977C89.3849 10.4583 89.7389 9.46549 90.2109 8.61914C90.6829 7.77279 91.277 7.10547 91.9932 6.61719C92.7093 6.12077 93.5475 5.87256 94.5078 5.87256C95.5007 5.87256 96.3551 6.12077 97.0713 6.61719C97.7956 7.10547 98.3896 7.77279 98.8535 8.61914C99.3174 9.46549 99.6592 10.4583 99.8789 11.5977C100.099 12.737 100.208 13.9536 100.208 15.2476ZM97.0103 15.2476C97.0103 14.2384 96.9696 13.2904 96.8882 12.4033C96.8068 11.5081 96.6685 10.731 96.4731 10.0718C96.286 9.40446 96.0296 8.87956 95.7041 8.49707C95.3867 8.11458 94.988 7.92334 94.5078 7.92334C94.0439 7.92334 93.6533 8.11458 93.3359 8.49707C93.0186 8.87956 92.7622 9.40446 92.5669 10.0718C92.3716 10.731 92.2292 11.5081 92.1396 12.4033C92.0501 13.2904 92.0054 14.2384 92.0054 15.2476C92.0054 16.2648 92.0501 17.221 92.1396 18.1162C92.2292 19.0033 92.3716 19.7804 92.5669 20.4478C92.7703 21.1069 93.0308 21.6318 93.3481 22.0225C93.6655 22.4049 94.0521 22.5962 94.5078 22.5962C94.9554 22.5962 95.3379 22.4049 95.6553 22.0225C95.9727 21.6318 96.2331 21.1069 96.4365 20.4478C96.64 19.7804 96.7865 19.0033 96.876 18.1162C96.9655 17.221 97.0103 16.2648 97.0103 15.2476ZM111.976 20.0449C111.976 20.6471 111.882 21.2331 111.695 21.8027C111.516 22.3724 111.236 22.881 110.853 23.3286C110.479 23.7762 110.003 24.1343 109.425 24.4028C108.855 24.6714 108.176 24.8057 107.386 24.8057C106.589 24.8057 105.828 24.6022 105.104 24.1953C104.379 23.7965 103.74 23.1943 103.187 22.3887C102.642 21.583 102.202 20.578 101.869 19.3735C101.543 18.161 101.38 16.745 101.38 15.1255C101.38 13.506 101.551 12.1226 101.893 10.9751C102.243 9.82764 102.703 8.89176 103.272 8.16748C103.842 7.43506 104.489 6.90202 105.213 6.56836C105.946 6.22656 106.694 6.05566 107.459 6.05566C108.224 6.05566 108.871 6.1696 109.4 6.39746C109.938 6.61719 110.373 6.89795 110.707 7.23975C111.04 7.58154 111.28 7.95996 111.427 8.375C111.581 8.7819 111.659 9.17253 111.659 9.54688C111.659 9.92122 111.602 10.2508 111.488 10.5356C111.382 10.8123 111.24 11.0443 111.061 11.2314C110.882 11.4105 110.678 11.5488 110.45 11.6465C110.23 11.736 110.007 11.7808 109.779 11.7808C109.559 11.7808 109.339 11.7523 109.12 11.6953C108.908 11.6383 108.721 11.5407 108.558 11.4023C108.395 11.2559 108.261 11.0687 108.155 10.8408C108.058 10.6048 108.009 10.3159 108.009 9.97412C108.017 9.80322 108.037 9.63639 108.07 9.47363C108.102 9.33529 108.151 9.18473 108.216 9.02197C108.29 8.85107 108.395 8.69238 108.534 8.5459C108.412 8.40755 108.277 8.30176 108.131 8.22852C107.984 8.15527 107.842 8.09831 107.704 8.05762C107.549 8.01693 107.39 7.98844 107.228 7.97217C107.016 7.97217 106.751 8.11458 106.434 8.39941C106.125 8.68424 105.824 9.12777 105.531 9.72998C105.238 10.3241 104.986 11.085 104.774 12.0127C104.562 12.9323 104.457 14.0269 104.457 15.2964C104.457 16.5741 104.562 17.6971 104.774 18.6655C104.986 19.6258 105.25 20.4315 105.567 21.0825C105.885 21.7336 106.222 22.2259 106.581 22.5596C106.947 22.8851 107.28 23.0479 107.582 23.0479C108.184 23.0479 108.631 22.7752 108.924 22.23C109.225 21.6847 109.376 20.8424 109.376 19.7031C109.376 19.4427 109.364 19.1701 109.339 18.8853C109.323 18.6493 109.295 18.3807 109.254 18.0796C109.213 17.7785 109.156 17.4774 109.083 17.1763C108.798 17.217 108.444 17.2699 108.021 17.335C107.598 17.4001 107.11 17.4896 106.556 17.6035C106.646 17.2373 106.703 16.863 106.727 16.4805C106.76 16.0898 106.776 15.7277 106.776 15.394C106.776 15.2313 106.772 15.0807 106.764 14.9424C106.764 14.804 106.76 14.686 106.751 14.5884C106.743 14.4744 106.735 14.3687 106.727 14.271C106.971 14.3198 107.256 14.3605 107.582 14.3931C107.858 14.4256 108.196 14.4541 108.595 14.4785C109.002 14.4948 109.465 14.5029 109.986 14.5029C110.263 14.5029 110.552 14.5029 110.853 14.5029C111.162 14.4948 111.488 14.4785 111.83 14.4541C111.781 14.7959 111.756 15.1458 111.756 15.5039C111.756 15.8132 111.769 16.1387 111.793 16.4805C111.817 16.8223 111.842 17.1803 111.866 17.5547C111.891 17.929 111.915 18.3237 111.939 18.7388C111.964 19.1457 111.976 19.5811 111.976 20.0449ZM28.0283 37.2256C27.9795 38.2184 27.9347 39.138 27.894 39.9844C27.8534 40.8307 27.8167 41.6283 27.7842 42.377C27.7598 43.1257 27.7394 43.8377 27.7231 44.5132C27.7069 45.1886 27.6906 45.856 27.6743 46.5151C27.6662 47.1743 27.658 47.8376 27.6499 48.5049C27.6499 49.1722 27.6499 49.8721 27.6499 50.6045C27.6499 51.4183 27.6499 52.2891 27.6499 53.2168C27.6499 54.1445 27.658 55.174 27.6743 56.3052L24.9033 56.2441C24.9521 55.0153 24.9847 53.8068 25.001 52.6187C25.0173 51.4224 25.0254 50.1976 25.0254 48.9443C25.0254 48.1061 25.0213 47.2476 25.0132 46.3687C25.005 45.4816 24.9928 44.5579 24.9766 43.5977C24.9603 42.6292 24.9399 41.612 24.9155 40.5459C24.8993 39.4798 24.8789 38.3486 24.8545 37.1523L28.0283 37.2256ZM33.8633 56.6958C33.0576 56.6958 32.3618 56.5208 31.7759 56.1709C31.1981 55.821 30.7179 55.3327 30.3354 54.7061C29.9611 54.0794 29.6844 53.3348 29.5054 52.4722C29.3263 51.6095 29.2368 50.6696 29.2368 49.6523C29.2368 48.4723 29.3426 47.39 29.5542 46.4053C29.7658 45.4206 30.075 44.5742 30.4819 43.8662C30.897 43.1582 31.4056 42.6089 32.0078 42.2183C32.6182 41.8195 33.318 41.6201 34.1074 41.6201C34.9049 41.6201 35.5926 41.7869 36.1704 42.1206C36.7482 42.4543 37.2243 42.9222 37.5986 43.5244C37.9811 44.1266 38.2619 44.8468 38.4409 45.6851C38.62 46.5233 38.7095 47.4469 38.7095 48.4561C38.7095 48.9769 38.6769 49.5425 38.6118 50.1528C38.5549 50.7632 38.4531 51.3735 38.3066 51.9839C38.1683 52.5942 37.9811 53.1842 37.7451 53.7539C37.5091 54.3154 37.2121 54.8159 36.854 55.2554C36.4959 55.6948 36.0687 56.0448 35.5723 56.3052C35.084 56.5656 34.5143 56.6958 33.8633 56.6958ZM35.7676 47.5527C35.7676 46.9342 35.7391 46.3809 35.6821 45.8926C35.6252 45.3962 35.5316 44.9771 35.4014 44.6353C35.2793 44.2935 35.1206 44.033 34.9253 43.854C34.7381 43.6668 34.5103 43.5732 34.2417 43.5732C33.9487 43.5732 33.6761 43.7279 33.4238 44.0371C33.1715 44.3464 32.9478 44.7939 32.7524 45.3799C32.5653 45.9658 32.4147 46.682 32.3008 47.5283C32.195 48.3665 32.1421 49.3146 32.1421 50.3726C32.1421 51.0562 32.1746 51.6706 32.2397 52.2158C32.3049 52.7529 32.4025 53.2127 32.5327 53.5952C32.6629 53.9696 32.8216 54.2585 33.0088 54.4619C33.2041 54.6572 33.432 54.7549 33.6924 54.7549C33.9528 54.7549 34.1847 54.6491 34.3882 54.4375C34.5916 54.2178 34.7666 53.9248 34.9131 53.5586C35.0677 53.1924 35.1979 52.7692 35.3037 52.2891C35.4176 51.8008 35.5072 51.2922 35.5723 50.7632C35.6374 50.2261 35.6862 49.6808 35.7188 49.1274C35.7513 48.5741 35.7676 48.0492 35.7676 47.5527ZM53.0894 42.8042C53.0568 43.5041 53.0324 44.2039 53.0161 44.9038C53.008 45.5955 52.9998 46.2222 52.9917 46.7837C52.9836 47.4429 52.9795 48.0736 52.9795 48.6758C52.9632 49.2699 52.9347 49.8843 52.894 50.519C52.8534 51.1457 52.7801 51.756 52.6743 52.3501C52.5767 52.9442 52.4383 53.5057 52.2593 54.0347C52.0884 54.5636 51.8646 55.0275 51.5879 55.4263C51.3112 55.825 50.9735 56.1383 50.5747 56.3662C50.1841 56.6022 49.7202 56.7202 49.1831 56.7202C48.7437 56.6877 48.3245 56.5615 47.9258 56.3418C47.7549 56.2441 47.5799 56.1261 47.4009 55.9878C47.2218 55.8413 47.0509 55.6623 46.8882 55.4507C46.7254 55.2391 46.5708 54.9909 46.4243 54.7061C46.2778 54.4212 46.1558 54.0876 46.0581 53.7051C45.7896 54.4049 45.4762 54.9461 45.1182 55.3286C44.7601 55.7111 44.4224 55.9919 44.105 56.1709C43.7225 56.3825 43.34 56.5086 42.9575 56.5493C42.5181 56.5493 42.1437 56.4517 41.8345 56.2563C41.5252 56.061 41.2648 55.7925 41.0532 55.4507C40.8416 55.1007 40.6748 54.6938 40.5527 54.23C40.4307 53.7661 40.3371 53.2656 40.272 52.7285C40.2069 52.1914 40.1621 51.6299 40.1377 51.0439C40.1214 50.458 40.1133 49.8761 40.1133 49.2983C40.1133 49.103 40.1133 48.9647 40.1133 48.8833C40.1214 48.7938 40.1255 48.7083 40.1255 48.627C40.1336 48.5374 40.1418 48.4194 40.1499 48.2729C40.158 48.1183 40.1621 47.8823 40.1621 47.5649C40.1702 47.2476 40.1743 46.8162 40.1743 46.271C40.1825 45.7257 40.1865 45.0096 40.1865 44.1226C40.1865 43.8459 40.1865 43.5773 40.1865 43.3169C40.1865 43.0483 40.1784 42.8001 40.1621 42.5723L43.6289 42.6699C43.3522 44.1185 43.165 45.5386 43.0674 46.9302C42.9779 48.3218 42.9331 49.7134 42.9331 51.105C42.9331 52.0083 42.9941 52.6634 43.1162 53.0703C43.2383 53.4772 43.4784 53.6807 43.8364 53.6807C43.9992 53.6807 44.1457 53.5911 44.2759 53.4121C44.4142 53.2249 44.5322 52.9808 44.6299 52.6797C44.7357 52.3704 44.8252 52.0205 44.8984 51.6299C44.9798 51.2393 45.0449 50.8405 45.0938 50.4336C45.1426 50.0186 45.1792 49.6117 45.2036 49.2129C45.228 48.8141 45.2402 48.452 45.2402 48.1265C45.2402 47.7847 45.2362 47.4551 45.228 47.1377C45.228 46.8203 45.2158 46.4907 45.1914 46.1489C45.1751 45.799 45.1507 45.4328 45.1182 45.0503C45.0938 44.6597 45.0571 44.2243 45.0083 43.7441L48.1333 43.9028C47.9705 44.8631 47.8322 45.7949 47.7183 46.6982C47.6125 47.5934 47.5596 48.4845 47.5596 49.3716C47.5596 49.8761 47.5799 50.3929 47.6206 50.9219C47.6694 51.4427 47.7427 51.9188 47.8403 52.3501C47.9461 52.7733 48.0804 53.1232 48.2432 53.3999C48.4059 53.6685 48.6012 53.8027 48.8291 53.8027C49.1139 53.8027 49.3459 53.6318 49.5249 53.29C49.7121 52.9401 49.8545 52.4884 49.9521 51.9351C50.0579 51.3735 50.1312 50.7469 50.1719 50.0552C50.2126 49.3553 50.2329 48.6554 50.2329 47.9556C50.2329 47.8823 50.2288 47.7074 50.2207 47.4307C50.2126 47.154 50.1922 46.7918 50.1597 46.3442C50.1271 45.8966 50.0783 45.3677 50.0132 44.7573C49.9481 44.147 49.8545 43.4715 49.7324 42.731L53.0894 42.8042ZM68.8608 45.624C68.8608 46.1855 68.7835 46.6331 68.6289 46.9668C68.4824 47.2923 68.3034 47.5405 68.0918 47.7114C67.8883 47.8742 67.6768 47.98 67.457 48.0288C67.2454 48.0776 67.0705 48.1021 66.9321 48.1021C66.7938 48.1021 66.627 48.0817 66.4316 48.041C66.2363 47.9922 66.0451 47.9027 65.8579 47.7725C65.6789 47.6341 65.5243 47.4429 65.394 47.1987C65.272 46.9465 65.2109 46.6209 65.2109 46.2222C65.2191 46.0024 65.2598 45.7868 65.333 45.5752C65.3981 45.3962 65.4958 45.2131 65.626 45.0259C65.7562 44.8387 65.9434 44.68 66.1875 44.5498C66.0492 44.2406 65.8945 44.0046 65.7236 43.8418C65.5609 43.679 65.4022 43.557 65.2476 43.4756C65.0685 43.3861 64.8895 43.3291 64.7104 43.3047C64.4093 43.3047 64.1367 43.443 63.8926 43.7197C63.6484 43.9964 63.4409 44.387 63.27 44.8916C63.0991 45.388 62.9648 45.9862 62.8672 46.686C62.7777 47.3859 62.7329 48.159 62.7329 49.0054C62.7329 49.8436 62.7614 50.6289 62.8184 51.3613C62.8835 52.0856 62.9852 52.7204 63.1235 53.2656C63.2619 53.8027 63.4491 54.2259 63.6851 54.5352C63.9211 54.8444 64.214 54.999 64.564 54.999C64.7511 54.9909 64.9383 54.9461 65.1255 54.8647C65.2882 54.7996 65.4591 54.6938 65.6382 54.5474C65.8254 54.3927 65.9922 54.1771 66.1387 53.9004C65.8538 53.762 65.6341 53.5952 65.4795 53.3999C65.333 53.1965 65.2272 53.0011 65.1621 52.814C65.0807 52.5942 65.036 52.3664 65.0278 52.1304C65.0278 51.7397 65.1051 51.4224 65.2598 51.1782C65.4144 50.9341 65.5975 50.7428 65.8091 50.6045C66.0207 50.458 66.2363 50.3604 66.4561 50.3115C66.6758 50.2546 66.8507 50.2261 66.981 50.2261C67.1193 50.2261 67.2902 50.2546 67.4937 50.3115C67.6971 50.3685 67.8924 50.4784 68.0796 50.6411C68.2668 50.8039 68.4255 51.0358 68.5557 51.3369C68.694 51.6299 68.7632 52.0164 68.7632 52.4966C68.7632 52.9767 68.6452 53.4731 68.4092 53.9858C68.1813 54.4985 67.868 54.9665 67.4692 55.3896C67.0786 55.8128 66.6229 56.1587 66.1021 56.4272C65.5894 56.6958 65.0482 56.8301 64.4785 56.8301C64.096 56.8301 63.7095 56.7772 63.3188 56.6714C62.9282 56.5656 62.5539 56.3906 62.1958 56.1465C61.8377 55.9023 61.5 55.5809 61.1826 55.1821C60.8652 54.7834 60.5885 54.2951 60.3525 53.7173C60.1247 53.1395 59.9416 52.464 59.8032 51.6909C59.673 50.9097 59.6079 50.0145 59.6079 49.0054C59.6079 47.9963 59.6812 47.1133 59.8276 46.3564C59.9741 45.5915 60.1735 44.9364 60.4258 44.3911C60.6862 43.8459 60.9832 43.3942 61.3169 43.0361C61.6506 42.6781 62.0046 42.3932 62.3789 42.1816C62.7614 41.9701 63.152 41.8236 63.5508 41.7422C63.9495 41.6608 64.3361 41.6201 64.7104 41.6201C65.2638 41.6201 65.7928 41.7259 66.2974 41.9375C66.8019 42.141 67.2414 42.4258 67.6157 42.792C67.9982 43.1501 68.2993 43.5732 68.519 44.0615C68.7469 44.5498 68.8608 45.0706 68.8608 45.624ZM75.9165 56.5005C75.8677 56.2482 75.8229 55.9919 75.7822 55.7314C75.7415 55.471 75.709 55.2025 75.6846 54.9258C75.3102 55.4792 74.8626 55.9023 74.3418 56.1953C73.821 56.4964 73.2513 56.647 72.6328 56.647C72.3154 56.647 71.9899 56.5941 71.6562 56.4883C71.3226 56.3906 71.0174 56.2157 70.7407 55.9634C70.4722 55.7111 70.2484 55.3693 70.0693 54.938C69.8984 54.4985 69.813 53.9451 69.813 53.2778C69.813 52.7244 69.8944 52.2443 70.0571 51.8374C70.2199 51.4224 70.4315 51.0602 70.6919 50.751C70.9523 50.4417 71.2453 50.1732 71.5708 49.9453C71.8963 49.7174 72.2178 49.514 72.5352 49.335C72.8607 49.1559 73.1699 48.9891 73.4629 48.8345C73.7559 48.6799 73.9959 48.5252 74.1831 48.3706C74.5412 48.0858 74.8504 47.7847 75.1108 47.4673C75.3794 47.1418 75.5951 46.804 75.7578 46.4541C75.7253 45.8926 75.6642 45.4328 75.5747 45.0747C75.4933 44.7085 75.3835 44.4196 75.2451 44.208C75.1068 43.9883 74.9359 43.8377 74.7324 43.7563C74.5371 43.6668 74.3133 43.6221 74.061 43.6221C73.6867 43.6221 73.3693 43.7035 73.1089 43.8662C72.8566 44.029 72.6491 44.2243 72.4863 44.4521C72.6898 44.5824 72.8444 44.7207 72.9502 44.8672C73.0641 45.0137 73.1496 45.1561 73.2065 45.2944C73.2716 45.4491 73.3083 45.6077 73.3164 45.7705C73.3164 46.3239 73.1577 46.7471 72.8403 47.04C72.5311 47.333 72.1323 47.4795 71.644 47.4795C71.3918 47.4795 71.1598 47.4225 70.9482 47.3086C70.7367 47.1865 70.5495 47.0197 70.3867 46.8081C70.2321 46.5965 70.11 46.3442 70.0205 46.0513C69.931 45.7583 69.8862 45.4409 69.8862 45.0991C69.8862 44.7573 69.9635 44.3952 70.1182 44.0127C70.2728 43.6302 70.521 43.2762 70.8628 42.9507C71.2046 42.617 71.644 42.3444 72.1812 42.1328C72.7183 41.9131 73.3693 41.8032 74.1343 41.8032C74.8993 41.8032 75.5544 41.9538 76.0996 42.2549C76.6449 42.5479 77.0924 42.9425 77.4424 43.439C77.7923 43.9272 78.0446 44.4928 78.1992 45.1357C78.362 45.7786 78.4434 46.4419 78.4434 47.1255C78.4434 47.6382 78.4393 48.1956 78.4312 48.7979C78.423 49.4001 78.4189 50.0186 78.4189 50.6533C78.4189 51.1823 78.423 51.7113 78.4312 52.2402C78.4393 52.7692 78.4556 53.2819 78.48 53.7783C78.5044 54.2666 78.5369 54.7305 78.5776 55.1699C78.6183 55.6012 78.6712 55.9878 78.7363 56.3296L75.9165 56.5005ZM75.7334 49.3472C75.4486 49.689 75.1434 49.9819 74.8179 50.2261C74.5737 50.397 74.3092 50.5882 74.0244 50.7998C73.7477 51.0114 73.4873 51.2352 73.2432 51.4712C73.0072 51.7072 72.8078 51.9554 72.645 52.2158C72.4904 52.4681 72.4131 52.7285 72.4131 52.9971C72.4131 53.3633 72.5026 53.6766 72.6816 53.937C72.8607 54.1974 73.113 54.3276 73.4385 54.3276C73.7396 54.3276 74.0081 54.2463 74.2441 54.0835C74.4801 53.9207 74.6877 53.7214 74.8667 53.4854C75.0539 53.2412 75.2085 52.9808 75.3306 52.7041C75.4608 52.4274 75.5625 52.1751 75.6357 51.9473L75.7334 49.3472ZM83.3506 56.5005L80.0913 56.7446C80.2215 55.2879 80.3151 53.8841 80.3721 52.5332C80.4372 51.1742 80.4697 49.8151 80.4697 48.4561C80.4697 47.4958 80.4535 46.5355 80.4209 45.5752C80.3965 44.6068 80.3477 43.6139 80.2744 42.5967L83.021 42.4502C83.0047 42.6292 82.9925 42.8042 82.9844 42.9751C82.9762 43.146 82.9722 43.3128 82.9722 43.4756C83.257 43.0361 83.5662 42.6943 83.8999 42.4502C84.2417 42.1979 84.5591 42.0148 84.8521 41.9009C85.1857 41.7625 85.5234 41.6771 85.8652 41.6445C86.4593 41.6445 86.9679 41.7381 87.3911 41.9253C87.8143 42.1043 88.1602 42.3403 88.4287 42.6333C88.6973 42.9181 88.8926 43.2396 89.0146 43.5977C89.1367 43.9476 89.1978 44.2894 89.1978 44.623C89.1978 44.9648 89.1611 45.3107 89.0879 45.6606C89.0146 46.0106 88.8885 46.328 88.7095 46.6128C88.5386 46.8895 88.3066 47.1174 88.0137 47.2964C87.7288 47.4673 87.3748 47.5527 86.9517 47.5527C86.5285 47.5527 86.1948 47.4754 85.9507 47.3208C85.7065 47.1662 85.5194 46.9831 85.3892 46.7715C85.2671 46.5518 85.1857 46.328 85.145 46.1001C85.1125 45.8641 85.0962 45.6647 85.0962 45.502C85.0962 45.388 85.1165 45.2619 85.1572 45.1235C85.1979 44.9771 85.259 44.8306 85.3403 44.6841C85.4217 44.5376 85.5234 44.3952 85.6455 44.2568C85.7676 44.1104 85.91 43.9761 86.0728 43.854C86.0239 43.8377 85.971 43.8255 85.9141 43.8174C85.8652 43.8092 85.8164 43.8052 85.7676 43.8052C85.3607 43.8052 84.9985 43.9354 84.6812 44.1958C84.3638 44.4481 84.0871 44.8021 83.8511 45.2578C83.6232 45.7135 83.432 46.2507 83.2773 46.8691C83.1309 47.4876 83.021 48.1631 82.9478 48.8955C82.9884 50.1569 83.0454 51.4061 83.1187 52.6431C83.1919 53.88 83.2692 55.1659 83.3506 56.5005ZM93.5801 37.6284C93.4824 38.6945 93.397 39.7524 93.3237 40.8022C93.2505 41.8439 93.1854 42.8937 93.1284 43.9517C93.4051 43.4552 93.7021 43.0728 94.0195 42.8042C94.3369 42.5275 94.634 42.3241 94.9106 42.1938C95.2362 42.0474 95.5535 41.9578 95.8628 41.9253C96.4487 41.9253 96.9696 42.0474 97.4253 42.2915C97.881 42.5356 98.2635 42.9548 98.5728 43.5488C98.8901 44.1348 99.1302 44.9201 99.293 45.9048C99.4557 46.8813 99.5371 48.1061 99.5371 49.5791C99.5371 50.9382 99.4069 52.0815 99.1465 53.0093C98.8942 53.9289 98.5646 54.6735 98.1577 55.2432C97.759 55.8047 97.3114 56.2075 96.8149 56.4517C96.3267 56.7039 95.8424 56.8301 95.3623 56.8301C95.3135 56.8301 95.2036 56.8179 95.0327 56.7935C94.87 56.7772 94.6706 56.7161 94.4346 56.6104C94.1986 56.5127 93.9463 56.3621 93.6777 56.1587C93.4092 55.9552 93.1528 55.6704 92.9087 55.3042V56.647L90.1621 56.5981C90.2354 55.41 90.2842 54.2259 90.3086 53.0459C90.3411 51.8659 90.3574 50.6859 90.3574 49.5059C90.3574 47.5202 90.3249 45.5508 90.2598 43.5977C90.1947 41.6364 90.1174 39.6629 90.0278 37.6772L93.5801 37.6284ZM94.459 54.5718C94.4997 54.5881 94.5404 54.5962 94.5811 54.5962C94.6299 54.5962 94.6787 54.5962 94.7275 54.5962C94.9473 54.5962 95.1751 54.5229 95.4111 54.3765C95.6553 54.2218 95.875 53.9533 96.0703 53.5708C96.2656 53.1883 96.4284 52.6715 96.5586 52.0205C96.6888 51.3613 96.7539 50.5231 96.7539 49.5059C96.7539 48.5944 96.7091 47.8376 96.6196 47.2354C96.5382 46.625 96.4243 46.1367 96.2778 45.7705C96.1313 45.4043 95.9604 45.1479 95.7651 45.0015C95.5698 44.8468 95.3664 44.7695 95.1548 44.7695C94.9351 44.7695 94.7316 44.8306 94.5444 44.9526C94.3654 45.0666 94.2026 45.2212 94.0562 45.4165C93.9097 45.6037 93.7754 45.8193 93.6533 46.0635C93.5394 46.3076 93.4377 46.5518 93.3481 46.7959C93.2586 47.0319 93.1813 47.2638 93.1162 47.4917C93.0592 47.7114 93.0145 47.8986 92.9819 48.0532C92.9331 49.6564 92.9087 51.2474 92.9087 52.8262C93.0959 53.2168 93.283 53.526 93.4702 53.7539C93.6574 53.9818 93.8242 54.1567 93.9707 54.2788C94.1416 54.4253 94.3044 54.5229 94.459 54.5718Z" fill="black"/>
</svg>
