<svg width="144" height="144" viewBox="0 0 144 144" fill="none" xmlns="http://www.w3.org/2000/svg">
<rect width="144" height="144" fill="#E6E6E6"/>
<path d="M25.4941 31.1953H25.1523C24.6478 31.1953 24.1676 31.2197 23.7119 31.2686C23.2643 31.3255 22.7842 31.4028 22.2715 31.5005C22.3773 29.7101 22.4587 28.0296 22.5156 26.459C22.5726 24.8802 22.6011 23.3503 22.6011 21.8691C22.6011 19.973 22.5522 18.1012 22.4546 16.2539L19.3784 16.4736C19.3703 16.1969 19.3621 15.9447 19.354 15.7168C19.3459 15.4808 19.3337 15.257 19.3174 15.0454C19.3011 14.8257 19.2808 14.606 19.2563 14.3862C19.2319 14.1584 19.2035 13.9061 19.1709 13.6294H20.6479C21.299 13.6294 21.9338 13.6253 22.5522 13.6172C23.1789 13.609 23.8014 13.5968 24.4199 13.5806C25.0465 13.5643 25.6772 13.5439 26.312 13.5195C26.9549 13.4951 27.6182 13.4626 28.3018 13.4219C28.2611 13.8369 28.2326 14.1909 28.2163 14.4839C28.2082 14.7687 28.2041 15.0658 28.2041 15.375V16.022L25.2012 16.0952C25.1768 16.8765 25.1605 17.6455 25.1523 18.4023C25.1523 19.151 25.1523 19.9079 25.1523 20.6729C25.1523 22.4469 25.1808 24.2048 25.2378 25.9463C25.2948 27.6878 25.3802 29.4375 25.4941 31.1953ZM32.5254 12.4209C32.4603 13.4788 32.3993 14.5286 32.3423 15.5703C32.2853 16.612 32.2365 17.6618 32.1958 18.7197C32.4806 18.1826 32.798 17.7676 33.1479 17.4746C33.4979 17.1735 33.8275 16.9538 34.1367 16.8154C34.4948 16.6527 34.8569 16.555 35.2231 16.5225C35.8091 16.5225 36.3096 16.6649 36.7246 16.9497C37.1396 17.2345 37.4814 17.6414 37.75 18.1704C38.0186 18.6994 38.2139 19.3382 38.3359 20.0869C38.458 20.8275 38.519 21.6576 38.519 22.5771C38.519 24.1152 38.4661 25.6045 38.3604 27.0449C38.2627 28.4772 38.0511 29.877 37.7256 31.2441L34.8691 30.9023C35.0563 29.9339 35.1987 29.0306 35.2964 28.1924C35.4022 27.3542 35.4795 26.6217 35.5283 25.9951C35.5853 25.2627 35.6178 24.5913 35.626 23.981C35.626 23.2078 35.6138 22.5365 35.5894 21.9668C35.5731 21.389 35.5161 20.9129 35.4185 20.5386C35.3289 20.1561 35.1865 19.8713 34.9912 19.6841C34.7959 19.4969 34.5233 19.4033 34.1733 19.4033C33.9048 19.444 33.6403 19.6068 33.3799 19.8916C33.266 20.0137 33.152 20.1683 33.0381 20.3555C32.9242 20.5426 32.8062 20.7746 32.6841 21.0513C32.5701 21.3198 32.4603 21.6372 32.3545 22.0034C32.2487 22.3696 32.1551 22.7928 32.0737 23.2729C32.0493 24.103 32.033 24.929 32.0249 25.751C32.0249 26.5729 32.0249 27.3908 32.0249 28.2046C32.0249 28.7173 32.0249 29.234 32.0249 29.7549C32.0249 30.2757 32.033 30.7925 32.0493 31.3052L29.2783 31.2441C29.3678 29.7549 29.4329 28.2656 29.4736 26.7764C29.5225 25.2871 29.5469 23.7856 29.5469 22.272C29.5469 20.6118 29.5184 18.9639 29.4614 17.3281C29.4045 15.6842 29.3231 14.0322 29.2173 12.3721L32.5254 12.4209ZM48.8584 28.3755C48.8584 28.8556 48.7485 29.3073 48.5288 29.7305C48.3091 30.1536 48.012 30.5199 47.6377 30.8291C47.2633 31.1383 46.8239 31.3825 46.3193 31.5615C45.8148 31.7406 45.2777 31.8301 44.708 31.8301C44.3255 31.8301 43.939 31.7772 43.5483 31.6714C43.1577 31.5656 42.7834 31.3906 42.4253 31.1465C42.0672 30.9023 41.7295 30.5809 41.4121 30.1821C41.0947 29.7834 40.818 29.2951 40.582 28.7173C40.3542 28.1395 40.1711 27.464 40.0327 26.6909C39.9025 25.9097 39.8374 25.0145 39.8374 24.0054C39.8374 23.0532 39.9025 22.2109 40.0327 21.4785C40.1711 20.7461 40.3542 20.1073 40.582 19.562C40.818 19.0168 41.0907 18.561 41.3999 18.1948C41.7091 17.8205 42.0387 17.5194 42.3887 17.2915C42.7467 17.0555 43.113 16.8887 43.4873 16.791C43.8698 16.6934 44.2441 16.6445 44.6104 16.6445C45.1556 16.6445 45.6724 16.734 46.1606 16.9131C46.6489 17.084 47.0762 17.3403 47.4424 17.6821C47.8086 18.0239 48.0975 18.4471 48.3091 18.9517C48.5288 19.4481 48.6387 20.0218 48.6387 20.6729C48.6387 21.2588 48.5166 21.8529 48.2725 22.4551C48.0365 23.0492 47.6825 23.6147 47.2104 24.1519C46.7384 24.6808 46.1525 25.165 45.4526 25.6045C44.7609 26.0358 43.9634 26.3776 43.0601 26.6299C43.1089 27.1344 43.1781 27.5942 43.2676 28.0093C43.3652 28.4243 43.4832 28.7783 43.6216 29.0713C43.7681 29.3643 43.9349 29.5921 44.1221 29.7549C44.3174 29.9176 44.5412 29.999 44.7935 29.999C44.9562 29.9909 45.1108 29.9624 45.2573 29.9136C45.3875 29.8729 45.5177 29.8078 45.6479 29.7183C45.7863 29.6287 45.9002 29.4985 45.9897 29.3276C45.7782 29.23 45.6154 29.1038 45.5015 28.9492C45.3875 28.7946 45.3021 28.6481 45.2451 28.5098C45.18 28.347 45.1434 28.1761 45.1353 27.9971C45.1353 27.6064 45.2126 27.2891 45.3672 27.0449C45.5218 26.8008 45.7049 26.6095 45.9165 26.4712C46.1281 26.3328 46.3438 26.2393 46.5635 26.1904C46.7832 26.1335 46.9582 26.105 47.0884 26.105C47.2267 26.105 47.3936 26.1335 47.5889 26.1904C47.7923 26.2474 47.9876 26.3573 48.1748 26.52C48.362 26.6828 48.5207 26.9147 48.6509 27.2158C48.7892 27.5088 48.8584 27.8953 48.8584 28.3755ZM45.8433 20.6973C45.8433 20.4043 45.8148 20.1276 45.7578 19.8672C45.709 19.5986 45.6317 19.3667 45.5259 19.1714C45.4282 18.9761 45.3021 18.8215 45.1475 18.7075C45.001 18.5854 44.8301 18.5244 44.6348 18.5244C44.3011 18.5244 44.0285 18.679 43.8169 18.9883C43.6053 19.2894 43.4344 19.6922 43.3042 20.1968C43.174 20.7013 43.0845 21.2832 43.0356 21.9424C42.9868 22.6016 42.9624 23.2892 42.9624 24.0054V24.8965C43.3774 24.6768 43.7599 24.4163 44.1099 24.1152C44.4679 23.8141 44.7731 23.4845 45.0254 23.1265C45.2858 22.7603 45.4852 22.3737 45.6235 21.9668C45.77 21.5599 45.8433 21.1367 45.8433 20.6973ZM63.8486 20.0015C63.8486 20.3758 63.7795 20.6932 63.6411 20.9536C63.5028 21.214 63.3359 21.4256 63.1406 21.5884C62.9453 21.7511 62.7419 21.8691 62.5303 21.9424C62.3187 22.0156 62.1396 22.0522 61.9932 22.0522C61.8467 22.0522 61.6717 22.0278 61.4683 21.979C61.2648 21.922 61.0695 21.8244 60.8823 21.686C60.7033 21.5477 60.5487 21.3646 60.4185 21.1367C60.2882 20.9007 60.2231 20.6037 60.2231 20.2456C60.2313 20.0503 60.2679 19.859 60.333 19.6719C60.39 19.5091 60.4754 19.3423 60.5894 19.1714C60.7114 18.9924 60.8823 18.8337 61.1021 18.6953C60.9556 18.4837 60.8091 18.321 60.6626 18.207C60.5161 18.0931 60.3859 18.0076 60.272 17.9507C60.1336 17.8856 60.0075 17.8449 59.8936 17.8286C59.6413 17.8286 59.4134 17.8815 59.21 17.9873C59.0065 18.085 58.8315 18.2192 58.6851 18.3901C58.5467 18.5529 58.4368 18.7441 58.3555 18.9639C58.2822 19.1836 58.2456 19.4115 58.2456 19.6475C58.2456 19.9486 58.266 20.2212 58.3066 20.4653C58.3473 20.7095 58.4409 20.9577 58.5874 21.21C58.7339 21.4622 58.9536 21.7349 59.2466 22.0278C59.5396 22.3208 59.9383 22.6626 60.4429 23.0532C60.9474 23.4438 61.3869 23.8263 61.7612 24.2007C62.1356 24.5669 62.4448 24.929 62.689 25.2871C62.9331 25.6452 63.1162 26.0073 63.2383 26.3735C63.3604 26.7316 63.4214 27.106 63.4214 27.4966C63.4214 27.757 63.3929 28.0418 63.3359 28.3511C63.2871 28.6522 63.1976 28.9614 63.0674 29.2788C62.9453 29.5881 62.7785 29.8892 62.5669 30.1821C62.3634 30.467 62.1071 30.7233 61.7979 30.9512C61.4967 31.179 61.1387 31.3581 60.7236 31.4883C60.3167 31.6266 59.8488 31.6958 59.3198 31.6958C58.5223 31.6958 57.8428 31.5778 57.2812 31.3418C56.7197 31.1058 56.2559 30.821 55.8896 30.4873C55.5316 30.1455 55.2671 29.7874 55.0962 29.4131C54.9334 29.0387 54.8521 28.7091 54.8521 28.4243C54.8521 28.1232 54.8887 27.8424 54.9619 27.582C55.0352 27.3216 55.1491 27.0938 55.3037 26.8984C55.4665 26.7031 55.6699 26.5526 55.9141 26.4468C56.1663 26.3328 56.4674 26.2759 56.8174 26.2759C57.1104 26.2759 57.3748 26.3206 57.6108 26.4102C57.855 26.4997 58.0625 26.634 58.2334 26.813C58.4124 26.9839 58.5508 27.1955 58.6484 27.4478C58.7461 27.7 58.7949 27.9849 58.7949 28.3022C58.7868 28.4406 58.7583 28.583 58.7095 28.7295C58.6688 28.8516 58.5996 28.9858 58.502 29.1323C58.4043 29.2788 58.27 29.4172 58.0991 29.5474C58.2131 29.6369 58.3229 29.7061 58.4287 29.7549C58.5426 29.7956 58.6444 29.8241 58.7339 29.8403C58.8315 29.8647 58.9292 29.877 59.0269 29.877C59.1326 29.877 59.2547 29.8485 59.3931 29.7915C59.5396 29.7264 59.6779 29.6287 59.8081 29.4985C59.9383 29.3683 60.0482 29.2096 60.1377 29.0225C60.2272 28.8353 60.272 28.6115 60.272 28.3511C60.272 28.0907 60.2476 27.8547 60.1987 27.6431C60.158 27.4233 60.0645 27.1995 59.918 26.9717C59.7796 26.7357 59.5762 26.4793 59.3076 26.2026C59.0391 25.9259 58.6851 25.5923 58.2456 25.2017C57.8062 24.811 57.4155 24.4326 57.0737 24.0664C56.7319 23.6921 56.443 23.3055 56.207 22.9067C55.9792 22.508 55.8042 22.0889 55.6821 21.6494C55.5601 21.21 55.499 20.7257 55.499 20.1968C55.499 19.6759 55.6007 19.1714 55.8042 18.6831C56.0158 18.1948 56.3128 17.7635 56.6953 17.3892C57.0778 17.0067 57.5417 16.7056 58.0869 16.4858C58.6322 16.258 59.2425 16.144 59.918 16.144C60.6016 16.144 61.1916 16.2498 61.688 16.4614C62.1844 16.673 62.5913 16.9578 62.9087 17.3159C63.2261 17.6659 63.4621 18.0728 63.6167 18.5366C63.7713 19.0005 63.8486 19.4888 63.8486 20.0015ZM70.8677 31.5005C70.8188 31.2482 70.7741 30.9919 70.7334 30.7314C70.6927 30.471 70.6602 30.2025 70.6357 29.9258C70.2614 30.4792 69.8138 30.9023 69.293 31.1953C68.7721 31.4964 68.2025 31.647 67.584 31.647C67.2666 31.647 66.9411 31.5941 66.6074 31.4883C66.2738 31.3906 65.9686 31.2157 65.6919 30.9634C65.4233 30.7111 65.1995 30.3693 65.0205 29.938C64.8496 29.4985 64.7642 28.9451 64.7642 28.2778C64.7642 27.7244 64.8455 27.2443 65.0083 26.8374C65.1711 26.4224 65.3826 26.0602 65.6431 25.751C65.9035 25.4417 66.1965 25.1732 66.522 24.9453C66.8475 24.7174 67.1689 24.514 67.4863 24.335C67.8118 24.1559 68.1211 23.9891 68.4141 23.8345C68.707 23.6799 68.9471 23.5252 69.1343 23.3706C69.4924 23.0858 69.8016 22.7847 70.062 22.4673C70.3306 22.1418 70.5462 21.804 70.709 21.4541C70.6764 20.8926 70.6154 20.4328 70.5259 20.0747C70.4445 19.7085 70.3346 19.4196 70.1963 19.208C70.0579 18.9883 69.887 18.8377 69.6836 18.7563C69.4883 18.6668 69.2645 18.6221 69.0122 18.6221C68.6379 18.6221 68.3205 18.7035 68.0601 18.8662C67.8078 19.029 67.6003 19.2243 67.4375 19.4521C67.641 19.5824 67.7956 19.7207 67.9014 19.8672C68.0153 20.0137 68.1007 20.1561 68.1577 20.2944C68.2228 20.4491 68.2594 20.6077 68.2676 20.7705C68.2676 21.3239 68.1089 21.7471 67.7915 22.04C67.4823 22.333 67.0835 22.4795 66.5952 22.4795C66.3429 22.4795 66.111 22.4225 65.8994 22.3086C65.6878 22.1865 65.5007 22.0197 65.3379 21.8081C65.1833 21.5965 65.0612 21.3442 64.9717 21.0513C64.8822 20.7583 64.8374 20.4409 64.8374 20.0991C64.8374 19.7573 64.9147 19.3952 65.0693 19.0127C65.224 18.6302 65.4722 18.2762 65.814 17.9507C66.1558 17.617 66.5952 17.3444 67.1323 17.1328C67.6694 16.9131 68.3205 16.8032 69.0854 16.8032C69.8504 16.8032 70.5055 16.9538 71.0508 17.2549C71.596 17.5479 72.0436 17.9425 72.3936 18.439C72.7435 18.9272 72.9958 19.4928 73.1504 20.1357C73.3132 20.7786 73.3945 21.4419 73.3945 22.1255C73.3945 22.6382 73.3905 23.1956 73.3823 23.7979C73.3742 24.4001 73.3701 25.0186 73.3701 25.6533C73.3701 26.1823 73.3742 26.7113 73.3823 27.2402C73.3905 27.7692 73.4067 28.2819 73.4312 28.7783C73.4556 29.2666 73.4881 29.7305 73.5288 30.1699C73.5695 30.6012 73.6224 30.9878 73.6875 31.3296L70.8677 31.5005ZM70.6846 24.3472C70.3997 24.689 70.0946 24.9819 69.769 25.2261C69.5249 25.397 69.2604 25.5882 68.9756 25.7998C68.6989 26.0114 68.4385 26.2352 68.1943 26.4712C67.9583 26.7072 67.759 26.9554 67.5962 27.2158C67.4416 27.4681 67.3643 27.7285 67.3643 27.9971C67.3643 28.3633 67.4538 28.6766 67.6328 28.937C67.8118 29.1974 68.0641 29.3276 68.3896 29.3276C68.6908 29.3276 68.9593 29.2463 69.1953 29.0835C69.4313 28.9207 69.6388 28.7214 69.8179 28.4854C70.005 28.2412 70.1597 27.9808 70.2817 27.7041C70.4119 27.4274 70.5137 27.1751 70.5869 26.9473L70.6846 24.3472ZM78.3506 12.2256C78.3018 13.2184 78.257 14.138 78.2163 14.9844C78.1756 15.8307 78.139 16.6283 78.1064 17.377C78.082 18.1257 78.0617 18.8377 78.0454 19.5132C78.0291 20.1886 78.0129 20.856 77.9966 21.5151C77.9884 22.1743 77.9803 22.8376 77.9722 23.5049C77.9722 24.1722 77.9722 24.8721 77.9722 25.6045C77.9722 26.4183 77.9722 27.2891 77.9722 28.2168C77.9722 29.1445 77.9803 30.174 77.9966 31.3052L75.2256 31.2441C75.2744 30.0153 75.307 28.8068 75.3232 27.6187C75.3395 26.4224 75.3477 25.1976 75.3477 23.9443C75.3477 23.1061 75.3436 22.2476 75.3354 21.3687C75.3273 20.4816 75.3151 19.5579 75.2988 18.5977C75.2826 17.6292 75.2622 16.612 75.2378 15.5459C75.2215 14.4798 75.2012 13.3486 75.1768 12.1523L78.3506 12.2256ZM89.7397 20.8193C89.7235 20.8438 89.7113 20.9048 89.7031 21.0024C89.695 21.1001 89.6868 21.2222 89.6787 21.3687C89.6787 21.5151 89.6787 21.682 89.6787 21.8691C89.6787 22.0482 89.6787 22.2354 89.6787 22.4307C89.6787 22.626 89.6787 22.8254 89.6787 23.0288C89.6787 23.2241 89.6787 23.4072 89.6787 23.5781C89.6868 23.749 89.695 23.9036 89.7031 24.042C89.7113 24.1722 89.7235 24.2739 89.7397 24.3472C88.6004 24.2821 87.3838 24.2373 86.0898 24.2129C84.7959 24.1885 83.4775 24.1763 82.1348 24.1763H80.0352C80.0514 23.8996 80.0677 23.5985 80.084 23.2729C80.1003 22.9474 80.1084 22.6056 80.1084 22.2476C80.1084 21.8 80.084 21.3239 80.0352 20.8193C80.4014 20.8763 80.7961 20.9251 81.2192 20.9658C81.6506 21.0065 82.0941 21.0431 82.5498 21.0757C83.0137 21.1001 83.4857 21.1204 83.9658 21.1367C84.446 21.1449 84.918 21.1489 85.3818 21.1489C85.8538 21.1489 86.3096 21.1449 86.749 21.1367C87.1885 21.1204 87.5954 21.1001 87.9697 21.0757C88.3522 21.0431 88.694 21.0065 88.9951 20.9658C89.2962 20.9251 89.5444 20.8763 89.7397 20.8193ZM94.8057 12.2256C94.7568 13.2184 94.7121 14.138 94.6714 14.9844C94.6307 15.8307 94.5941 16.6283 94.5615 17.377C94.5371 18.1257 94.5168 18.8377 94.5005 19.5132C94.4842 20.1886 94.4679 20.856 94.4517 21.5151C94.4435 22.1743 94.4354 22.8376 94.4272 23.5049C94.4272 24.1722 94.4272 24.8721 94.4272 25.6045C94.4272 26.4183 94.4272 27.2891 94.4272 28.2168C94.4272 29.1445 94.4354 30.174 94.4517 31.3052L91.6807 31.2441C91.7295 30.0153 91.762 28.8068 91.7783 27.6187C91.7946 26.4224 91.8027 25.1976 91.8027 23.9443C91.8027 23.1061 91.7987 22.2476 91.7905 21.3687C91.7824 20.4816 91.7702 19.5579 91.7539 18.5977C91.7376 17.6292 91.7173 16.612 91.6929 15.5459C91.6766 14.4798 91.6562 13.3486 91.6318 12.1523L94.8057 12.2256ZM102.093 31.5005C102.044 31.2482 102 30.9919 101.959 30.7314C101.918 30.471 101.886 30.2025 101.861 29.9258C101.487 30.4792 101.039 30.9023 100.519 31.1953C99.9977 31.4964 99.4281 31.647 98.8096 31.647C98.4922 31.647 98.1667 31.5941 97.833 31.4883C97.4993 31.3906 97.1942 31.2157 96.9175 30.9634C96.6489 30.7111 96.4251 30.3693 96.2461 29.938C96.0752 29.4985 95.9897 28.9451 95.9897 28.2778C95.9897 27.7244 96.0711 27.2443 96.2339 26.8374C96.3966 26.4224 96.6082 26.0602 96.8687 25.751C97.1291 25.4417 97.422 25.1732 97.7476 24.9453C98.0731 24.7174 98.3945 24.514 98.7119 24.335C99.0374 24.1559 99.3467 23.9891 99.6396 23.8345C99.9326 23.6799 100.173 23.5252 100.36 23.3706C100.718 23.0858 101.027 22.7847 101.288 22.4673C101.556 22.1418 101.772 21.804 101.935 21.4541C101.902 20.8926 101.841 20.4328 101.751 20.0747C101.67 19.7085 101.56 19.4196 101.422 19.208C101.284 18.9883 101.113 18.8377 100.909 18.7563C100.714 18.6668 100.49 18.6221 100.238 18.6221C99.8634 18.6221 99.5461 18.7035 99.2856 18.8662C99.0334 19.029 98.8258 19.2243 98.6631 19.4521C98.8665 19.5824 99.0212 19.7207 99.127 19.8672C99.2409 20.0137 99.3263 20.1561 99.3833 20.2944C99.4484 20.4491 99.485 20.6077 99.4932 20.7705C99.4932 21.3239 99.3345 21.7471 99.0171 22.04C98.7078 22.333 98.3091 22.4795 97.8208 22.4795C97.5685 22.4795 97.3366 22.4225 97.125 22.3086C96.9134 22.1865 96.7262 22.0197 96.5635 21.8081C96.4089 21.5965 96.2868 21.3442 96.1973 21.0513C96.1077 20.7583 96.063 20.4409 96.063 20.0991C96.063 19.7573 96.1403 19.3952 96.2949 19.0127C96.4495 18.6302 96.6978 18.2762 97.0396 17.9507C97.3813 17.617 97.8208 17.3444 98.3579 17.1328C98.895 16.9131 99.5461 16.8032 100.311 16.8032C101.076 16.8032 101.731 16.9538 102.276 17.2549C102.822 17.5479 103.269 17.9425 103.619 18.439C103.969 18.9272 104.221 19.4928 104.376 20.1357C104.539 20.7786 104.62 21.4419 104.62 22.1255C104.62 22.6382 104.616 23.1956 104.608 23.7979C104.6 24.4001 104.596 25.0186 104.596 25.6533C104.596 26.1823 104.6 26.7113 104.608 27.2402C104.616 27.7692 104.632 28.2819 104.657 28.7783C104.681 29.2666 104.714 29.7305 104.754 30.1699C104.795 30.6012 104.848 30.9878 104.913 31.3296L102.093 31.5005ZM101.91 24.3472C101.625 24.689 101.32 24.9819 100.995 25.2261C100.75 25.397 100.486 25.5882 100.201 25.7998C99.9245 26.0114 99.6641 26.2352 99.4199 26.4712C99.1839 26.7072 98.9845 26.9554 98.8218 27.2158C98.6672 27.4681 98.5898 27.7285 98.5898 27.9971C98.5898 28.3633 98.6794 28.6766 98.8584 28.937C99.0374 29.1974 99.2897 29.3276 99.6152 29.3276C99.9163 29.3276 100.185 29.2463 100.421 29.0835C100.657 28.9207 100.864 28.7214 101.043 28.4854C101.231 28.2412 101.385 27.9808 101.507 27.7041C101.638 27.4274 101.739 27.1751 101.812 26.9473L101.91 24.3472ZM115.851 12.6772C115.663 15.0535 115.521 17.4136 115.423 19.7573C115.326 22.0929 115.277 24.4489 115.277 26.8252C115.277 28.4121 115.301 30.0031 115.35 31.5981L112.567 31.647L112.652 29.23C112.327 29.8403 111.993 30.3083 111.651 30.6338C111.31 30.9593 110.996 31.2035 110.711 31.3662C110.378 31.5534 110.048 31.6632 109.723 31.6958C109.308 31.6958 108.889 31.5778 108.465 31.3418C108.042 31.1058 107.66 30.6989 107.318 30.1211C106.976 29.5433 106.695 28.7743 106.476 27.814C106.256 26.8455 106.146 25.633 106.146 24.1763C106.146 23.216 106.203 22.3696 106.317 21.6372C106.431 20.8966 106.585 20.2537 106.781 19.7085C106.976 19.1632 107.204 18.7075 107.464 18.3413C107.733 17.967 108.018 17.6659 108.319 17.438C108.628 17.2101 108.95 17.0474 109.283 16.9497C109.617 16.8521 109.946 16.8032 110.272 16.8032C110.492 16.8195 110.728 16.8724 110.98 16.9619C111.192 17.0433 111.432 17.1654 111.7 17.3281C111.977 17.4827 112.258 17.7147 112.542 18.0239C112.494 16.2173 112.42 14.4188 112.323 12.6284L115.851 12.6772ZM112.701 25.1528C112.701 23.5822 112.677 22.0075 112.628 20.4287C112.538 20.2985 112.441 20.1642 112.335 20.0259C112.237 19.8875 112.127 19.7614 112.005 19.6475C111.883 19.5254 111.753 19.4277 111.615 19.3545C111.476 19.2812 111.33 19.2446 111.175 19.2446C110.947 19.2446 110.715 19.326 110.479 19.4888C110.252 19.6434 110.044 19.916 109.857 20.3066C109.67 20.6891 109.515 21.2018 109.393 21.8447C109.279 22.4876 109.222 23.2974 109.222 24.2739C109.222 25.1772 109.263 25.9259 109.344 26.52C109.426 27.1141 109.535 27.5902 109.674 27.9482C109.812 28.2982 109.971 28.5464 110.15 28.6929C110.329 28.8312 110.52 28.9004 110.724 28.9004C111.033 28.9004 111.297 28.7987 111.517 28.5952C111.745 28.3836 111.932 28.1313 112.079 27.8384C112.233 27.5454 112.359 27.2443 112.457 26.9351C112.555 26.6177 112.636 26.3491 112.701 26.1294V25.1528Z" fill="black"/>
<path d="M33 103H109.991V104.973H33V103Z" fill="#9B231B"/>
<path d="M33 105H110V108H33V105Z" fill="#71F85B"/>
</svg>

