<svg width="170" height="170" viewBox="0 0 170 170" fill="none" xmlns="http://www.w3.org/2000/svg">
<rect width="168.994" height="170" fill="#E6E6E6"/>
<path d="M17.9469 6.62939C18.0201 7.59782 18.0852 8.61507 18.1422 9.68115C18.1666 10.1369 18.191 10.6252 18.2155 11.146C18.2399 11.6668 18.2602 12.2121 18.2765 12.7817C18.2928 13.3433 18.305 13.9211 18.3131 14.5151C18.3294 15.1011 18.3375 15.687 18.3375 16.2729C18.3375 17.4204 18.2643 18.5109 18.1178 19.5444C17.9713 20.578 17.7312 21.4894 17.3976 22.2788C17.0639 23.0682 16.6245 23.6948 16.0792 24.1587C15.534 24.6226 14.8626 24.8545 14.0651 24.8545C14.0488 24.8545 13.9755 24.8504 13.8453 24.8423C13.7233 24.8341 13.5646 24.8057 13.3693 24.7568C13.174 24.708 12.9542 24.6307 12.7101 24.5249C12.4741 24.4191 12.234 24.2686 11.9899 24.0732C11.7457 23.8779 11.5138 23.6297 11.2941 23.3286C11.0743 23.0194 10.8912 22.645 10.7448 22.2056C10.5739 22.6206 10.3704 22.9665 10.1344 23.2432C9.8984 23.5199 9.65426 23.7518 9.40198 23.939C9.1497 24.118 8.89335 24.2563 8.63293 24.354C8.38066 24.4517 8.15279 24.5208 7.94934 24.5615C7.74589 24.6022 7.57499 24.6266 7.43665 24.6348C7.2983 24.6429 7.21692 24.647 7.1925 24.647C6.70422 24.647 6.28512 24.533 5.93518 24.3052C5.59338 24.0854 5.30042 23.7803 5.05627 23.3896C4.82027 22.9909 4.6331 22.527 4.49475 21.998C4.3564 21.4609 4.24654 20.8831 4.16516 20.2646C4.09192 19.638 4.04309 18.9829 4.01868 18.2993C4.0024 17.6157 3.99426 16.9321 3.99426 16.2485C3.99426 15.63 3.99833 15.0156 4.00647 14.4053C4.01461 13.7868 4.02275 13.1886 4.03088 12.6108C4.04716 12.033 4.06344 11.4797 4.07971 10.9507C4.10413 10.4136 4.12447 9.91715 4.14075 9.46143C4.18144 8.38721 4.23027 7.37402 4.28723 6.42188L7.86389 6.51953C7.70927 7.46354 7.57092 8.45638 7.44885 9.49805C7.40002 9.94564 7.3512 10.4258 7.30237 10.9385C7.25354 11.4512 7.20878 11.9883 7.16809 12.5498C7.13554 13.1032 7.10706 13.6769 7.08264 14.271C7.05823 14.8569 7.04602 15.4429 7.04602 16.0288C7.04602 16.4764 7.04602 16.9281 7.04602 17.3838C7.05416 17.8395 7.06637 18.283 7.08264 18.7144C7.10706 19.1375 7.13961 19.5363 7.1803 19.9106C7.22099 20.2769 7.27795 20.6024 7.3512 20.8872C7.43258 21.1639 7.53023 21.3836 7.64417 21.5464C7.76624 21.701 7.91679 21.7783 8.09583 21.7783C8.26672 21.7783 8.42542 21.6725 8.5719 21.4609C8.72652 21.2493 8.8608 20.9727 8.97473 20.6309C9.0968 20.2809 9.2026 19.8903 9.29211 19.459C9.38977 19.0195 9.46708 18.5801 9.52405 18.1406C9.58915 17.693 9.63798 17.2617 9.67053 16.8467C9.70308 16.4316 9.71936 16.0736 9.71936 15.7725C9.71936 15.6748 9.72343 15.5487 9.73157 15.394C9.73157 15.2557 9.73157 15.0807 9.73157 14.8691C9.73971 14.6494 9.74377 14.3849 9.74377 14.0757C9.74377 13.4572 9.73564 12.623 9.71936 11.5732C9.70308 10.5153 9.67867 9.19287 9.64612 7.60596L12.7467 7.72803C12.6735 9.03825 12.6124 10.1532 12.5636 11.0728C12.5148 11.9924 12.4741 12.7614 12.4415 13.3799C12.409 13.9902 12.3846 14.4826 12.3683 14.8569C12.3601 15.2231 12.352 15.5161 12.3439 15.7358C12.3439 15.9474 12.3439 16.1102 12.3439 16.2241C12.3439 16.3299 12.3439 16.4316 12.3439 16.5293C12.3439 16.8792 12.3561 17.2576 12.3805 17.6646C12.413 18.0633 12.4578 18.4621 12.5148 18.8608C12.5799 19.2596 12.6572 19.6462 12.7467 20.0205C12.8444 20.3867 12.9502 20.7122 13.0641 20.9971C13.1862 21.2738 13.3204 21.4976 13.4669 21.6685C13.6215 21.8394 13.7884 21.9248 13.9674 21.9248C14.2441 21.9248 14.4638 21.7702 14.6266 21.4609C14.7975 21.1517 14.9236 20.7326 15.005 20.2036C15.0945 19.6665 15.1515 19.048 15.1759 18.3481C15.2003 17.6401 15.2125 16.8914 15.2125 16.1021C15.2125 14.8732 15.184 13.738 15.1271 12.6963C15.0782 11.6546 15.0131 10.731 14.9318 9.92529C14.8504 9.11149 14.7649 8.41976 14.6754 7.8501C14.594 7.2723 14.5249 6.83691 14.4679 6.54395L17.9469 6.62939ZM25.9059 24.5005C25.8571 24.2482 25.8123 23.9919 25.7716 23.7314C25.7309 23.471 25.6984 23.2025 25.674 22.9258C25.2996 23.4792 24.852 23.9023 24.3312 24.1953C23.8103 24.4964 23.2407 24.647 22.6222 24.647C22.3048 24.647 21.9793 24.5941 21.6456 24.4883C21.312 24.3906 21.0068 24.2157 20.7301 23.9634C20.4615 23.7111 20.2378 23.3693 20.0587 22.938C19.8878 22.4985 19.8024 21.9451 19.8024 21.2778C19.8024 20.7244 19.8837 20.2443 20.0465 19.8374C20.2093 19.4224 20.4209 19.0602 20.6813 18.751C20.9417 18.4417 21.2347 18.1732 21.5602 17.9453C21.8857 17.7174 22.2072 17.514 22.5245 17.335C22.8501 17.1559 23.1593 16.9891 23.4523 16.8345C23.7452 16.6799 23.9853 16.5252 24.1725 16.3706C24.5306 16.0858 24.8398 15.7847 25.1002 15.4673C25.3688 15.1418 25.5844 14.804 25.7472 14.4541C25.7146 13.8926 25.6536 13.4328 25.5641 13.0747C25.4827 12.7085 25.3728 12.4196 25.2345 12.208C25.0962 11.9883 24.9253 11.8377 24.7218 11.7563C24.5265 11.6668 24.3027 11.6221 24.0504 11.6221C23.6761 11.6221 23.3587 11.7035 23.0983 11.8662C22.846 12.029 22.6385 12.2243 22.4757 12.4521C22.6792 12.5824 22.8338 12.7207 22.9396 12.8672C23.0535 13.0137 23.139 13.1561 23.1959 13.2944C23.261 13.4491 23.2976 13.6077 23.3058 13.7705C23.3058 14.3239 23.1471 14.7471 22.8297 15.04C22.5205 15.333 22.1217 15.4795 21.6334 15.4795C21.3811 15.4795 21.1492 15.4225 20.9376 15.3086C20.726 15.1865 20.5389 15.0197 20.3761 14.8081C20.2215 14.5965 20.0994 14.3442 20.0099 14.0513C19.9204 13.7583 19.8756 13.4409 19.8756 13.0991C19.8756 12.7573 19.9529 12.3952 20.1075 12.0127C20.2622 11.6302 20.5104 11.2762 20.8522 10.9507C21.194 10.617 21.6334 10.3444 22.1705 10.1328C22.7076 9.91309 23.3587 9.80322 24.1237 9.80322C24.8886 9.80322 25.5437 9.95378 26.089 10.2549C26.6342 10.5479 27.0818 10.9425 27.4318 11.439C27.7817 11.9272 28.034 12.4928 28.1886 13.1357C28.3514 13.7786 28.4327 14.4419 28.4327 15.1255C28.4327 15.6382 28.4287 16.1956 28.4205 16.7979C28.4124 17.4001 28.4083 18.0186 28.4083 18.6533C28.4083 19.1823 28.4124 19.7113 28.4205 20.2402C28.4287 20.7692 28.4449 21.2819 28.4694 21.7783C28.4938 22.2666 28.5263 22.7305 28.567 23.1699C28.6077 23.6012 28.6606 23.9878 28.7257 24.3296L25.9059 24.5005ZM25.7228 17.3472C25.4379 17.689 25.1328 17.9819 24.8073 18.2261C24.5631 18.397 24.2986 18.5882 24.0138 18.7998C23.7371 19.0114 23.4767 19.2352 23.2325 19.4712C22.9965 19.7072 22.7972 19.9554 22.6344 20.2158C22.4798 20.4681 22.4025 20.7285 22.4025 20.9971C22.4025 21.3633 22.492 21.6766 22.671 21.937C22.8501 22.1974 23.1023 22.3276 23.4279 22.3276C23.729 22.3276 23.9975 22.2463 24.2335 22.0835C24.4695 21.9207 24.677 21.7214 24.8561 21.4854C25.0433 21.2412 25.1979 20.9808 25.3199 20.7041C25.4502 20.4274 25.5519 20.1751 25.6251 19.9473L25.7228 17.3472ZM34.5607 5.44531C34.4956 6.28353 34.4427 7.10954 34.402 7.92334C34.3613 8.729 34.3206 9.53874 34.2799 10.3525C34.638 10.3363 34.992 10.3241 35.3419 10.3159C35.6919 10.2996 36.0499 10.2793 36.4161 10.2549L36.465 13.3799C36.0743 13.3148 35.6878 13.2619 35.3053 13.2212C34.9228 13.1805 34.5485 13.1479 34.1823 13.1235C34.1578 13.8153 34.1416 14.4989 34.1334 15.1743C34.1334 15.8498 34.1334 16.5334 34.1334 17.2251C34.1334 18.4621 34.1456 19.6909 34.17 20.9116C34.2026 22.1323 34.2514 23.3612 34.3165 24.5981L31.1305 24.5493C31.2363 22.6369 31.3217 20.7285 31.3868 18.8242C31.4601 16.9118 31.5089 14.9871 31.5333 13.0503C31.1915 13.0666 30.8497 13.0869 30.5079 13.1113C30.1661 13.1276 29.8162 13.1479 29.4581 13.1724L29.5558 10.2793C29.8894 10.3037 30.219 10.3241 30.5446 10.3403C30.8782 10.3485 31.2078 10.3607 31.5333 10.377C31.5333 9.56315 31.5252 8.75342 31.5089 7.94775C31.4926 7.13395 31.4764 6.31608 31.4601 5.49414L34.5607 5.44531ZM46.1329 21.3755C46.1329 21.8556 46.0231 22.3073 45.8033 22.7305C45.5836 23.1536 45.2866 23.5199 44.9122 23.8291C44.5379 24.1383 44.0984 24.3825 43.5939 24.5615C43.0893 24.7406 42.5522 24.8301 41.9825 24.8301C41.6001 24.8301 41.2135 24.7772 40.8229 24.6714C40.4323 24.5656 40.0579 24.3906 39.6998 24.1465C39.3418 23.9023 39.004 23.5809 38.6866 23.1821C38.3693 22.7834 38.0926 22.2951 37.8566 21.7173C37.6287 21.1395 37.4456 20.464 37.3073 19.6909C37.177 18.9097 37.1119 18.0145 37.1119 17.0054C37.1119 16.0532 37.177 15.2109 37.3073 14.4785C37.4456 13.7461 37.6287 13.1073 37.8566 12.562C38.0926 12.0168 38.3652 11.561 38.6744 11.1948C38.9837 10.8205 39.3133 10.5194 39.6632 10.2915C40.0213 10.0555 40.3875 9.88867 40.7618 9.79102C41.1443 9.69336 41.5187 9.64453 41.8849 9.64453C42.4301 9.64453 42.9469 9.73405 43.4352 9.91309C43.9235 10.084 44.3507 10.3403 44.7169 10.6821C45.0831 11.0239 45.372 11.4471 45.5836 11.9517C45.8033 12.4481 45.9132 13.0218 45.9132 13.6729C45.9132 14.2588 45.7911 14.8529 45.547 15.4551C45.311 16.0492 44.957 16.6147 44.485 17.1519C44.013 17.6808 43.427 18.165 42.7272 18.6045C42.0354 19.0358 41.2379 19.3776 40.3346 19.6299C40.3834 20.1344 40.4526 20.5942 40.5421 21.0093C40.6398 21.4243 40.7578 21.7783 40.8961 22.0713C41.0426 22.3643 41.2094 22.5921 41.3966 22.7549C41.5919 22.9176 41.8157 22.999 42.068 22.999C42.2308 22.9909 42.3854 22.9624 42.5319 22.9136C42.6621 22.8729 42.7923 22.8078 42.9225 22.7183C43.0608 22.6287 43.1748 22.4985 43.2643 22.3276C43.0527 22.23 42.8899 22.1038 42.776 21.9492C42.6621 21.7946 42.5766 21.6481 42.5197 21.5098C42.4545 21.347 42.4179 21.1761 42.4098 20.9971C42.4098 20.6064 42.4871 20.2891 42.6417 20.0449C42.7963 19.8008 42.9795 19.6095 43.191 19.4712C43.4026 19.3328 43.6183 19.2393 43.838 19.1904C44.0577 19.1335 44.2327 19.105 44.3629 19.105C44.5013 19.105 44.6681 19.1335 44.8634 19.1904C45.0669 19.2474 45.2622 19.3573 45.4493 19.52C45.6365 19.6828 45.7952 19.9147 45.9254 20.2158C46.0638 20.5088 46.1329 20.8953 46.1329 21.3755ZM43.1178 13.6973C43.1178 13.4043 43.0893 13.1276 43.0323 12.8672C42.9835 12.5986 42.9062 12.3667 42.8004 12.1714C42.7028 11.9761 42.5766 11.8215 42.422 11.7075C42.2755 11.5854 42.1046 11.5244 41.9093 11.5244C41.5756 11.5244 41.303 11.679 41.0914 11.9883C40.8798 12.2894 40.7089 12.6922 40.5787 13.1968C40.4485 13.7013 40.359 14.2832 40.3102 14.9424C40.2614 15.6016 40.2369 16.2892 40.2369 17.0054V17.8965C40.652 17.6768 41.0345 17.4163 41.3844 17.1152C41.7425 16.8141 42.0476 16.4845 42.2999 16.1265C42.5603 15.7603 42.7597 15.3737 42.8981 14.9668C43.0446 14.5599 43.1178 14.1367 43.1178 13.6973ZM50.5763 24.5005L47.317 24.7446C47.4472 23.2879 47.5408 21.8841 47.5978 20.5332C47.6629 19.1742 47.6954 17.8151 47.6954 16.4561C47.6954 15.4958 47.6792 14.5355 47.6466 13.5752C47.6222 12.6068 47.5734 11.6139 47.5001 10.5967L50.2467 10.4502C50.2304 10.6292 50.2182 10.8042 50.2101 10.9751C50.2019 11.146 50.1979 11.3128 50.1979 11.4756C50.4827 11.0361 50.792 10.6943 51.1256 10.4502C51.4674 10.1979 51.7848 10.0148 52.0778 9.90088C52.4114 9.76253 52.7491 9.67708 53.0909 9.64453C53.685 9.64453 54.1936 9.73812 54.6168 9.92529C55.04 10.1043 55.3859 10.3403 55.6544 10.6333C55.923 10.9181 56.1183 11.2396 56.2404 11.5977C56.3624 11.9476 56.4235 12.2894 56.4235 12.623C56.4235 12.9648 56.3868 13.3107 56.3136 13.6606C56.2404 14.0106 56.1142 14.328 55.9352 14.6128C55.7643 14.8895 55.5323 15.1174 55.2394 15.2964C54.9545 15.4673 54.6005 15.5527 54.1774 15.5527C53.7542 15.5527 53.4205 15.4754 53.1764 15.3208C52.9323 15.1662 52.7451 14.9831 52.6149 14.7715C52.4928 14.5518 52.4114 14.328 52.3707 14.1001C52.3382 13.8641 52.3219 13.6647 52.3219 13.502C52.3219 13.388 52.3422 13.2619 52.3829 13.1235C52.4236 12.9771 52.4847 12.8306 52.566 12.6841C52.6474 12.5376 52.7491 12.3952 52.8712 12.2568C52.9933 12.1104 53.1357 11.9761 53.2985 11.854C53.2496 11.8377 53.1967 11.8255 53.1398 11.8174C53.0909 11.8092 53.0421 11.8052 52.9933 11.8052C52.5864 11.8052 52.2242 11.9354 51.9069 12.1958C51.5895 12.4481 51.3128 12.8021 51.0768 13.2578C50.8489 13.7135 50.6577 14.2507 50.5031 14.8691C50.3566 15.4876 50.2467 16.1631 50.1735 16.8955C50.2142 18.1569 50.2711 19.4061 50.3444 20.6431C50.4176 21.88 50.4949 23.1659 50.5763 24.5005ZM12.3195 56.769C11.7335 56.7528 11.1801 56.7446 10.6593 56.7446C10.1385 56.7446 9.65019 56.7446 9.19446 56.7446C8.26672 56.7446 7.4692 56.7528 6.80188 56.769C6.1427 56.7935 5.59338 56.8138 5.15393 56.8301C4.64937 56.8545 4.22213 56.8789 3.87219 56.9033C3.92916 56.3581 3.97799 55.8047 4.01868 55.2432C4.0675 54.6816 4.10819 54.1283 4.14075 53.583C4.1733 53.0378 4.20178 52.5088 4.2262 51.9961C4.25061 51.4834 4.27096 50.9992 4.28723 50.5435C4.31978 49.4855 4.34013 48.4642 4.34827 47.4795C4.34013 46.5029 4.31978 45.502 4.28723 44.4766C4.27096 44.0371 4.25061 43.5773 4.2262 43.0972C4.20178 42.6089 4.1733 42.1125 4.14075 41.6079C4.10819 41.1034 4.0675 40.5988 4.01868 40.0942C3.97799 39.5815 3.92916 39.0851 3.87219 38.605L7.47327 38.4219C7.31864 40.2611 7.21285 42.0352 7.15588 43.7441C7.09892 45.445 7.07043 47.0156 7.07043 48.4561C7.07043 49.8395 7.08264 51.0236 7.10706 52.0083C7.13961 52.993 7.16809 53.7417 7.1925 54.2544H7.24133C7.8761 54.2544 8.49459 54.2056 9.0968 54.1079C9.70715 54.0103 10.2524 53.9004 10.7325 53.7783C11.2941 53.64 11.823 53.4813 12.3195 53.3022C12.3113 53.3918 12.3073 53.5057 12.3073 53.644C12.2991 53.758 12.295 53.9085 12.295 54.0957C12.295 54.2747 12.295 54.4945 12.295 54.7549C12.295 55.0153 12.295 55.3123 12.295 55.646C12.295 55.9715 12.3032 56.3459 12.3195 56.769ZM16.8605 38.8735C16.8605 39.134 16.8116 39.3822 16.714 39.6182C16.6163 39.846 16.4821 40.0454 16.3112 40.2163C16.1403 40.3872 15.9368 40.5256 15.7008 40.6313C15.4729 40.729 15.2288 40.7778 14.9684 40.7778C14.708 40.7778 14.4598 40.729 14.2238 40.6313C13.9959 40.5256 13.7965 40.3872 13.6256 40.2163C13.4547 40.0454 13.3164 39.846 13.2106 39.6182C13.1129 39.3822 13.0641 39.134 13.0641 38.8735C13.0641 38.6131 13.1129 38.369 13.2106 38.1411C13.3164 37.9051 13.4547 37.7017 13.6256 37.5308C13.7965 37.3599 13.9959 37.2256 14.2238 37.1279C14.4598 37.0221 14.708 36.9692 14.9684 36.9692C15.2288 36.9692 15.4729 37.0221 15.7008 37.1279C15.9368 37.2256 16.1403 37.3599 16.3112 37.5308C16.4821 37.7017 16.6163 37.9051 16.714 38.1411C16.8116 38.369 16.8605 38.6131 16.8605 38.8735ZM16.8605 42.5723C16.7954 43.2152 16.7384 43.911 16.6896 44.6597C16.6489 45.4002 16.6123 46.1611 16.5797 46.9424C16.5553 47.7236 16.535 48.509 16.5187 49.2983C16.5024 50.0877 16.4902 50.8405 16.4821 51.5566C16.4739 52.2728 16.4658 52.9442 16.4576 53.5708C16.4576 54.1893 16.4576 54.7223 16.4576 55.1699V56.5493L13.6866 56.647C13.7029 56.0854 13.7111 55.5402 13.7111 55.0112C13.7111 54.4823 13.7111 53.9533 13.7111 53.4243C13.7111 52.5047 13.7029 51.6095 13.6866 50.7388C13.6704 49.8599 13.6419 48.981 13.6012 48.1021C13.5686 47.2231 13.5239 46.332 13.4669 45.4287C13.41 44.5254 13.3408 43.5895 13.2594 42.6211L16.8605 42.5723ZM21.6456 37.4697C21.5642 38.6904 21.4951 39.8013 21.4381 40.8022C21.3811 41.7951 21.3323 42.7269 21.2916 43.5977C21.2591 44.4684 21.2347 45.3026 21.2184 46.1001C21.2021 46.8976 21.194 47.7074 21.194 48.5293C21.5846 48.098 21.9467 47.6382 22.2804 47.1499C22.6141 46.6535 22.9152 46.1449 23.1837 45.624C23.4604 45.0951 23.7005 44.5579 23.9039 44.0127C24.1155 43.4674 24.2946 42.9303 24.441 42.4014L27.7491 42.6943C27.3748 43.4837 27.0045 44.1836 26.6383 44.7939C26.2721 45.4043 25.9181 45.9414 25.5763 46.4053C25.2426 46.861 24.9293 47.2476 24.6364 47.5649C24.3515 47.8823 24.0952 48.1427 23.8673 48.3462C24.2091 48.4601 24.5061 48.5944 24.7584 48.749C25.0107 48.9036 25.2182 49.0501 25.381 49.1885C25.5763 49.3512 25.7391 49.5221 25.8693 49.7012C26.0239 49.9535 26.146 50.2424 26.2355 50.5679C26.3331 50.8853 26.4145 51.223 26.4796 51.5811C26.5529 51.9391 26.622 52.3135 26.6871 52.7041C26.7604 53.0866 26.8499 53.4731 26.9557 53.8638C27.0615 54.2544 27.1998 54.641 27.3707 55.0234C27.5416 55.3978 27.7654 55.7559 28.0421 56.0977H24.795C24.6323 55.6826 24.498 55.2635 24.3922 54.8403C24.2946 54.4172 24.2132 54.0347 24.1481 53.6929C24.0748 53.2941 24.0219 52.9035 23.9894 52.521C23.9161 52.0246 23.7737 51.5811 23.5621 51.1904C23.4726 51.0195 23.3587 50.8568 23.2203 50.7021C23.0901 50.5394 22.9314 50.397 22.7443 50.2749C22.5652 50.1447 22.3577 50.043 22.1217 49.9697C21.8857 49.8883 21.6171 49.8477 21.316 49.8477H21.194C21.194 50.7673 21.198 51.7479 21.2062 52.7896C21.2225 53.8312 21.2509 55.0031 21.2916 56.3052L18.2643 56.2441C18.3375 55.0967 18.4026 54.0509 18.4596 53.1069C18.5166 52.1629 18.5613 51.2799 18.5939 50.458C18.6346 49.6279 18.663 48.8385 18.6793 48.0898C18.7037 47.3411 18.7159 46.5843 18.7159 45.8193C18.7159 45.2415 18.7119 44.6475 18.7037 44.0371C18.6956 43.4186 18.6793 42.7716 18.6549 42.0962C18.6386 41.4126 18.6142 40.6883 18.5817 39.9233C18.5491 39.1502 18.5125 38.3161 18.4718 37.4209L21.6456 37.4697ZM37.3683 53.3755C37.3683 53.8556 37.2584 54.3073 37.0387 54.7305C36.819 55.1536 36.5219 55.5199 36.1476 55.8291C35.7732 56.1383 35.3338 56.3825 34.8292 56.5615C34.3247 56.7406 33.7876 56.8301 33.2179 56.8301C32.8354 56.8301 32.4489 56.7772 32.0582 56.6714C31.6676 56.5656 31.2933 56.3906 30.9352 56.1465C30.5771 55.9023 30.2394 55.5809 29.922 55.1821C29.6046 54.7834 29.3279 54.2951 29.0919 53.7173C28.8641 53.1395 28.6809 52.464 28.5426 51.6909C28.4124 50.9097 28.3473 50.0145 28.3473 49.0054C28.3473 48.0532 28.4124 47.2109 28.5426 46.4785C28.6809 45.7461 28.8641 45.1073 29.0919 44.562C29.3279 44.0168 29.6005 43.561 29.9098 43.1948C30.219 42.8205 30.5486 42.5194 30.8986 42.2915C31.2566 42.0555 31.6228 41.8887 31.9972 41.791C32.3797 41.6934 32.754 41.6445 33.1202 41.6445C33.6655 41.6445 34.1823 41.734 34.6705 41.9131C35.1588 42.084 35.5861 42.3403 35.9523 42.6821C36.3185 43.0239 36.6074 43.4471 36.819 43.9517C37.0387 44.4481 37.1486 45.0218 37.1486 45.6729C37.1486 46.2588 37.0265 46.8529 36.7823 47.4551C36.5463 48.0492 36.1923 48.6147 35.7203 49.1519C35.2483 49.6808 34.6624 50.165 33.9625 50.6045C33.2708 51.0358 32.4733 51.3776 31.5699 51.6299C31.6188 52.1344 31.6879 52.5942 31.7775 53.0093C31.8751 53.4243 31.9931 53.7783 32.1315 54.0713C32.278 54.3643 32.4448 54.5921 32.632 54.7549C32.8273 54.9176 33.0511 54.999 33.3033 54.999C33.4661 54.9909 33.6207 54.9624 33.7672 54.9136C33.8974 54.8729 34.0276 54.8078 34.1578 54.7183C34.2962 54.6287 34.4101 54.4985 34.4996 54.3276C34.288 54.23 34.1253 54.1038 34.0114 53.9492C33.8974 53.7946 33.812 53.6481 33.755 53.5098C33.6899 53.347 33.6533 53.1761 33.6451 52.9971C33.6451 52.6064 33.7225 52.2891 33.8771 52.0449C34.0317 51.8008 34.2148 51.6095 34.4264 51.4712C34.638 51.3328 34.8536 51.2393 35.0734 51.1904C35.2931 51.1335 35.4681 51.105 35.5983 51.105C35.7366 51.105 35.9034 51.1335 36.0988 51.1904C36.3022 51.2474 36.4975 51.3573 36.6847 51.52C36.8719 51.6828 37.0306 51.9147 37.1608 52.2158C37.2991 52.5088 37.3683 52.8953 37.3683 53.3755ZM34.3531 45.6973C34.3531 45.4043 34.3247 45.1276 34.2677 44.8672C34.2189 44.5986 34.1416 44.3667 34.0358 44.1714C33.9381 43.9761 33.812 43.8215 33.6573 43.7075C33.5109 43.5854 33.34 43.5244 33.1447 43.5244C32.811 43.5244 32.5384 43.679 32.3268 43.9883C32.1152 44.2894 31.9443 44.6922 31.8141 45.1968C31.6839 45.7013 31.5944 46.2832 31.5455 46.9424C31.4967 47.6016 31.4723 48.2892 31.4723 49.0054V49.8965C31.8873 49.6768 32.2698 49.4163 32.6198 49.1152C32.9778 48.8141 33.283 48.4845 33.5353 48.1265C33.7957 47.7603 33.9951 47.3737 34.1334 46.9668C34.2799 46.5599 34.3531 46.1367 34.3531 45.6973ZM48.257 56.6958C47.4513 56.6958 46.7555 56.5208 46.1696 56.1709C45.5918 55.821 45.1116 55.3327 44.7291 54.7061C44.3548 54.0794 44.0781 53.3348 43.899 52.4722C43.72 51.6095 43.6305 50.6696 43.6305 49.6523C43.6305 48.4723 43.7363 47.39 43.9479 46.4053C44.1595 45.4206 44.4687 44.5742 44.8756 43.8662C45.2906 43.1582 45.7993 42.6089 46.4015 42.2183C47.0118 41.8195 47.7117 41.6201 48.5011 41.6201C49.2986 41.6201 49.9863 41.7869 50.5641 42.1206C51.1419 42.4543 51.618 42.9222 51.9923 43.5244C52.3748 44.1266 52.6556 44.8468 52.8346 45.6851C53.0136 46.5233 53.1031 47.4469 53.1031 48.4561C53.1031 48.9769 53.0706 49.5425 53.0055 50.1528C52.9485 50.7632 52.8468 51.3735 52.7003 51.9839C52.562 52.5942 52.3748 53.1842 52.1388 53.7539C51.9028 54.3154 51.6058 54.8159 51.2477 55.2554C50.8896 55.6948 50.4624 56.0448 49.9659 56.3052C49.4777 56.5656 48.908 56.6958 48.257 56.6958ZM50.1613 47.5527C50.1613 46.9342 50.1328 46.3809 50.0758 45.8926C50.0188 45.3962 49.9253 44.9771 49.795 44.6353C49.673 44.2935 49.5143 44.033 49.319 43.854C49.1318 43.6668 48.9039 43.5732 48.6354 43.5732C48.3424 43.5732 48.0698 43.7279 47.8175 44.0371C47.5652 44.3464 47.3414 44.7939 47.1461 45.3799C46.9589 45.9658 46.8084 46.682 46.6945 47.5283C46.5887 48.3665 46.5358 49.3146 46.5358 50.3726C46.5358 51.0562 46.5683 51.6706 46.6334 52.2158C46.6985 52.7529 46.7962 53.2127 46.9264 53.5952C47.0566 53.9696 47.2153 54.2585 47.4025 54.4619C47.5978 54.6572 47.8256 54.7549 48.0861 54.7549C48.3465 54.7549 48.5784 54.6491 48.7819 54.4375C48.9853 54.2178 49.1603 53.9248 49.3068 53.5586C49.4614 53.1924 49.5916 52.7692 49.6974 52.2891C49.8113 51.8008 49.9008 51.2922 49.9659 50.7632C50.031 50.2261 50.0799 49.6808 50.1124 49.1274C50.145 48.5741 50.1613 48.0492 50.1613 47.5527ZM60.4762 56.1221C60.4925 55.7965 60.5087 55.4873 60.525 55.1943C60.5494 54.8932 60.5739 54.6043 60.5983 54.3276C60.3216 54.8159 60.0245 55.1903 59.7072 55.4507C59.3979 55.7111 59.109 55.9064 58.8405 56.0366C58.5231 56.1831 58.2098 56.2726 57.9005 56.3052C57.2983 56.3052 56.7734 56.1546 56.3258 55.8535C55.8782 55.5524 55.5079 55.1252 55.215 54.5718C54.922 54.0184 54.7023 53.3551 54.5558 52.582C54.4174 51.8008 54.3483 50.93 54.3483 49.9697C54.3483 48.627 54.389 47.3249 54.4703 46.0635C54.5599 44.8021 54.7023 43.5651 54.8976 42.3525L57.9982 42.6943C57.8029 43.6628 57.6523 44.5295 57.5465 45.2944C57.4489 46.0513 57.3756 46.6982 57.3268 47.2354C57.2698 47.862 57.2373 48.4072 57.2291 48.8711C57.2291 49.6442 57.2535 50.3197 57.3024 50.8975C57.3512 51.4671 57.4366 51.9432 57.5587 52.3257C57.6889 52.7 57.8639 52.9808 58.0836 53.168C58.3033 53.3551 58.5841 53.4487 58.9259 53.4487C59.1619 53.408 59.3938 53.2453 59.6217 52.9604C59.7194 52.8384 59.8211 52.6838 59.9269 52.4966C60.0327 52.3013 60.1385 52.0653 60.2443 51.7886C60.3501 51.5119 60.4518 51.1864 60.5494 50.812C60.6471 50.4377 60.7407 50.0023 60.8302 49.5059C60.8465 49.0257 60.8546 48.5496 60.8546 48.0776C60.8546 47.5975 60.8546 47.0807 60.8546 46.5273C60.8546 45.9414 60.8546 45.3026 60.8546 44.6108C60.8546 43.9191 60.8465 43.1419 60.8302 42.2793L63.6012 42.3281C63.5605 42.9466 63.528 43.5203 63.5035 44.0493C63.4791 44.5701 63.4588 45.0625 63.4425 45.5264C63.4344 45.9821 63.4262 46.4134 63.4181 46.8203C63.41 47.2272 63.4059 47.6219 63.4059 48.0044C63.4059 48.5903 63.41 49.1641 63.4181 49.7256C63.4344 50.2871 63.4547 50.8853 63.4791 51.52C63.5035 52.1466 63.528 52.8384 63.5524 53.5952C63.5849 54.3439 63.6175 55.2025 63.65 56.1709L60.4762 56.1221ZM69.7413 37.4453C69.6762 38.2835 69.6233 39.1095 69.5826 39.9233C69.542 40.729 69.5013 41.5387 69.4606 42.3525C69.8186 42.3363 70.1726 42.3241 70.5226 42.3159C70.8725 42.2996 71.2306 42.2793 71.5968 42.2549L71.6456 45.3799C71.255 45.3148 70.8684 45.2619 70.486 45.2212C70.1035 45.1805 69.7291 45.1479 69.3629 45.1235C69.3385 45.8153 69.3222 46.4989 69.3141 47.1743C69.3141 47.8498 69.3141 48.5334 69.3141 49.2251C69.3141 50.4621 69.3263 51.6909 69.3507 52.9116C69.3833 54.1323 69.4321 55.3612 69.4972 56.5981L66.3112 56.5493C66.417 54.6369 66.5024 52.7285 66.5675 50.8242C66.6407 48.9118 66.6896 46.9871 66.714 45.0503C66.3722 45.0666 66.0304 45.0869 65.6886 45.1113C65.3468 45.1276 64.9969 45.1479 64.6388 45.1724L64.7365 42.2793C65.0701 42.3037 65.3997 42.3241 65.7252 42.3403C66.0589 42.3485 66.3885 42.3607 66.714 42.377C66.714 41.5632 66.7059 40.7534 66.6896 39.9478C66.6733 39.134 66.657 38.3161 66.6407 37.4941L69.7413 37.4453ZM82.2413 37.4453C82.1762 38.2835 82.1233 39.1095 82.0826 39.9233C82.042 40.729 82.0013 41.5387 81.9606 42.3525C82.3186 42.3363 82.6726 42.3241 83.0226 42.3159C83.3725 42.2996 83.7306 42.2793 84.0968 42.2549L84.1456 45.3799C83.755 45.3148 83.3684 45.2619 82.986 45.2212C82.6035 45.1805 82.2291 45.1479 81.8629 45.1235C81.8385 45.8153 81.8222 46.4989 81.8141 47.1743C81.8141 47.8498 81.8141 48.5334 81.8141 49.2251C81.8141 50.4621 81.8263 51.6909 81.8507 52.9116C81.8833 54.1323 81.9321 55.3612 81.9972 56.5981L78.8112 56.5493C78.917 54.6369 79.0024 52.7285 79.0675 50.8242C79.1407 48.9118 79.1896 46.9871 79.214 45.0503C78.8722 45.0666 78.5304 45.0869 78.1886 45.1113C77.8468 45.1276 77.4969 45.1479 77.1388 45.1724L77.2365 42.2793C77.5701 42.3037 77.8997 42.3241 78.2252 42.3403C78.5589 42.3485 78.8885 42.3607 79.214 42.377C79.214 41.5632 79.2059 40.7534 79.1896 39.9478C79.1733 39.134 79.157 38.3161 79.1407 37.4941L82.2413 37.4453ZM88.3448 37.4209C88.2797 38.4788 88.2187 39.5286 88.1617 40.5703C88.1048 41.612 88.0559 42.6618 88.0153 43.7197C88.3001 43.1826 88.6175 42.7676 88.9674 42.4746C89.3173 42.1735 89.6469 41.9538 89.9562 41.8154C90.3142 41.6527 90.6764 41.555 91.0426 41.5225C91.6285 41.5225 92.129 41.6649 92.5441 41.9497C92.9591 42.2345 93.3009 42.6414 93.5695 43.1704C93.838 43.6994 94.0333 44.3382 94.1554 45.0869C94.2775 45.8275 94.3385 46.6576 94.3385 47.5771C94.3385 49.1152 94.2856 50.6045 94.1798 52.0449C94.0822 53.4772 93.8706 54.877 93.545 56.2441L90.6886 55.9023C90.8758 54.9339 91.0182 54.0306 91.1158 53.1924C91.2216 52.3542 91.299 51.6217 91.3478 50.9951C91.4047 50.2627 91.4373 49.5913 91.4454 48.981C91.4454 48.2078 91.4332 47.5365 91.4088 46.9668C91.3925 46.389 91.3356 45.9129 91.2379 45.5386C91.1484 45.1561 91.006 44.8713 90.8107 44.6841C90.6154 44.4969 90.3427 44.4033 89.9928 44.4033C89.7242 44.444 89.4598 44.6068 89.1993 44.8916C89.0854 45.0137 88.9715 45.1683 88.8575 45.3555C88.7436 45.5426 88.6256 45.7746 88.5035 46.0513C88.3896 46.3198 88.2797 46.6372 88.174 47.0034C88.0682 47.3696 87.9746 47.7928 87.8932 48.2729C87.8688 49.103 87.8525 49.929 87.8444 50.751C87.8444 51.5729 87.8444 52.3908 87.8444 53.2046C87.8444 53.7173 87.8444 54.234 87.8444 54.7549C87.8444 55.2757 87.8525 55.7925 87.8688 56.3052L85.0978 56.2441C85.1873 54.7549 85.2524 53.2656 85.2931 51.7764C85.3419 50.2871 85.3663 48.7856 85.3663 47.272C85.3663 45.6118 85.3378 43.9639 85.2809 42.3281C85.2239 40.6842 85.1425 39.0322 85.0367 37.3721L88.3448 37.4209ZM104.678 53.3755C104.678 53.8556 104.568 54.3073 104.348 54.7305C104.129 55.1536 103.832 55.5199 103.457 55.8291C103.083 56.1383 102.643 56.3825 102.139 56.5615C101.634 56.7406 101.097 56.8301 100.527 56.8301C100.145 56.8301 99.7584 56.7772 99.3678 56.6714C98.9772 56.5656 98.6028 56.3906 98.2448 56.1465C97.8867 55.9023 97.549 55.5809 97.2316 55.1821C96.9142 54.7834 96.6375 54.2951 96.4015 53.7173C96.1736 53.1395 95.9905 52.464 95.8522 51.6909C95.722 50.9097 95.6569 50.0145 95.6569 49.0054C95.6569 48.0532 95.722 47.2109 95.8522 46.4785C95.9905 45.7461 96.1736 45.1073 96.4015 44.562C96.6375 44.0168 96.9101 43.561 97.2194 43.1948C97.5286 42.8205 97.8582 42.5194 98.2081 42.2915C98.5662 42.0555 98.9324 41.8887 99.3068 41.791C99.6892 41.6934 100.064 41.6445 100.43 41.6445C100.975 41.6445 101.492 41.734 101.98 41.9131C102.468 42.084 102.896 42.3403 103.262 42.6821C103.628 43.0239 103.917 43.4471 104.129 43.9517C104.348 44.4481 104.458 45.0218 104.458 45.6729C104.458 46.2588 104.336 46.8529 104.092 47.4551C103.856 48.0492 103.502 48.6147 103.03 49.1519C102.558 49.6808 101.972 50.165 101.272 50.6045C100.58 51.0358 99.7828 51.3776 98.8795 51.6299C98.9283 52.1344 98.9975 52.5942 99.087 53.0093C99.1847 53.4243 99.3027 53.7783 99.441 54.0713C99.5875 54.3643 99.7544 54.5921 99.9415 54.7549C100.137 54.9176 100.361 54.999 100.613 54.999C100.776 54.9909 100.93 54.9624 101.077 54.9136C101.207 54.8729 101.337 54.8078 101.467 54.7183C101.606 54.6287 101.72 54.4985 101.809 54.3276C101.598 54.23 101.435 54.1038 101.321 53.9492C101.207 53.7946 101.122 53.6481 101.065 53.5098C100.999 53.347 100.963 53.1761 100.955 52.9971C100.955 52.6064 101.032 52.2891 101.187 52.0449C101.341 51.8008 101.524 51.6095 101.736 51.4712C101.948 51.3328 102.163 51.2393 102.383 51.1904C102.603 51.1335 102.778 51.105 102.908 51.105C103.046 51.105 103.213 51.1335 103.408 51.1904C103.612 51.2474 103.807 51.3573 103.994 51.52C104.181 51.6828 104.34 51.9147 104.47 52.2158C104.609 52.5088 104.678 52.8953 104.678 53.3755ZM101.663 45.6973C101.663 45.4043 101.634 45.1276 101.577 44.8672C101.528 44.5986 101.451 44.3667 101.345 44.1714C101.248 43.9761 101.122 43.8215 100.967 43.7075C100.82 43.5854 100.65 43.5244 100.454 43.5244C100.121 43.5244 99.8479 43.679 99.6364 43.9883C99.4248 44.2894 99.2539 44.6922 99.1237 45.1968C98.9934 45.7013 98.9039 46.2832 98.8551 46.9424C98.8063 47.6016 98.7819 48.2892 98.7819 49.0054V49.8965C99.1969 49.6768 99.5794 49.4163 99.9293 49.1152C100.287 48.8141 100.593 48.4845 100.845 48.1265C101.105 47.7603 101.305 47.3737 101.443 46.9668C101.589 46.5599 101.663 46.1367 101.663 45.6973ZM115.591 37.4453C115.526 38.2835 115.473 39.1095 115.432 39.9233C115.392 40.729 115.351 41.5387 115.31 42.3525C115.668 42.3363 116.022 42.3241 116.372 42.3159C116.722 42.2996 117.08 42.2793 117.446 42.2549L117.495 45.3799C117.105 45.3148 116.718 45.2619 116.336 45.2212C115.953 45.1805 115.579 45.1479 115.213 45.1235C115.188 45.8153 115.172 46.4989 115.164 47.1743C115.164 47.8498 115.164 48.5334 115.164 49.2251C115.164 50.4621 115.176 51.6909 115.2 52.9116C115.233 54.1323 115.282 55.3612 115.347 56.5981L112.161 56.5493C112.267 54.6369 112.352 52.7285 112.417 50.8242C112.49 48.9118 112.539 46.9871 112.564 45.0503C112.222 45.0666 111.88 45.0869 111.538 45.1113C111.196 45.1276 110.846 45.1479 110.488 45.1724L110.586 42.2793C110.92 42.3037 111.249 42.3241 111.575 42.3403C111.908 42.3485 112.238 42.3607 112.564 42.377C112.564 41.5632 112.555 40.7534 112.539 39.9478C112.523 39.134 112.507 38.3161 112.49 37.4941L115.591 37.4453ZM122.744 56.6958C121.939 56.6958 121.243 56.5208 120.657 56.1709C120.079 55.821 119.599 55.3327 119.216 54.7061C118.842 54.0794 118.565 53.3348 118.386 52.4722C118.207 51.6095 118.118 50.6696 118.118 49.6523C118.118 48.4723 118.224 47.39 118.435 46.4053C118.647 45.4206 118.956 44.5742 119.363 43.8662C119.778 43.1582 120.287 42.6089 120.889 42.2183C121.499 41.8195 122.199 41.6201 122.988 41.6201C123.786 41.6201 124.474 41.7869 125.051 42.1206C125.629 42.4543 126.105 42.9222 126.48 43.5244C126.862 44.1266 127.143 44.8468 127.322 45.6851C127.501 46.5233 127.59 47.4469 127.59 48.4561C127.59 48.9769 127.558 49.5425 127.493 50.1528C127.436 50.7632 127.334 51.3735 127.188 51.9839C127.049 52.5942 126.862 53.1842 126.626 53.7539C126.39 54.3154 126.093 54.8159 125.735 55.2554C125.377 55.6948 124.95 56.0448 124.453 56.3052C123.965 56.5656 123.395 56.6958 122.744 56.6958ZM124.649 47.5527C124.649 46.9342 124.62 46.3809 124.563 45.8926C124.506 45.3962 124.413 44.9771 124.282 44.6353C124.16 44.2935 124.002 44.033 123.806 43.854C123.619 43.6668 123.391 43.5732 123.123 43.5732C122.83 43.5732 122.557 43.7279 122.305 44.0371C122.053 44.3464 121.829 44.7939 121.633 45.3799C121.446 45.9658 121.296 46.682 121.182 47.5283C121.076 48.3665 121.023 49.3146 121.023 50.3726C121.023 51.0562 121.056 51.6706 121.121 52.2158C121.186 52.7529 121.283 53.2127 121.414 53.5952C121.544 53.9696 121.703 54.2585 121.89 54.4619C122.085 54.6572 122.313 54.7549 122.573 54.7549C122.834 54.7549 123.066 54.6491 123.269 54.4375C123.473 54.2178 123.648 53.9248 123.794 53.5586C123.949 53.1924 124.079 52.7692 124.185 52.2891C124.299 51.8008 124.388 51.2922 124.453 50.7632C124.518 50.2261 124.567 49.6808 124.6 49.1274C124.632 48.5741 124.649 48.0492 124.649 47.5527ZM132.388 38.8735C132.388 39.134 132.339 39.3822 132.241 39.6182C132.144 39.846 132.009 40.0454 131.839 40.2163C131.668 40.3872 131.464 40.5256 131.228 40.6313C131 40.729 130.756 40.7778 130.496 40.7778C130.235 40.7778 129.987 40.729 129.751 40.6313C129.523 40.5256 129.324 40.3872 129.153 40.2163C128.982 40.0454 128.844 39.846 128.738 39.6182C128.64 39.3822 128.591 39.134 128.591 38.8735C128.591 38.6131 128.64 38.369 128.738 38.1411C128.844 37.9051 128.982 37.7017 129.153 37.5308C129.324 37.3599 129.523 37.2256 129.751 37.1279C129.987 37.0221 130.235 36.9692 130.496 36.9692C130.756 36.9692 131 37.0221 131.228 37.1279C131.464 37.2256 131.668 37.3599 131.839 37.5308C132.009 37.7017 132.144 37.9051 132.241 38.1411C132.339 38.369 132.388 38.6131 132.388 38.8735ZM132.388 42.5723C132.323 43.2152 132.266 43.911 132.217 44.6597C132.176 45.4002 132.14 46.1611 132.107 46.9424C132.083 47.7236 132.062 48.509 132.046 49.2983C132.03 50.0877 132.018 50.8405 132.009 51.5566C132.001 52.2728 131.993 52.9442 131.985 53.5708C131.985 54.1893 131.985 54.7223 131.985 55.1699V56.5493L129.214 56.647C129.23 56.0854 129.238 55.5402 129.238 55.0112C129.238 54.4823 129.238 53.9533 129.238 53.4243C129.238 52.5047 129.23 51.6095 129.214 50.7388C129.198 49.8599 129.169 48.981 129.129 48.1021C129.096 47.2231 129.051 46.332 128.994 45.4287C128.937 44.5254 128.868 43.5895 128.787 42.6211L132.388 42.5723ZM137.124 37.2256C137.075 38.2184 137.031 39.138 136.99 39.9844C136.949 40.8307 136.913 41.6283 136.88 42.377C136.856 43.1257 136.835 43.8377 136.819 44.5132C136.803 45.1886 136.786 45.856 136.77 46.5151C136.762 47.1743 136.754 47.8376 136.746 48.5049C136.746 49.1722 136.746 49.8721 136.746 50.6045C136.746 51.4183 136.746 52.2891 136.746 53.2168C136.746 54.1445 136.754 55.174 136.77 56.3052L133.999 56.2441C134.048 55.0153 134.081 53.8068 134.097 52.6187C134.113 51.4224 134.121 50.1976 134.121 48.9443C134.121 48.1061 134.117 47.2476 134.109 46.3687C134.101 45.4816 134.089 44.5579 134.072 43.5977C134.056 42.6292 134.036 41.612 134.011 40.5459C133.995 39.4798 133.975 38.3486 133.95 37.1523L137.124 37.2256ZM147.354 53.3755C147.354 53.8556 147.244 54.3073 147.024 54.7305C146.804 55.1536 146.507 55.5199 146.133 55.8291C145.759 56.1383 145.319 56.3825 144.815 56.5615C144.31 56.7406 143.773 56.8301 143.203 56.8301C142.821 56.8301 142.434 56.7772 142.044 56.6714C141.653 56.5656 141.279 56.3906 140.921 56.1465C140.562 55.9023 140.225 55.5809 139.907 55.1821C139.59 54.7834 139.313 54.2951 139.077 53.7173C138.849 53.1395 138.666 52.464 138.528 51.6909C138.398 50.9097 138.333 50.0145 138.333 49.0054C138.333 48.0532 138.398 47.2109 138.528 46.4785C138.666 45.7461 138.849 45.1073 139.077 44.562C139.313 44.0168 139.586 43.561 139.895 43.1948C140.204 42.8205 140.534 42.5194 140.884 42.2915C141.242 42.0555 141.608 41.8887 141.983 41.791C142.365 41.6934 142.739 41.6445 143.106 41.6445C143.651 41.6445 144.168 41.734 144.656 41.9131C145.144 42.084 145.571 42.3403 145.938 42.6821C146.304 43.0239 146.593 43.4471 146.804 43.9517C147.024 44.4481 147.134 45.0218 147.134 45.6729C147.134 46.2588 147.012 46.8529 146.768 47.4551C146.532 48.0492 146.178 48.6147 145.706 49.1519C145.234 49.6808 144.648 50.165 143.948 50.6045C143.256 51.0358 142.459 51.3776 141.555 51.6299C141.604 52.1344 141.673 52.5942 141.763 53.0093C141.86 53.4243 141.978 53.7783 142.117 54.0713C142.263 54.3643 142.43 54.5921 142.617 54.7549C142.813 54.9176 143.036 54.999 143.289 54.999C143.451 54.9909 143.606 54.9624 143.753 54.9136C143.883 54.8729 144.013 54.8078 144.143 54.7183C144.282 54.6287 144.395 54.4985 144.485 54.3276C144.273 54.23 144.111 54.1038 143.997 53.9492C143.883 53.7946 143.797 53.6481 143.74 53.5098C143.675 53.347 143.639 53.1761 143.63 52.9971C143.63 52.6064 143.708 52.2891 143.862 52.0449C144.017 51.8008 144.2 51.6095 144.412 51.4712C144.623 51.3328 144.839 51.2393 145.059 51.1904C145.278 51.1335 145.453 51.105 145.584 51.105C145.722 51.105 145.889 51.1335 146.084 51.1904C146.288 51.2474 146.483 51.3573 146.67 51.52C146.857 51.6828 147.016 51.9147 147.146 52.2158C147.284 52.5088 147.354 52.8953 147.354 53.3755ZM144.339 45.6973C144.339 45.4043 144.31 45.1276 144.253 44.8672C144.204 44.5986 144.127 44.3667 144.021 44.1714C143.923 43.9761 143.797 43.8215 143.643 43.7075C143.496 43.5854 143.325 43.5244 143.13 43.5244C142.796 43.5244 142.524 43.679 142.312 43.9883C142.101 44.2894 141.93 44.6922 141.799 45.1968C141.669 45.7013 141.58 46.2832 141.531 46.9424C141.482 47.6016 141.458 48.2892 141.458 49.0054V49.8965C141.873 49.6768 142.255 49.4163 142.605 49.1152C142.963 48.8141 143.268 48.4845 143.521 48.1265C143.781 47.7603 143.98 47.3737 144.119 46.9668C144.265 46.5599 144.339 46.1367 144.339 45.6973ZM153.018 37.4453C152.953 38.2835 152.9 39.1095 152.859 39.9233C152.818 40.729 152.778 41.5387 152.737 42.3525C153.095 42.3363 153.449 42.3241 153.799 42.3159C154.149 42.2996 154.507 42.2793 154.873 42.2549L154.922 45.3799C154.531 45.3148 154.145 45.2619 153.762 45.2212C153.38 45.1805 153.005 45.1479 152.639 45.1235C152.615 45.8153 152.599 46.4989 152.59 47.1743C152.59 47.8498 152.59 48.5334 152.59 49.2251C152.59 50.4621 152.603 51.6909 152.627 52.9116C152.66 54.1323 152.708 55.3612 152.774 56.5981L149.588 56.5493C149.693 54.6369 149.779 52.7285 149.844 50.8242C149.917 48.9118 149.966 46.9871 149.99 45.0503C149.649 45.0666 149.307 45.0869 148.965 45.1113C148.623 45.1276 148.273 45.1479 147.915 45.1724L148.013 42.2793C148.346 42.3037 148.676 42.3241 149.002 42.3403C149.335 42.3485 149.665 42.3607 149.99 42.377C149.99 41.5632 149.982 40.7534 149.966 39.9478C149.95 39.134 149.933 38.3161 149.917 37.4941L153.018 37.4453ZM165.737 43.0483C165.737 43.6831 165.644 44.2446 165.457 44.7329C165.278 45.2212 165.042 45.6769 164.749 46.1001C164.464 46.5233 164.142 46.9342 163.784 47.333C163.426 47.7236 163.076 48.1468 162.734 48.6025C162.393 49.0501 162.075 49.5425 161.782 50.0796C161.498 50.6167 161.278 51.2393 161.123 51.9473L159.097 51.9961C159.146 51.1416 159.264 50.397 159.451 49.7622C159.638 49.1193 159.854 48.5456 160.098 48.041C160.35 47.5283 160.615 47.0604 160.891 46.6372C161.168 46.214 161.42 45.7909 161.648 45.3677C161.884 44.9445 162.079 44.501 162.234 44.0371C162.389 43.5651 162.466 43.028 162.466 42.4258C162.466 42.0433 162.385 41.7056 162.222 41.4126C162.059 41.1115 161.856 40.8592 161.611 40.6558C161.367 40.4442 161.107 40.2855 160.83 40.1797C160.554 40.0739 160.301 40.021 160.073 40.021C159.992 40.021 159.898 40.0373 159.793 40.0698C159.703 40.0942 159.593 40.139 159.463 40.2041C159.333 40.2611 159.186 40.3424 159.024 40.4482C159.219 40.6436 159.369 40.847 159.475 41.0586C159.589 41.262 159.675 41.4451 159.732 41.6079C159.797 41.8032 159.833 41.9904 159.841 42.1694C159.841 42.5356 159.784 42.853 159.671 43.1216C159.557 43.3901 159.402 43.6139 159.207 43.793C159.011 43.972 158.779 44.1063 158.511 44.1958C158.242 44.2853 157.953 44.3301 157.644 44.3301C157.376 44.3301 157.111 44.2772 156.851 44.1714C156.598 44.0656 156.375 43.915 156.179 43.7197C155.984 43.5244 155.825 43.2884 155.703 43.0117C155.581 42.7269 155.52 42.4136 155.52 42.0718C155.52 41.4207 155.663 40.8511 155.947 40.3628C156.232 39.8664 156.611 39.4513 157.083 39.1177C157.555 38.784 158.096 38.5317 158.706 38.3608C159.325 38.1899 159.964 38.1045 160.623 38.1045C161.257 38.1045 161.88 38.1859 162.49 38.3486C163.101 38.5033 163.646 38.7718 164.126 39.1543C164.606 39.5368 164.993 40.0454 165.286 40.6802C165.587 41.3068 165.737 42.0962 165.737 43.0483ZM161.99 54.8037C161.99 55.0397 161.941 55.2635 161.843 55.4751C161.754 55.6867 161.628 55.8698 161.465 56.0244C161.31 56.1872 161.127 56.3133 160.916 56.4028C160.704 56.5005 160.48 56.5493 160.244 56.5493C160.008 56.5493 159.784 56.5005 159.573 56.4028C159.361 56.3133 159.178 56.1872 159.024 56.0244C158.869 55.8698 158.747 55.6867 158.657 55.4751C158.568 55.2635 158.523 55.0397 158.523 54.8037C158.523 54.5677 158.568 54.3439 158.657 54.1323C158.747 53.9207 158.869 53.7376 159.024 53.583C159.178 53.4202 159.361 53.2941 159.573 53.2046C159.784 53.1151 160.008 53.0703 160.244 53.0703C160.48 53.0703 160.704 53.1151 160.916 53.2046C161.127 53.2941 161.31 53.4202 161.465 53.583C161.628 53.7376 161.754 53.9207 161.843 54.1323C161.941 54.3439 161.99 54.5677 161.99 54.8037Z" fill="black"/>
<path d="M50 66H117.612L105.105 164.281H64.4603L50 66Z" fill="#C4C4C4"/>
<path d="M50 66H117.612L105.105 164.281H64.4603L50 66Z" fill="#C4C4C4"/>
<path d="M56.6439 86.4752H111.359L102.761 159.162H67.196L56.6439 86.4752Z" fill="#5B7FFF" fill-opacity="0.6"/>
<path d="M56.6439 86.4752H111.359L102.761 159.162H67.196L56.6439 86.4752Z" fill="#5B7FFF" fill-opacity="0.6"/>
</svg>
