<svg width="144" height="144" viewBox="0 0 144 144" fill="none" xmlns="http://www.w3.org/2000/svg">
<rect width="144" height="144" fill="#E6E6E6"/>
<path d="M38.3281 16.626C38.3281 17.9525 38.202 19.0999 37.9497 20.0684C37.7056 21.0286 37.3882 21.8506 36.9976 22.5342C36.6069 23.2096 36.1675 23.759 35.6792 24.1821C35.1909 24.6053 34.7026 24.9308 34.2144 25.1587C33.7261 25.3947 33.2663 25.5534 32.835 25.6348C32.4036 25.7243 32.0496 25.769 31.7729 25.769C31.7078 25.769 31.5614 25.765 31.3335 25.7568C31.1138 25.7487 30.8411 25.7284 30.5156 25.6958C30.1901 25.6714 29.8198 25.6307 29.4048 25.5737C28.9979 25.5168 28.5706 25.4354 28.123 25.3296C28.1312 23.7183 28.1393 22.3226 28.1475 21.1426C28.1637 19.9544 28.1759 18.9331 28.1841 18.0786C28.1922 17.2241 28.2004 16.508 28.2085 15.9302C28.2166 15.3524 28.2207 14.856 28.2207 14.4409C28.2288 14.0259 28.2329 13.6719 28.2329 13.3789C28.241 13.0778 28.2451 12.7848 28.2451 12.5C28.2451 12.0524 28.241 11.5926 28.2329 11.1206C28.2248 10.6405 28.2085 10.1766 28.1841 9.729C28.1597 9.28141 28.1271 8.8623 28.0864 8.47168C28.0457 8.08105 27.9928 7.7474 27.9277 7.4707C28.5625 7.43001 29.1403 7.4056 29.6611 7.39746C30.1901 7.38118 30.6458 7.37305 31.0283 7.37305C31.9886 7.37305 32.835 7.49105 33.5674 7.72705C34.2998 7.95492 34.9346 8.27637 35.4717 8.69141C36.0169 9.09831 36.4686 9.59066 36.8267 10.1685C37.1929 10.7381 37.4858 11.3647 37.7056 12.0483C37.9334 12.7319 38.0921 13.4644 38.1816 14.2456C38.2793 15.0187 38.3281 15.8122 38.3281 16.626ZM35.1543 16.2476C35.1543 14.8071 35.0851 13.6353 34.9468 12.7319C34.8166 11.8205 34.6009 11.1125 34.2998 10.6079C34.0068 10.1034 33.6203 9.76156 33.1401 9.58252C32.6681 9.39535 32.0944 9.30176 31.4189 9.30176H31.0527L31.1992 23.645C31.362 23.7101 31.5125 23.7549 31.6509 23.7793C31.7974 23.7956 31.9398 23.8037 32.0781 23.8037C32.6234 23.8037 33.0872 23.6776 33.4697 23.4253C33.8604 23.1649 34.1777 22.7417 34.4219 22.1558C34.6742 21.5617 34.8573 20.7845 34.9712 19.8242C35.0933 18.8558 35.1543 17.6636 35.1543 16.2476ZM44.1143 25.6958C43.3086 25.6958 42.6128 25.5208 42.0269 25.1709C41.4491 24.821 40.9689 24.3327 40.5864 23.7061C40.2121 23.0794 39.9354 22.3348 39.7563 21.4722C39.5773 20.6095 39.4878 19.6696 39.4878 18.6523C39.4878 17.4723 39.5936 16.39 39.8052 15.4053C40.0168 14.4206 40.326 13.5742 40.7329 12.8662C41.1479 12.1582 41.6566 11.6089 42.2588 11.2183C42.8691 10.8195 43.569 10.6201 44.3584 10.6201C45.1559 10.6201 45.8436 10.7869 46.4214 11.1206C46.9992 11.4543 47.4753 11.9222 47.8496 12.5244C48.2321 13.1266 48.5129 13.8468 48.6919 14.6851C48.8709 15.5233 48.9604 16.4469 48.9604 17.4561C48.9604 17.9769 48.9279 18.5425 48.8628 19.1528C48.8058 19.7632 48.7041 20.3735 48.5576 20.9839C48.4193 21.5942 48.2321 22.1842 47.9961 22.7539C47.7601 23.3154 47.4631 23.8159 47.105 24.2554C46.7469 24.6948 46.3197 25.0448 45.8232 25.3052C45.335 25.5656 44.7653 25.6958 44.1143 25.6958ZM46.0186 16.5527C46.0186 15.9342 45.9901 15.3809 45.9331 14.8926C45.8761 14.3962 45.7826 13.9771 45.6523 13.6353C45.5303 13.2935 45.3716 13.033 45.1763 12.854C44.9891 12.6668 44.7612 12.5732 44.4927 12.5732C44.1997 12.5732 43.9271 12.7279 43.6748 13.0371C43.4225 13.3464 43.1987 13.7939 43.0034 14.3799C42.8162 14.9658 42.6657 15.682 42.5518 16.5283C42.446 17.3665 42.3931 18.3146 42.3931 19.3726C42.3931 20.0562 42.4256 20.6706 42.4907 21.2158C42.5558 21.7529 42.6535 22.2127 42.7837 22.5952C42.9139 22.9696 43.0726 23.2585 43.2598 23.4619C43.4551 23.6572 43.6829 23.7549 43.9434 23.7549C44.2038 23.7549 44.4357 23.6491 44.6392 23.4375C44.8426 23.2178 45.0176 22.9248 45.1641 22.5586C45.3187 22.1924 45.4489 21.7692 45.5547 21.2891C45.6686 20.8008 45.7581 20.2922 45.8232 19.7632C45.8883 19.2261 45.9372 18.6808 45.9697 18.1274C46.0023 17.5741 46.0186 17.0492 46.0186 16.5527ZM56.3335 25.1221C56.3498 24.7965 56.366 24.4873 56.3823 24.1943C56.4067 23.8932 56.4312 23.6043 56.4556 23.3276C56.1789 23.8159 55.8818 24.1903 55.5645 24.4507C55.2552 24.7111 54.9663 24.9064 54.6978 25.0366C54.3804 25.1831 54.0671 25.2726 53.7578 25.3052C53.1556 25.3052 52.6307 25.1546 52.1831 24.8535C51.7355 24.5524 51.3652 24.1252 51.0723 23.5718C50.7793 23.0184 50.5596 22.3551 50.4131 21.582C50.2747 20.8008 50.2056 19.93 50.2056 18.9697C50.2056 17.627 50.2463 16.3249 50.3276 15.0635C50.4172 13.8021 50.5596 12.5651 50.7549 11.3525L53.8555 11.6943C53.6602 12.6628 53.5096 13.5295 53.4038 14.2944C53.3062 15.0513 53.2329 15.6982 53.1841 16.2354C53.1271 16.862 53.0946 17.4072 53.0864 17.8711C53.0864 18.6442 53.1108 19.3197 53.1597 19.8975C53.2085 20.4671 53.2939 20.9432 53.416 21.3257C53.5462 21.7 53.7212 21.9808 53.9409 22.168C54.1606 22.3551 54.4414 22.4487 54.7832 22.4487C55.0192 22.408 55.2511 22.2453 55.479 21.9604C55.5767 21.8384 55.6784 21.6838 55.7842 21.4966C55.89 21.3013 55.9958 21.0653 56.1016 20.7886C56.2074 20.5119 56.3091 20.1864 56.4067 19.812C56.5044 19.4377 56.598 19.0023 56.6875 18.5059C56.7038 18.0257 56.7119 17.5496 56.7119 17.0776C56.7119 16.5975 56.7119 16.0807 56.7119 15.5273C56.7119 14.9414 56.7119 14.3026 56.7119 13.6108C56.7119 12.9191 56.7038 12.1419 56.6875 11.2793L59.4585 11.3281C59.4178 11.9466 59.3853 12.5203 59.3608 13.0493C59.3364 13.5701 59.3161 14.0625 59.2998 14.5264C59.2917 14.9821 59.2835 15.4134 59.2754 15.8203C59.2673 16.2272 59.2632 16.6219 59.2632 17.0044C59.2632 17.5903 59.2673 18.1641 59.2754 18.7256C59.2917 19.2871 59.312 19.8853 59.3364 20.52C59.3608 21.1466 59.3853 21.8384 59.4097 22.5952C59.4422 23.3439 59.4748 24.2025 59.5073 25.1709L56.3335 25.1221ZM64.6709 6.62842C64.5732 7.6945 64.4878 8.75244 64.4146 9.80225C64.3413 10.8439 64.2762 11.8937 64.2192 12.9517C64.4959 12.4552 64.793 12.0728 65.1104 11.8042C65.4277 11.5275 65.7248 11.3241 66.0015 11.1938C66.327 11.0474 66.6444 10.9578 66.9536 10.9253C67.5396 10.9253 68.0604 11.0474 68.5161 11.2915C68.9718 11.5356 69.3543 11.9548 69.6636 12.5488C69.981 13.1348 70.221 13.9201 70.3838 14.9048C70.5465 15.8813 70.6279 17.1061 70.6279 18.5791C70.6279 19.9382 70.4977 21.0815 70.2373 22.0093C69.985 22.9289 69.6554 23.6735 69.2485 24.2432C68.8498 24.8047 68.4022 25.2075 67.9058 25.4517C67.4175 25.7039 66.9333 25.8301 66.4531 25.8301C66.4043 25.8301 66.2944 25.8179 66.1235 25.7935C65.9608 25.7772 65.7614 25.7161 65.5254 25.6104C65.2894 25.5127 65.0371 25.3621 64.7686 25.1587C64.5 24.9552 64.2437 24.6704 63.9995 24.3042V25.647L61.2529 25.5981C61.3262 24.41 61.375 23.2259 61.3994 22.0459C61.432 20.8659 61.4482 19.6859 61.4482 18.5059C61.4482 16.5202 61.4157 14.5508 61.3506 12.5977C61.2855 10.6364 61.2082 8.66292 61.1187 6.67725L64.6709 6.62842ZM65.5498 23.5718C65.5905 23.5881 65.6312 23.5962 65.6719 23.5962C65.7207 23.5962 65.7695 23.5962 65.8184 23.5962C66.0381 23.5962 66.266 23.5229 66.502 23.3765C66.7461 23.2218 66.9658 22.9533 67.1611 22.5708C67.3564 22.1883 67.5192 21.6715 67.6494 21.0205C67.7796 20.3613 67.8447 19.5231 67.8447 18.5059C67.8447 17.5944 67.8 16.8376 67.7104 16.2354C67.6291 15.625 67.5151 15.1367 67.3687 14.7705C67.2222 14.4043 67.0513 14.1479 66.856 14.0015C66.6606 13.8468 66.4572 13.7695 66.2456 13.7695C66.0259 13.7695 65.8224 13.8306 65.6353 13.9526C65.4562 14.0666 65.2935 14.2212 65.147 14.4165C65.0005 14.6037 64.8662 14.8193 64.7441 15.0635C64.6302 15.3076 64.5285 15.5518 64.439 15.7959C64.3494 16.0319 64.2721 16.2638 64.207 16.4917C64.1501 16.7114 64.1053 16.8986 64.0728 17.0532C64.0239 18.6564 63.9995 20.2474 63.9995 21.8262C64.1867 22.2168 64.3739 22.526 64.561 22.7539C64.7482 22.9818 64.915 23.1567 65.0615 23.2788C65.2324 23.4253 65.3952 23.5229 65.5498 23.5718ZM75.2666 6.22559C75.2178 7.21842 75.173 8.13802 75.1323 8.98438C75.0916 9.83073 75.055 10.6283 75.0225 11.377C74.998 12.1257 74.9777 12.8377 74.9614 13.5132C74.9451 14.1886 74.9289 14.856 74.9126 15.5151C74.9045 16.1743 74.8963 16.8376 74.8882 17.5049C74.8882 18.1722 74.8882 18.8721 74.8882 19.6045C74.8882 20.4183 74.8882 21.2891 74.8882 22.2168C74.8882 23.1445 74.8963 24.174 74.9126 25.3052L72.1416 25.2441C72.1904 24.0153 72.223 22.8068 72.2393 21.6187C72.2555 20.4224 72.2637 19.1976 72.2637 17.9443C72.2637 17.1061 72.2596 16.2476 72.2515 15.3687C72.2433 14.4816 72.2311 13.5579 72.2148 12.5977C72.1986 11.6292 72.1782 10.612 72.1538 9.5459C72.1375 8.47982 72.1172 7.34863 72.0928 6.15234L75.2666 6.22559ZM85.4961 22.3755C85.4961 22.8556 85.3862 23.3073 85.1665 23.7305C84.9468 24.1536 84.6497 24.5199 84.2754 24.8291C83.901 25.1383 83.4616 25.3825 82.957 25.5615C82.4525 25.7406 81.9154 25.8301 81.3457 25.8301C80.9632 25.8301 80.5767 25.7772 80.186 25.6714C79.7954 25.5656 79.4211 25.3906 79.063 25.1465C78.7049 24.9023 78.3672 24.5809 78.0498 24.1821C77.7324 23.7834 77.4557 23.2951 77.2197 22.7173C76.9919 22.1395 76.8088 21.464 76.6704 20.6909C76.5402 19.9097 76.4751 19.0145 76.4751 18.0054C76.4751 17.0532 76.5402 16.2109 76.6704 15.4785C76.8088 14.7461 76.9919 14.1073 77.2197 13.562C77.4557 13.0168 77.7284 12.561 78.0376 12.1948C78.3468 11.8205 78.6764 11.5194 79.0264 11.2915C79.3844 11.0555 79.7507 10.8887 80.125 10.791C80.5075 10.6934 80.8818 10.6445 81.248 10.6445C81.7933 10.6445 82.3101 10.734 82.7983 10.9131C83.2866 11.084 83.7139 11.3403 84.0801 11.6821C84.4463 12.0239 84.7352 12.4471 84.9468 12.9517C85.1665 13.4481 85.2764 14.0218 85.2764 14.6729C85.2764 15.2588 85.1543 15.8529 84.9102 16.4551C84.6742 17.0492 84.3201 17.6147 83.8481 18.1519C83.3761 18.6808 82.7902 19.165 82.0903 19.6045C81.3986 20.0358 80.6011 20.3776 79.6978 20.6299C79.7466 21.1344 79.8158 21.5942 79.9053 22.0093C80.0029 22.4243 80.1209 22.7783 80.2593 23.0713C80.4058 23.3643 80.5726 23.5921 80.7598 23.7549C80.9551 23.9176 81.1789 23.999 81.4312 23.999C81.5939 23.9909 81.7485 23.9624 81.895 23.9136C82.0252 23.8729 82.1554 23.8078 82.2856 23.7183C82.424 23.6287 82.5379 23.4985 82.6274 23.3276C82.4159 23.23 82.2531 23.1038 82.1392 22.9492C82.0252 22.7946 81.9398 22.6481 81.8828 22.5098C81.8177 22.347 81.7811 22.1761 81.7729 21.9971C81.7729 21.6064 81.8503 21.2891 82.0049 21.0449C82.1595 20.8008 82.3426 20.6095 82.5542 20.4712C82.7658 20.3328 82.9814 20.2393 83.2012 20.1904C83.4209 20.1335 83.5959 20.105 83.7261 20.105C83.8644 20.105 84.0312 20.1335 84.2266 20.1904C84.43 20.2474 84.6253 20.3573 84.8125 20.52C84.9997 20.6828 85.1584 20.9147 85.2886 21.2158C85.4269 21.5088 85.4961 21.8953 85.4961 22.3755ZM82.481 14.6973C82.481 14.4043 82.4525 14.1276 82.3955 13.8672C82.3467 13.5986 82.2694 13.3667 82.1636 13.1714C82.0659 12.9761 81.9398 12.8215 81.7852 12.7075C81.6387 12.5854 81.4678 12.5244 81.2725 12.5244C80.9388 12.5244 80.6662 12.679 80.4546 12.9883C80.243 13.2894 80.0721 13.6922 79.9419 14.1968C79.8117 14.7013 79.7222 15.2832 79.6733 15.9424C79.6245 16.6016 79.6001 17.2892 79.6001 18.0054V18.8965C80.0151 18.6768 80.3976 18.4163 80.7476 18.1152C81.1056 17.8141 81.4108 17.4845 81.6631 17.1265C81.9235 16.7603 82.1229 16.3737 82.2612 15.9668C82.4077 15.5599 82.481 15.1367 82.481 14.6973ZM103.208 16.2476C103.208 17.5496 103.086 18.7703 102.842 19.9097C102.598 21.049 102.236 22.0459 101.756 22.9004C101.276 23.7467 100.678 24.4181 99.9614 24.9146C99.2534 25.4028 98.4355 25.647 97.5078 25.647C96.5638 25.647 95.7337 25.4028 95.0176 24.9146C94.3096 24.4181 93.7155 23.7467 93.2354 22.9004C92.7633 22.0459 92.4053 21.049 92.1611 19.9097C91.9251 18.7703 91.8071 17.5496 91.8071 16.2476C91.8071 14.9536 91.9211 13.737 92.1489 12.5977C92.3849 11.4583 92.7389 10.4655 93.2109 9.61914C93.6829 8.77279 94.277 8.10547 94.9932 7.61719C95.7093 7.12077 96.5475 6.87256 97.5078 6.87256C98.5007 6.87256 99.3551 7.12077 100.071 7.61719C100.796 8.10547 101.39 8.77279 101.854 9.61914C102.317 10.4655 102.659 11.4583 102.879 12.5977C103.099 13.737 103.208 14.9536 103.208 16.2476ZM100.01 16.2476C100.01 15.2384 99.9696 14.2904 99.8882 13.4033C99.8068 12.5081 99.6685 11.731 99.4731 11.0718C99.286 10.4045 99.0296 9.87956 98.7041 9.49707C98.3867 9.11458 97.988 8.92334 97.5078 8.92334C97.0439 8.92334 96.6533 9.11458 96.3359 9.49707C96.0186 9.87956 95.7622 10.4045 95.5669 11.0718C95.3716 11.731 95.2292 12.5081 95.1396 13.4033C95.0501 14.2904 95.0054 15.2384 95.0054 16.2476C95.0054 17.2648 95.0501 18.221 95.1396 19.1162C95.2292 20.0033 95.3716 20.7804 95.5669 21.4478C95.7703 22.1069 96.0308 22.6318 96.3481 23.0225C96.6655 23.4049 97.0521 23.5962 97.5078 23.5962C97.9554 23.5962 98.3379 23.4049 98.6553 23.0225C98.9727 22.6318 99.2331 22.1069 99.4365 21.4478C99.64 20.7804 99.7865 20.0033 99.876 19.1162C99.9655 18.221 100.01 17.2648 100.01 16.2476ZM114.976 21.0449C114.976 21.6471 114.882 22.2331 114.695 22.8027C114.516 23.3724 114.236 23.881 113.853 24.3286C113.479 24.7762 113.003 25.1343 112.425 25.4028C111.855 25.6714 111.176 25.8057 110.386 25.8057C109.589 25.8057 108.828 25.6022 108.104 25.1953C107.379 24.7965 106.74 24.1943 106.187 23.3887C105.642 22.583 105.202 21.578 104.869 20.3735C104.543 19.161 104.38 17.745 104.38 16.1255C104.38 14.506 104.551 13.1226 104.893 11.9751C105.243 10.8276 105.703 9.89176 106.272 9.16748C106.842 8.43506 107.489 7.90202 108.213 7.56836C108.946 7.22656 109.694 7.05566 110.459 7.05566C111.224 7.05566 111.871 7.1696 112.4 7.39746C112.938 7.61719 113.373 7.89795 113.707 8.23975C114.04 8.58154 114.28 8.95996 114.427 9.375C114.581 9.7819 114.659 10.1725 114.659 10.5469C114.659 10.9212 114.602 11.2508 114.488 11.5356C114.382 11.8123 114.24 12.0443 114.061 12.2314C113.882 12.4105 113.678 12.5488 113.45 12.6465C113.23 12.736 113.007 12.7808 112.779 12.7808C112.559 12.7808 112.339 12.7523 112.12 12.6953C111.908 12.6383 111.721 12.5407 111.558 12.4023C111.395 12.2559 111.261 12.0687 111.155 11.8408C111.058 11.6048 111.009 11.3159 111.009 10.9741C111.017 10.8032 111.037 10.6364 111.07 10.4736C111.102 10.3353 111.151 10.1847 111.216 10.022C111.29 9.85107 111.395 9.69238 111.534 9.5459C111.412 9.40755 111.277 9.30176 111.131 9.22852C110.984 9.15527 110.842 9.09831 110.704 9.05762C110.549 9.01693 110.39 8.98844 110.228 8.97217C110.016 8.97217 109.751 9.11458 109.434 9.39941C109.125 9.68424 108.824 10.1278 108.531 10.73C108.238 11.3241 107.986 12.085 107.774 13.0127C107.562 13.9323 107.457 15.0269 107.457 16.2964C107.457 17.5741 107.562 18.6971 107.774 19.6655C107.986 20.6258 108.25 21.4315 108.567 22.0825C108.885 22.7336 109.222 23.2259 109.581 23.5596C109.947 23.8851 110.28 24.0479 110.582 24.0479C111.184 24.0479 111.631 23.7752 111.924 23.23C112.225 22.6847 112.376 21.8424 112.376 20.7031C112.376 20.4427 112.364 20.1701 112.339 19.8853C112.323 19.6493 112.295 19.3807 112.254 19.0796C112.213 18.7785 112.156 18.4774 112.083 18.1763C111.798 18.217 111.444 18.2699 111.021 18.335C110.598 18.4001 110.11 18.4896 109.556 18.6035C109.646 18.2373 109.703 17.863 109.727 17.4805C109.76 17.0898 109.776 16.7277 109.776 16.394C109.776 16.2313 109.772 16.0807 109.764 15.9424C109.764 15.804 109.76 15.686 109.751 15.5884C109.743 15.4744 109.735 15.3687 109.727 15.271C109.971 15.3198 110.256 15.3605 110.582 15.3931C110.858 15.4256 111.196 15.4541 111.595 15.4785C112.002 15.4948 112.465 15.5029 112.986 15.5029C113.263 15.5029 113.552 15.5029 113.853 15.5029C114.162 15.4948 114.488 15.4785 114.83 15.4541C114.781 15.7959 114.756 16.1458 114.756 16.5039C114.756 16.8132 114.769 17.1387 114.793 17.4805C114.817 17.8223 114.842 18.1803 114.866 18.5547C114.891 18.929 114.915 19.3237 114.939 19.7388C114.964 20.1457 114.976 20.5811 114.976 21.0449Z" fill="black"/>
<mask id="mask0_104_118" style="mask-type:alpha" maskUnits="userSpaceOnUse" x="31" y="78" width="83" height="9">
<rect x="113.42" y="87" width="82.42" height="8.9661" transform="rotate(-180 113.42 87)" fill="#C4C4C4"/>
</mask>
<g mask="url(#mask0_104_118)">
<ellipse cx="72.7035" cy="76.8644" rx="39.7294" ry="12.8644" transform="rotate(-180 72.7035 76.8644)" fill="#FFAF37"/>
</g>
<mask id="mask1_104_118" style="mask-type:alpha" maskUnits="userSpaceOnUse" x="31" y="41" width="83" height="21">
<rect x="31" y="41" width="82.42" height="20.661" fill="#C4C4C4"/>
</mask>
<g mask="url(#mask1_104_118)">
<ellipse cx="71.7165" cy="59.9068" rx="39.7294" ry="15.7881" fill="#FFAF37"/>
</g>
<path d="M113.42 67.7034C113.42 70.3946 94.9696 72.5763 72.21 72.5763C49.4503 72.5763 31 70.3946 31 67.7034C31 65.0122 49.4503 62.8305 72.21 62.8305C94.9696 62.8305 113.42 65.0122 113.42 67.7034Z" fill="#955C28"/>
<path d="M113.42 72.7712C113.42 75.4624 94.9696 77.6441 72.21 77.6441C49.4503 77.6441 31 75.4624 31 72.7712C31 70.08 49.4503 67.8983 72.21 67.8983C94.9696 67.8983 113.42 70.08 113.42 72.7712Z" fill="#955C28"/>
<path d="M33.4677 61.661H110.459V64H33.4677V61.661Z" fill="#71F85B"/>
<path d="M34.4547 75.6949H111.446V78.0339H34.4547V75.6949Z" fill="#9B231B"/>
<mask id="mask2_104_118" style="mask-type:alpha" maskUnits="userSpaceOnUse" x="31" y="115" width="83" height="9">
<rect x="113.42" y="124" width="82.42" height="8.9661" transform="rotate(-180 113.42 124)" fill="#C4C4C4"/>
</mask>
<g mask="url(#mask2_104_118)">
<ellipse cx="72.7035" cy="113.864" rx="39.7294" ry="12.8644" transform="rotate(-180 72.7035 113.864)" fill="#FFAF37"/>
</g>
<mask id="mask3_104_118" style="mask-type:alpha" maskUnits="userSpaceOnUse" x="31" y="78" width="83" height="21">
<rect x="31" y="78" width="82.42" height="20.661" fill="#C4C4C4"/>
</mask>
<g mask="url(#mask3_104_118)">
<ellipse cx="71.7165" cy="96.9068" rx="39.7294" ry="15.7881" fill="#FFAF37"/>
</g>
<path d="M113.42 104.703C113.42 107.395 94.9696 109.576 72.21 109.576C49.4503 109.576 31 107.395 31 104.703C31 102.012 49.4503 99.8305 72.21 99.8305C94.9696 99.8305 113.42 102.012 113.42 104.703Z" fill="#955C28"/>
<path d="M113.42 109.771C113.42 112.462 94.9696 114.644 72.21 114.644C49.4503 114.644 31 112.462 31 109.771C31 107.08 49.4503 104.898 72.21 104.898C94.9696 104.898 113.42 107.08 113.42 109.771Z" fill="#955C28"/>
<path d="M33.4677 98.661H110.459V101H33.4677V98.661Z" fill="#71F85B"/>
<path d="M34.4547 112.695H111.446V115.034H34.4547V112.695Z" fill="#9B231B"/>
</svg>
