<svg width="176" height="151" viewBox="0 0 176 151" fill="none" xmlns="http://www.w3.org/2000/svg">
<path d="M157.212 55.3875C157.212 62.4989 123.865 68.2638 82.73 68.2638C41.5947 68.2638 8.24799 62.4989 8.24799 55.3875C8.24799 48.2761 41.5947 42.5112 82.73 42.5112C123.865 42.5112 157.212 48.2761 157.212 55.3875Z" fill="#955C28"/>
<mask id="mask0" mask-type="alpha" maskUnits="userSpaceOnUse" x="5" y="64" width="150" height="20">
<rect x="154.536" y="83.1438" width="148.964" height="18.6096" transform="rotate(-180 154.536 83.1438)" fill="#C4C4C4"/>
</mask>
<g mask="url(#mask0)">
<ellipse cx="80.946" cy="62.1069" rx="71.806" ry="26.7007" transform="rotate(-180 80.946 62.1069)" fill="#FFAF37"/>
</g>
<mask id="mask1" mask-type="alpha" maskUnits="userSpaceOnUse" x="8" y="0" width="150" height="44">
<rect x="8.24799" y="0.543991" width="148.964" height="42.8829" fill="#C4C4C4"/>
</mask>
<g mask="url(#mask1)">
<ellipse cx="81.838" cy="39.7859" rx="71.806" ry="32.769" fill="#FFAF37"/>
</g>
<path d="M12.708 43.581H151.86V48.4357H12.708V43.581Z" fill="#71F85B"/>
<path d="M11.816 59.6796H150.968V64.5343H11.816V59.6796Z" fill="#9B231B"/>
<mask id="mask2" mask-type="alpha" maskUnits="userSpaceOnUse" x="8" y="129" width="150" height="22">
<rect x="157.212" y="150.4" width="148.964" height="21.2296" transform="rotate(-180 157.212 150.4)" fill="#C4C4C4"/>
</mask>
<g mask="url(#mask2)">
<ellipse cx="83.622" cy="126.401" rx="71.806" ry="30.4599" transform="rotate(-180 83.622 126.401)" fill="#FFAF37"/>
</g>
<mask id="mask3" mask-type="alpha" maskUnits="userSpaceOnUse" x="0" y="83" width="176" height="22">
<rect x="0.220032" y="83.5" width="174.832" height="21.2296" fill="#C4C4C4"/>
</mask>
<g mask="url(#mask3)">
<ellipse cx="82.73" cy="102.884" rx="75.374" ry="23.9987" fill="#FFAF37"/>
</g>
<path d="M158.104 116.618C158.104 122.991 124.757 128.156 83.622 128.156C42.4867 128.156 9.14001 122.991 9.14001 116.618C9.14001 110.246 42.4867 105.081 83.622 105.081C124.757 105.081 158.104 110.246 158.104 116.618Z" fill="#955C28"/>
<path d="M13.6 104.73H152.752V110.268H13.6V104.73Z" fill="#71F85B"/>
<path d="M14.492 123.632H153.644V129.17H14.492V123.632Z" fill="#9B231B"/>
</svg>