<svg width="427" height="306" viewBox="0 0 427 306" fill="none" xmlns="http://www.w3.org/2000/svg">
<path d="M32.3682 142.17C32.3682 142.121 32.3682 142.023 32.3682 141.877C32.3844 141.73 32.3926 141.625 32.3926 141.56C32.4414 141.462 32.5228 141.299 32.6367 141.071C32.7669 140.827 32.9134 140.559 33.0762 140.266C33.2389 139.956 33.4017 139.639 33.5645 139.313C33.7435 138.988 33.9144 138.679 34.0771 138.386C34.2399 138.093 34.3783 137.832 34.4922 137.604C34.6224 137.36 34.7119 137.181 34.7607 137.067C34.777 137.019 34.8096 136.937 34.8584 136.823C34.9072 136.709 34.9561 136.595 35.0049 136.481C35.0537 136.351 35.0944 136.229 35.127 136.115C35.1758 136.001 35.2083 135.92 35.2246 135.871C35.013 135.594 34.7363 135.334 34.3945 135.09C34.069 134.829 33.7109 134.569 33.3203 134.309C32.9297 134.032 32.5391 133.747 32.1484 133.454C31.7578 133.161 31.3997 132.86 31.0742 132.551C30.765 132.225 30.5046 131.892 30.293 131.55C30.0977 131.192 30 130.809 30 130.402C30 130.093 30.0326 129.89 30.0977 129.792C30.179 129.678 30.3418 129.621 30.5859 129.621C30.6022 129.621 30.6592 129.629 30.7568 129.646C30.8545 129.646 30.9196 129.654 30.9521 129.67C31.0986 129.914 31.2777 130.199 31.4893 130.524C31.7171 130.85 31.9613 131.192 32.2217 131.55C32.4821 131.908 32.7588 132.258 33.0518 132.6C33.361 132.941 33.6702 133.251 33.9795 133.527C34.2887 133.804 34.6061 134.032 34.9316 134.211C35.2734 134.374 35.6071 134.455 35.9326 134.455C35.9652 134.455 36.0059 134.455 36.0547 134.455C36.1198 134.455 36.1605 134.455 36.1768 134.455C36.2419 134.341 36.3395 134.146 36.4697 133.869C36.6162 133.592 36.7627 133.308 36.9092 133.015C37.0557 132.705 37.194 132.421 37.3242 132.16C37.4707 131.883 37.5684 131.696 37.6172 131.599C37.6497 131.501 37.6986 131.346 37.7637 131.135C37.8288 130.907 37.8939 130.671 37.959 130.427C38.0404 130.183 38.1299 129.93 38.2275 129.67C38.3252 129.41 38.431 129.174 38.5449 128.962C38.6589 128.75 38.7809 128.579 38.9111 128.449C39.0576 128.303 39.2204 128.229 39.3994 128.229L39.4238 128.254H39.4727C39.4727 128.27 39.4808 128.278 39.4971 128.278C39.5296 128.278 39.5703 128.303 39.6191 128.352C39.668 128.384 39.7168 128.425 39.7656 128.474C39.8307 128.522 39.8796 128.571 39.9121 128.62C39.9609 128.669 39.9854 128.701 39.9854 128.718C39.6761 129.906 39.3018 131.078 38.8623 132.233C38.4229 133.389 37.9264 134.52 37.373 135.627V136.115C37.2591 136.245 37.0719 136.514 36.8115 136.921C36.5511 137.312 36.2663 137.767 35.957 138.288C35.6478 138.793 35.3223 139.322 34.9805 139.875C34.6549 140.428 34.3457 140.941 34.0527 141.413C33.7598 141.869 33.5075 142.251 33.2959 142.561C33.0843 142.87 32.946 143.024 32.8809 143.024C32.6042 143.024 32.4495 142.943 32.417 142.78C32.3844 142.618 32.3682 142.414 32.3682 142.17ZM48.6768 140.852C48.2536 140.852 47.8304 140.957 47.4072 141.169C47.0003 141.364 46.5771 141.592 46.1377 141.853C45.6982 142.113 45.2425 142.349 44.7705 142.561C44.2985 142.756 43.8184 142.854 43.3301 142.854C43.265 142.854 43.1673 142.854 43.0371 142.854C42.9069 142.837 42.7604 142.829 42.5977 142.829C42.4512 142.813 42.3128 142.805 42.1826 142.805C42.0524 142.805 41.9629 142.797 41.9141 142.78C41.6048 142.601 41.3525 142.39 41.1572 142.146C40.9782 141.901 40.8317 141.641 40.7178 141.364C40.6201 141.071 40.5469 140.77 40.498 140.461C40.4492 140.152 40.4248 139.842 40.4248 139.533V138.85C40.4248 138.557 40.4329 138.239 40.4492 137.897C40.4818 137.556 40.5143 137.206 40.5469 136.848C40.5957 136.49 40.6608 136.164 40.7422 135.871C40.8236 135.562 40.9375 135.301 41.084 135.09C41.2305 134.878 41.4258 134.74 41.6699 134.675C41.7676 134.642 41.8652 134.667 41.9629 134.748C42.0605 134.829 42.1338 134.927 42.1826 135.041C42.2477 135.139 42.2965 135.253 42.3291 135.383C42.3617 135.497 42.3779 135.578 42.3779 135.627C42.3779 135.676 42.3535 135.782 42.3047 135.944C42.2559 136.107 42.1989 136.286 42.1338 136.481C42.085 136.66 42.0361 136.831 41.9873 136.994C41.9385 137.157 41.9141 137.255 41.9141 137.287C41.9141 137.303 41.9059 137.377 41.8896 137.507C41.8896 137.621 41.8815 137.751 41.8652 137.897C41.8652 138.044 41.8652 138.207 41.8652 138.386C41.8652 138.549 41.8652 138.679 41.8652 138.776C41.8652 138.988 41.8571 139.232 41.8408 139.509C41.8245 139.769 41.8327 140.03 41.8652 140.29C41.9141 140.55 41.9873 140.795 42.085 141.022C42.1826 141.25 42.3617 141.429 42.6221 141.56C42.6383 141.56 42.6872 141.568 42.7686 141.584C42.8662 141.584 42.9639 141.584 43.0615 141.584C43.1755 141.584 43.2731 141.592 43.3545 141.608C43.4521 141.608 43.5173 141.608 43.5498 141.608C44.4287 141.608 45.2588 141.413 46.04 141.022C46.8213 140.632 47.5049 140.103 48.0908 139.436C48.0745 139.338 48.0583 139.151 48.042 138.874C48.042 138.597 48.042 138.312 48.042 138.02C48.042 137.71 48.042 137.425 48.042 137.165C48.0583 136.888 48.0745 136.693 48.0908 136.579C48.0908 136.481 48.1071 136.384 48.1396 136.286C48.1722 136.172 48.2129 136.066 48.2617 135.969C48.3105 135.871 48.3757 135.79 48.457 135.725C48.5547 135.66 48.6605 135.627 48.7744 135.627C49.0186 135.627 49.1895 135.716 49.2871 135.896C49.3848 136.075 49.4499 136.311 49.4824 136.604C49.5312 136.896 49.5638 137.238 49.5801 137.629C49.6126 138.003 49.6696 138.386 49.751 138.776C49.8324 139.167 49.9707 139.558 50.166 139.948C50.3613 140.323 50.6462 140.664 51.0205 140.974C51.3949 141.267 51.8831 141.519 52.4854 141.73C53.0876 141.926 53.8444 142.032 54.7559 142.048C54.7559 142.08 54.7559 142.121 54.7559 142.17C54.7559 142.219 54.7559 142.259 54.7559 142.292C54.7559 142.536 54.6501 142.715 54.4385 142.829C54.2269 142.927 53.9665 142.992 53.6572 143.024C53.3643 143.057 53.0713 143.065 52.7783 143.049C52.4854 143.033 52.2656 143.024 52.1191 143.024C51.6309 143.024 51.1914 142.91 50.8008 142.683C50.4102 142.455 50.0602 142.211 49.751 141.95C49.4417 141.674 49.1895 141.421 48.9941 141.193C48.8151 140.965 48.7093 140.852 48.6768 140.852ZM70.4297 141.804C70.1693 141.804 69.8926 141.844 69.5996 141.926C69.3229 141.991 69.0462 142.072 68.7695 142.17C68.4928 142.268 68.1999 142.357 67.8906 142.438C67.5977 142.504 67.2965 142.536 66.9873 142.536C66.5153 142.536 66.0596 142.463 65.6201 142.316C65.1807 142.17 64.79 141.95 64.4482 141.657C64.1227 141.364 63.8623 141.014 63.667 140.607C63.4717 140.184 63.374 139.712 63.374 139.191C63.374 138.736 63.5124 138.312 63.7891 137.922C64.082 137.531 64.4401 137.206 64.8633 136.945C65.2865 136.685 65.7422 136.481 66.2305 136.335C66.7188 136.188 67.1582 136.115 67.5488 136.115C67.7279 136.115 67.9476 136.132 68.208 136.164C68.4847 136.18 68.7777 136.221 69.0869 136.286C69.4124 136.335 69.738 136.408 70.0635 136.506C70.389 136.587 70.682 136.701 70.9424 136.848C71.2191 136.994 71.4469 137.165 71.626 137.36C71.8213 137.539 71.9352 137.751 71.9678 137.995C71.9678 138.076 71.9515 138.223 71.9189 138.435C71.8864 138.63 71.862 138.841 71.8457 139.069C71.8294 139.297 71.805 139.517 71.7725 139.729C71.7562 139.924 71.7399 140.07 71.7236 140.168V140.314C71.7236 140.673 71.805 140.941 71.9678 141.12C72.1305 141.299 72.3258 141.429 72.5537 141.511C72.7979 141.576 73.0501 141.608 73.3105 141.608H74.0918C74.3359 141.608 74.4906 141.608 74.5557 141.608C74.6208 141.592 74.6615 141.584 74.6777 141.584C74.7103 141.584 74.751 141.584 74.7998 141.584C74.8649 141.568 75.0277 141.56 75.2881 141.56C75.4997 141.56 75.6624 141.6 75.7764 141.682C75.8903 141.763 75.9473 141.934 75.9473 142.194C75.9473 142.471 75.8577 142.666 75.6787 142.78C75.4997 142.894 75.2881 142.967 75.0439 143C74.7998 143.049 74.5557 143.065 74.3115 143.049C74.0674 143.033 73.8802 143.024 73.75 143.024C73.3757 143.024 73.0176 142.959 72.6758 142.829C72.3503 142.699 72.0492 142.561 71.7725 142.414C71.4958 142.251 71.2435 142.113 71.0156 141.999C70.7878 141.869 70.5924 141.804 70.4297 141.804ZM64.8145 139.436C64.8145 139.826 64.8958 140.144 65.0586 140.388C65.2376 140.616 65.4492 140.786 65.6934 140.9C65.9538 140.998 66.2386 141.063 66.5479 141.096C66.8571 141.112 67.1582 141.12 67.4512 141.12C67.5651 141.12 67.7523 141.112 68.0127 141.096C68.2894 141.079 68.5742 141.047 68.8672 140.998C69.1602 140.933 69.4206 140.852 69.6484 140.754C69.8926 140.656 70.0309 140.534 70.0635 140.388L70.5518 138.483C70.5843 138.353 70.5518 138.239 70.4541 138.142C70.3564 138.044 70.2181 137.963 70.0391 137.897C69.8763 137.832 69.6891 137.775 69.4775 137.727C69.2822 137.678 69.0869 137.637 68.8916 137.604C68.6963 137.572 68.5173 137.548 68.3545 137.531C68.208 137.515 68.1185 137.507 68.0859 137.507C67.793 137.507 67.4512 137.539 67.0605 137.604C66.6862 137.653 66.3281 137.751 65.9863 137.897C65.6608 138.028 65.3841 138.215 65.1562 138.459C64.9284 138.703 64.8145 139.029 64.8145 139.436ZM76.3135 138.239C76.2972 138.239 76.2565 138.215 76.1914 138.166C76.1263 138.101 76.0938 138.044 76.0938 137.995C76.0775 137.995 76.0693 137.979 76.0693 137.946V137.824C76.0693 137.808 76.0775 137.792 76.0938 137.775C76.2728 137.596 76.4193 137.466 76.5332 137.385C76.6634 137.303 76.8343 137.263 77.0459 137.263C77.111 137.263 77.168 137.279 77.2168 137.312C77.2819 137.344 77.3307 137.377 77.3633 137.409C77.3958 137.442 77.4284 137.474 77.4609 137.507C77.5098 137.539 77.5586 137.556 77.6074 137.556C77.6562 137.556 77.7539 137.482 77.9004 137.336C78.0469 137.173 78.2422 136.978 78.4863 136.75C78.7305 136.522 79.0316 136.278 79.3896 136.018C79.7477 135.741 80.1465 135.489 80.5859 135.261C81.0417 135.033 81.5299 134.846 82.0508 134.699C82.5879 134.536 83.1738 134.455 83.8086 134.455H83.9551C84.0202 134.471 84.1504 134.504 84.3457 134.553C84.5573 134.585 84.777 134.634 85.0049 134.699C85.2327 134.748 85.4443 134.797 85.6396 134.846C85.8512 134.878 85.9977 134.903 86.0791 134.919C86.0954 134.935 86.1279 134.968 86.1768 135.017C86.2256 135.049 86.2744 135.09 86.3232 135.139C86.3721 135.171 86.4128 135.212 86.4453 135.261C86.4941 135.31 86.5267 135.35 86.543 135.383C86.543 135.399 86.5511 135.424 86.5674 135.456C86.5674 135.456 86.5674 135.464 86.5674 135.48C86.5837 135.497 86.5918 135.505 86.5918 135.505L86.5674 135.554C86.5674 135.554 86.5674 135.562 86.5674 135.578C86.5511 135.594 86.543 135.611 86.543 135.627C86.5267 135.676 86.486 135.733 86.4209 135.798C86.3558 135.847 86.3232 135.871 86.3232 135.871H82.0264C81.6683 135.871 81.2777 135.977 80.8545 136.188C80.4476 136.384 80.057 136.644 79.6826 136.97C79.3245 137.279 79.0234 137.637 78.7793 138.044C78.5514 138.435 78.4375 138.817 78.4375 139.191V142.658C78.2585 142.658 78.1283 142.683 78.0469 142.731C77.9655 142.764 77.8923 142.805 77.8271 142.854C77.7783 142.902 77.7214 142.943 77.6562 142.976C77.5911 143.008 77.5016 143.024 77.3877 143.024H77.3389C77.3226 143.024 77.3063 143.016 77.29 143C77.2249 142.984 77.168 142.951 77.1191 142.902C77.0703 142.837 77.0459 142.797 77.0459 142.78L76.3135 138.239ZM87.2266 138.703C87.2266 138.15 87.3812 137.613 87.6904 137.092C87.9997 136.571 88.3903 136.115 88.8623 135.725C89.3506 135.334 89.8796 135.025 90.4492 134.797C91.0352 134.569 91.5885 134.455 92.1094 134.455C92.5326 134.455 92.9476 134.512 93.3545 134.626C93.7777 134.724 94.152 134.886 94.4775 135.114C94.8031 135.342 95.0635 135.627 95.2588 135.969C95.4704 136.294 95.5762 136.685 95.5762 137.141C95.5762 137.352 95.5599 137.523 95.5273 137.653C95.5111 137.767 95.4622 137.873 95.3809 137.971C95.2995 138.052 95.1937 138.133 95.0635 138.215C94.9495 138.28 94.8031 138.369 94.624 138.483C94.5264 138.5 94.3799 138.54 94.1846 138.605C93.9893 138.654 93.7614 138.711 93.501 138.776C93.2568 138.841 92.9964 138.907 92.7197 138.972C92.443 139.037 92.1745 139.102 91.9141 139.167C91.6699 139.232 91.4502 139.289 91.2549 139.338C91.0596 139.387 90.9131 139.419 90.8154 139.436C90.7666 139.452 90.6608 139.468 90.498 139.484C90.3353 139.501 90.1562 139.525 89.9609 139.558C89.7819 139.574 89.611 139.598 89.4482 139.631C89.2855 139.647 89.1878 139.663 89.1553 139.68C89.1064 139.696 89.0495 139.737 88.9844 139.802C88.9355 139.851 88.9111 139.883 88.9111 139.899C88.9111 140.225 89.0007 140.502 89.1797 140.729C89.3587 140.941 89.5866 141.12 89.8633 141.267C90.14 141.413 90.4492 141.527 90.791 141.608C91.1491 141.674 91.499 141.73 91.8408 141.779C92.1826 141.812 92.5 141.828 92.793 141.828C93.0859 141.828 93.3219 141.828 93.501 141.828C94.3148 141.828 95.1123 141.787 95.8936 141.706C96.6748 141.608 97.4723 141.56 98.2861 141.56V141.755C98.2861 141.853 98.2699 141.958 98.2373 142.072C98.221 142.17 98.1885 142.268 98.1396 142.365C98.0908 142.447 98.0257 142.495 97.9443 142.512C97.3258 142.642 96.7725 142.748 96.2842 142.829C95.8122 142.894 95.3646 142.943 94.9414 142.976C94.5182 142.992 94.0788 143 93.623 143C93.1673 143.016 92.6628 143.024 92.1094 143.024H91.6943C91.5153 143.024 91.32 143.016 91.1084 143C90.8968 143 90.6934 143 90.498 143H90.083C89.5785 142.87 89.139 142.666 88.7646 142.39C88.4066 142.097 88.1136 141.755 87.8857 141.364C87.6579 140.974 87.487 140.55 87.373 140.095C87.2754 139.639 87.2266 139.175 87.2266 138.703ZM92.6953 135.822C92.4837 135.822 92.2396 135.847 91.9629 135.896C91.7025 135.928 91.4258 135.993 91.1328 136.091C90.8561 136.172 90.5794 136.286 90.3027 136.433C90.026 136.563 89.7819 136.726 89.5703 136.921C89.3587 137.1 89.1797 137.303 89.0332 137.531C88.903 137.759 88.8379 138.011 88.8379 138.288H89.8389C90.1969 138.288 90.5632 138.272 90.9375 138.239C91.3118 138.207 91.6781 138.158 92.0361 138.093C92.3942 138.011 92.7035 137.897 92.9639 137.751C93.2406 137.588 93.4603 137.385 93.623 137.141C93.8021 136.896 93.8916 136.595 93.8916 136.237V136.115L93.6475 135.871C93.6149 135.871 93.5498 135.871 93.4521 135.871C93.3708 135.855 93.2812 135.847 93.1836 135.847C93.0859 135.83 92.9883 135.822 92.8906 135.822C92.8092 135.822 92.7441 135.822 92.6953 135.822ZM37.666 174.751C37.1777 174.751 36.7546 174.84 36.3965 175.02C36.0547 175.199 35.7454 175.418 35.4688 175.679C35.1921 175.939 34.9561 176.232 34.7607 176.558C34.5654 176.867 34.3701 177.16 34.1748 177.437C33.9795 177.697 33.776 177.917 33.5645 178.096C33.3529 178.275 33.1087 178.364 32.832 178.364C32.6367 178.364 32.4821 178.283 32.3682 178.12C32.2705 177.957 32.1973 177.786 32.1484 177.607C31.9368 176.908 31.7171 176.159 31.4893 175.361C31.2777 174.548 31.0742 173.726 30.8789 172.896C30.6836 172.065 30.5208 171.235 30.3906 170.405C30.2604 169.559 30.1953 168.753 30.1953 167.988V167.842C30.1953 167.76 30.1953 167.679 30.1953 167.598C30.2116 167.5 30.2197 167.419 30.2197 167.354V167.158C30.2523 167.012 30.3337 166.938 30.4639 166.938C30.5941 166.922 30.7161 166.914 30.8301 166.914C30.8464 166.914 30.9033 166.914 31.001 166.914C31.1149 166.914 31.18 166.914 31.1963 166.914C31.2288 167.158 31.2858 167.533 31.3672 168.037C31.4486 168.542 31.5462 169.103 31.6602 169.722C31.7904 170.34 31.9206 170.983 32.0508 171.65C32.1973 172.301 32.3438 172.896 32.4902 173.433C32.653 173.97 32.8158 174.409 32.9785 174.751C33.1413 175.093 33.2959 175.264 33.4424 175.264C33.6865 175.264 33.9714 175.166 34.2969 174.971C34.6224 174.775 34.9642 174.556 35.3223 174.312C35.6966 174.067 36.0872 173.84 36.4941 173.628C36.9173 173.416 37.3568 173.311 37.8125 173.311C37.9102 173.311 38.0404 173.319 38.2031 173.335C38.3659 173.335 38.5286 173.343 38.6914 173.359C38.8704 173.376 39.0332 173.4 39.1797 173.433C39.3424 173.465 39.4482 173.514 39.4971 173.579L41.6699 175.728C41.8001 175.858 41.9141 176.094 42.0117 176.436C42.1094 176.777 42.1908 177.144 42.2559 177.534C42.321 177.925 42.3617 178.299 42.3779 178.657C42.3942 178.999 42.4023 179.268 42.4023 179.463C42.4023 179.691 42.3291 179.845 42.1826 179.927C42.0361 179.992 41.8652 180.024 41.6699 180.024C41.4095 180.024 41.2223 179.894 41.1084 179.634C40.9945 179.373 40.8887 179.048 40.791 178.657C40.7096 178.25 40.612 177.827 40.498 177.388C40.3841 176.932 40.2214 176.509 40.0098 176.118C39.7982 175.711 39.5052 175.386 39.1309 175.142C38.7728 174.881 38.2845 174.751 37.666 174.751ZM43.0615 175.703C43.0615 175.15 43.2161 174.613 43.5254 174.092C43.8346 173.571 44.2253 173.115 44.6973 172.725C45.1855 172.334 45.7145 172.025 46.2842 171.797C46.8701 171.569 47.4235 171.455 47.9443 171.455C48.3675 171.455 48.7826 171.512 49.1895 171.626C49.6126 171.724 49.987 171.886 50.3125 172.114C50.638 172.342 50.8984 172.627 51.0938 172.969C51.3053 173.294 51.4111 173.685 51.4111 174.141C51.4111 174.352 51.3949 174.523 51.3623 174.653C51.346 174.767 51.2972 174.873 51.2158 174.971C51.1344 175.052 51.0286 175.133 50.8984 175.215C50.7845 175.28 50.638 175.369 50.459 175.483C50.3613 175.5 50.2148 175.54 50.0195 175.605C49.8242 175.654 49.5964 175.711 49.3359 175.776C49.0918 175.841 48.8314 175.907 48.5547 175.972C48.278 176.037 48.0094 176.102 47.749 176.167C47.5049 176.232 47.2852 176.289 47.0898 176.338C46.8945 176.387 46.748 176.419 46.6504 176.436C46.6016 176.452 46.4958 176.468 46.333 176.484C46.1702 176.501 45.9912 176.525 45.7959 176.558C45.6169 176.574 45.446 176.598 45.2832 176.631C45.1204 176.647 45.0228 176.663 44.9902 176.68C44.9414 176.696 44.8844 176.737 44.8193 176.802C44.7705 176.851 44.7461 176.883 44.7461 176.899C44.7461 177.225 44.8356 177.502 45.0146 177.729C45.1937 177.941 45.4215 178.12 45.6982 178.267C45.9749 178.413 46.2842 178.527 46.626 178.608C46.984 178.674 47.334 178.73 47.6758 178.779C48.0176 178.812 48.335 178.828 48.6279 178.828C48.9209 178.828 49.1569 178.828 49.3359 178.828C50.1497 178.828 50.9473 178.787 51.7285 178.706C52.5098 178.608 53.3073 178.56 54.1211 178.56V178.755C54.1211 178.853 54.1048 178.958 54.0723 179.072C54.056 179.17 54.0234 179.268 53.9746 179.365C53.9258 179.447 53.8607 179.495 53.7793 179.512C53.1608 179.642 52.6074 179.748 52.1191 179.829C51.6471 179.894 51.1995 179.943 50.7764 179.976C50.3532 179.992 49.9137 180 49.458 180C49.0023 180.016 48.4977 180.024 47.9443 180.024H47.5293C47.3503 180.024 47.1549 180.016 46.9434 180C46.7318 180 46.5283 180 46.333 180H45.918C45.4134 179.87 44.974 179.666 44.5996 179.39C44.2415 179.097 43.9486 178.755 43.7207 178.364C43.4928 177.974 43.3219 177.55 43.208 177.095C43.1104 176.639 43.0615 176.175 43.0615 175.703ZM48.5303 172.822C48.3187 172.822 48.0745 172.847 47.7979 172.896C47.5374 172.928 47.2607 172.993 46.9678 173.091C46.6911 173.172 46.4144 173.286 46.1377 173.433C45.861 173.563 45.6169 173.726 45.4053 173.921C45.1937 174.1 45.0146 174.303 44.8682 174.531C44.738 174.759 44.6729 175.011 44.6729 175.288H45.6738C46.0319 175.288 46.3981 175.272 46.7725 175.239C47.1468 175.207 47.513 175.158 47.8711 175.093C48.2292 175.011 48.5384 174.897 48.7988 174.751C49.0755 174.588 49.2952 174.385 49.458 174.141C49.637 173.896 49.7266 173.595 49.7266 173.237V173.115L49.4824 172.871C49.4499 172.871 49.3848 172.871 49.2871 172.871C49.2057 172.855 49.1162 172.847 49.0186 172.847C48.9209 172.83 48.8232 172.822 48.7256 172.822C48.6442 172.822 48.5791 172.822 48.5303 172.822ZM55.1953 175.239C55.179 175.239 55.1383 175.215 55.0732 175.166C55.0081 175.101 54.9756 175.044 54.9756 174.995C54.9593 174.995 54.9512 174.979 54.9512 174.946V174.824C54.9512 174.808 54.9593 174.792 54.9756 174.775C55.1546 174.596 55.3011 174.466 55.415 174.385C55.5452 174.303 55.7161 174.263 55.9277 174.263C55.9928 174.263 56.0498 174.279 56.0986 174.312C56.1637 174.344 56.2126 174.377 56.2451 174.409C56.2777 174.442 56.3102 174.474 56.3428 174.507C56.3916 174.539 56.4404 174.556 56.4893 174.556C56.5381 174.556 56.6357 174.482 56.7822 174.336C56.9287 174.173 57.124 173.978 57.3682 173.75C57.6123 173.522 57.9134 173.278 58.2715 173.018C58.6296 172.741 59.0283 172.489 59.4678 172.261C59.9235 172.033 60.4118 171.846 60.9326 171.699C61.4697 171.536 62.0557 171.455 62.6904 171.455H62.8369C62.902 171.471 63.0322 171.504 63.2275 171.553C63.4391 171.585 63.6589 171.634 63.8867 171.699C64.1146 171.748 64.3262 171.797 64.5215 171.846C64.7331 171.878 64.8796 171.903 64.9609 171.919C64.9772 171.935 65.0098 171.968 65.0586 172.017C65.1074 172.049 65.1562 172.09 65.2051 172.139C65.2539 172.171 65.2946 172.212 65.3271 172.261C65.376 172.31 65.4085 172.35 65.4248 172.383C65.4248 172.399 65.4329 172.424 65.4492 172.456C65.4492 172.456 65.4492 172.464 65.4492 172.48C65.4655 172.497 65.4736 172.505 65.4736 172.505L65.4492 172.554C65.4492 172.554 65.4492 172.562 65.4492 172.578C65.4329 172.594 65.4248 172.611 65.4248 172.627C65.4085 172.676 65.3678 172.733 65.3027 172.798C65.2376 172.847 65.2051 172.871 65.2051 172.871H60.9082C60.5501 172.871 60.1595 172.977 59.7363 173.188C59.3294 173.384 58.9388 173.644 58.5645 173.97C58.2064 174.279 57.9053 174.637 57.6611 175.044C57.4333 175.435 57.3193 175.817 57.3193 176.191V179.658C57.1403 179.658 57.0101 179.683 56.9287 179.731C56.8473 179.764 56.7741 179.805 56.709 179.854C56.6602 179.902 56.6032 179.943 56.5381 179.976C56.473 180.008 56.3835 180.024 56.2695 180.024H56.2207C56.2044 180.024 56.1882 180.016 56.1719 180C56.1068 179.984 56.0498 179.951 56.001 179.902C55.9521 179.837 55.9277 179.797 55.9277 179.78L55.1953 175.239ZM66.1084 175.703C66.1084 175.15 66.263 174.613 66.5723 174.092C66.8815 173.571 67.2721 173.115 67.7441 172.725C68.2324 172.334 68.7614 172.025 69.3311 171.797C69.917 171.569 70.4704 171.455 70.9912 171.455C71.4144 171.455 71.8294 171.512 72.2363 171.626C72.6595 171.724 73.0339 171.886 73.3594 172.114C73.6849 172.342 73.9453 172.627 74.1406 172.969C74.3522 173.294 74.458 173.685 74.458 174.141C74.458 174.352 74.4417 174.523 74.4092 174.653C74.3929 174.767 74.3441 174.873 74.2627 174.971C74.1813 175.052 74.0755 175.133 73.9453 175.215C73.8314 175.28 73.6849 175.369 73.5059 175.483C73.4082 175.5 73.2617 175.54 73.0664 175.605C72.8711 175.654 72.6432 175.711 72.3828 175.776C72.1387 175.841 71.8783 175.907 71.6016 175.972C71.3249 176.037 71.0563 176.102 70.7959 176.167C70.5518 176.232 70.332 176.289 70.1367 176.338C69.9414 176.387 69.7949 176.419 69.6973 176.436C69.6484 176.452 69.5426 176.468 69.3799 176.484C69.2171 176.501 69.0381 176.525 68.8428 176.558C68.6637 176.574 68.4928 176.598 68.3301 176.631C68.1673 176.647 68.0697 176.663 68.0371 176.68C67.9883 176.696 67.9313 176.737 67.8662 176.802C67.8174 176.851 67.793 176.883 67.793 176.899C67.793 177.225 67.8825 177.502 68.0615 177.729C68.2406 177.941 68.4684 178.12 68.7451 178.267C69.0218 178.413 69.3311 178.527 69.6729 178.608C70.0309 178.674 70.3809 178.73 70.7227 178.779C71.0645 178.812 71.3818 178.828 71.6748 178.828C71.9678 178.828 72.2038 178.828 72.3828 178.828C73.1966 178.828 73.9941 178.787 74.7754 178.706C75.5566 178.608 76.3542 178.56 77.168 178.56V178.755C77.168 178.853 77.1517 178.958 77.1191 179.072C77.1029 179.17 77.0703 179.268 77.0215 179.365C76.9727 179.447 76.9076 179.495 76.8262 179.512C76.2077 179.642 75.6543 179.748 75.166 179.829C74.694 179.894 74.2464 179.943 73.8232 179.976C73.4001 179.992 72.9606 180 72.5049 180C72.0492 180.016 71.5446 180.024 70.9912 180.024H70.5762C70.3971 180.024 70.2018 180.016 69.9902 180C69.7786 180 69.5752 180 69.3799 180H68.9648C68.4603 179.87 68.0208 179.666 67.6465 179.39C67.2884 179.097 66.9954 178.755 66.7676 178.364C66.5397 177.974 66.3688 177.55 66.2549 177.095C66.1572 176.639 66.1084 176.175 66.1084 175.703ZM71.5771 172.822C71.3656 172.822 71.1214 172.847 70.8447 172.896C70.5843 172.928 70.3076 172.993 70.0146 173.091C69.738 173.172 69.4613 173.286 69.1846 173.433C68.9079 173.563 68.6637 173.726 68.4521 173.921C68.2406 174.1 68.0615 174.303 67.915 174.531C67.7848 174.759 67.7197 175.011 67.7197 175.288H68.7207C69.0788 175.288 69.445 175.272 69.8193 175.239C70.1937 175.207 70.5599 175.158 70.918 175.093C71.276 175.011 71.5853 174.897 71.8457 174.751C72.1224 174.588 72.3421 174.385 72.5049 174.141C72.6839 173.896 72.7734 173.595 72.7734 173.237V173.115L72.5293 172.871C72.4967 172.871 72.4316 172.871 72.334 172.871C72.2526 172.855 72.1631 172.847 72.0654 172.847C71.9678 172.83 71.8701 172.822 71.7725 172.822C71.6911 172.822 71.626 172.822 71.5771 172.822Z" fill="black"/>
<path d="M293.488 63.3867C293.488 62.8822 293.488 62.3613 293.488 61.8242C293.488 61.2708 293.513 60.7174 293.562 60.1641C293.61 59.6107 293.675 59.0736 293.757 58.5527C293.854 58.0319 294.001 57.5192 294.196 57.0146C294.001 57.0798 293.854 57.096 293.757 57.0635C293.659 57.0309 293.586 56.974 293.537 56.8926C293.488 56.8112 293.456 56.7217 293.439 56.624C293.439 56.5101 293.439 56.4124 293.439 56.3311C293.439 56.1195 293.472 55.9648 293.537 55.8672C293.602 55.7695 293.692 55.7044 293.806 55.6719C293.92 55.623 294.05 55.5986 294.196 55.5986C294.359 55.5824 294.522 55.5742 294.685 55.5742C295.271 55.5742 295.881 55.623 296.516 55.7207C297.167 55.8184 297.81 55.973 298.444 56.1846C299.079 56.3799 299.681 56.6403 300.251 56.9658C300.821 57.2751 301.325 57.6576 301.765 58.1133C302.22 58.5527 302.578 59.0492 302.839 59.6025C303.099 60.1559 303.229 60.7907 303.229 61.5068C303.229 62.3695 303.059 63.1426 302.717 63.8262C302.375 64.5098 301.911 65.0876 301.325 65.5596C300.756 66.0153 300.088 66.3734 299.323 66.6338C298.558 66.8942 297.769 67.0244 296.955 67.0244C296.434 67.0244 295.954 66.9349 295.515 66.7559C295.091 66.5768 294.725 66.3327 294.416 66.0234C294.107 65.6979 293.871 65.3073 293.708 64.8516C293.562 64.3958 293.488 63.9076 293.488 63.3867ZM295.148 64.8516C295.262 65.0469 295.425 65.1934 295.637 65.291C295.848 65.3887 296.068 65.4619 296.296 65.5107C296.524 65.5596 296.752 65.5921 296.979 65.6084C297.224 65.6084 297.443 65.6084 297.639 65.6084C298.192 65.6084 298.721 65.5107 299.226 65.3154C299.746 65.1038 300.202 64.819 300.593 64.4609C300.983 64.1029 301.285 63.6797 301.496 63.1914C301.724 62.6868 301.838 62.1497 301.838 61.5801C301.838 61.1243 301.74 60.7012 301.545 60.3105C301.35 59.9036 301.089 59.5293 300.764 59.1875C300.454 58.8457 300.088 58.5446 299.665 58.2842C299.258 58.0075 298.827 57.7796 298.371 57.6006C297.915 57.4053 297.46 57.2588 297.004 57.1611C296.548 57.0635 296.109 57.0146 295.686 57.0146H295.612C295.368 57.2588 295.189 57.5924 295.075 58.0156C294.978 58.4225 294.912 58.862 294.88 59.334C294.864 59.7897 294.864 60.2454 294.88 60.7012C294.896 61.1406 294.904 61.4987 294.904 61.7754V62.2393C294.904 62.3369 294.912 62.516 294.929 62.7764C294.961 63.0205 294.986 63.2891 295.002 63.582C295.018 63.8587 295.043 64.1191 295.075 64.3633C295.108 64.6074 295.132 64.7702 295.148 64.8516ZM304.182 64.1191C304.182 63.5658 304.279 62.9961 304.475 62.4102C304.67 61.8242 304.947 61.2871 305.305 60.7988C305.679 60.3105 306.118 59.9118 306.623 59.6025C307.128 59.2933 307.705 59.1387 308.356 59.1387C309.268 59.1387 310.033 59.2282 310.651 59.4072C311.27 59.5863 311.774 59.863 312.165 60.2373C312.556 60.5954 312.832 61.0674 312.995 61.6533C313.174 62.223 313.264 62.8984 313.264 63.6797C313.264 63.7285 313.256 63.8262 313.239 63.9727C313.239 64.1029 313.239 64.2412 313.239 64.3877C313.239 64.5342 313.231 64.6807 313.215 64.8271C313.215 64.9574 313.215 65.055 313.215 65.1201C313.101 65.527 312.881 65.8607 312.556 66.1211C312.246 66.3652 311.88 66.5524 311.457 66.6826C311.05 66.8128 310.619 66.9023 310.163 66.9512C309.724 67 309.325 67.0244 308.967 67.0244C308.462 67.0244 307.933 66.9919 307.38 66.9268C306.826 66.8617 306.306 66.7314 305.817 66.5361C305.345 66.3245 304.955 66.0316 304.646 65.6572C304.336 65.2666 304.182 64.7539 304.182 64.1191ZM305.402 63.8018C305.402 64.2249 305.524 64.5749 305.769 64.8516C306.029 65.112 306.338 65.3154 306.696 65.4619C307.054 65.6084 307.437 65.7061 307.844 65.7549C308.267 65.8037 308.625 65.8281 308.918 65.8281C309.211 65.8281 309.463 65.8281 309.675 65.8281C309.903 65.8281 310.122 65.8037 310.334 65.7549C310.546 65.7061 310.765 65.6328 310.993 65.5352C311.221 65.4375 311.49 65.2992 311.799 65.1201C311.962 64.8597 312.051 64.6074 312.067 64.3633C312.084 64.1029 312.092 63.8343 312.092 63.5576C312.092 63.0042 311.986 62.516 311.774 62.0928C311.563 61.6696 311.278 61.3278 310.92 61.0674C310.562 60.807 310.131 60.6361 309.626 60.5547C309.138 60.457 308.592 60.4652 307.99 60.5791C307.746 60.6279 307.469 60.7744 307.16 61.0186C306.851 61.2627 306.566 61.5475 306.306 61.873C306.045 62.1986 305.826 62.5404 305.646 62.8984C305.484 63.2402 305.402 63.5413 305.402 63.8018ZM322.395 64.8516C321.971 64.8516 321.548 64.9574 321.125 65.1689C320.718 65.3643 320.295 65.5921 319.855 65.8525C319.416 66.113 318.96 66.349 318.488 66.5605C318.016 66.7559 317.536 66.8535 317.048 66.8535C316.983 66.8535 316.885 66.8535 316.755 66.8535C316.625 66.8372 316.478 66.8291 316.315 66.8291C316.169 66.8128 316.031 66.8047 315.9 66.8047C315.77 66.8047 315.681 66.7965 315.632 66.7803C315.323 66.6012 315.07 66.3896 314.875 66.1455C314.696 65.9014 314.549 65.641 314.436 65.3643C314.338 65.0713 314.265 64.7702 314.216 64.4609C314.167 64.1517 314.143 63.8424 314.143 63.5332V62.8496C314.143 62.5566 314.151 62.2393 314.167 61.8975C314.2 61.5557 314.232 61.2057 314.265 60.8477C314.313 60.4896 314.379 60.1641 314.46 59.8711C314.541 59.5618 314.655 59.3014 314.802 59.0898C314.948 58.8783 315.144 58.7399 315.388 58.6748C315.485 58.6423 315.583 58.6667 315.681 58.748C315.778 58.8294 315.852 58.9271 315.9 59.041C315.965 59.1387 316.014 59.2526 316.047 59.3828C316.079 59.4967 316.096 59.5781 316.096 59.627C316.096 59.6758 316.071 59.7816 316.022 59.9443C315.974 60.1071 315.917 60.2861 315.852 60.4814C315.803 60.6605 315.754 60.8314 315.705 60.9941C315.656 61.1569 315.632 61.2546 315.632 61.2871C315.632 61.3034 315.624 61.3766 315.607 61.5068C315.607 61.6208 315.599 61.751 315.583 61.8975C315.583 62.0439 315.583 62.2067 315.583 62.3857C315.583 62.5485 315.583 62.6787 315.583 62.7764C315.583 62.988 315.575 63.2321 315.559 63.5088C315.542 63.7692 315.55 64.0296 315.583 64.29C315.632 64.5505 315.705 64.7946 315.803 65.0225C315.9 65.2503 316.079 65.4294 316.34 65.5596C316.356 65.5596 316.405 65.5677 316.486 65.584C316.584 65.584 316.682 65.584 316.779 65.584C316.893 65.584 316.991 65.5921 317.072 65.6084C317.17 65.6084 317.235 65.6084 317.268 65.6084C318.146 65.6084 318.977 65.4131 319.758 65.0225C320.539 64.6318 321.223 64.1029 321.809 63.4355C321.792 63.3379 321.776 63.1507 321.76 62.874C321.76 62.5973 321.76 62.3125 321.76 62.0195C321.76 61.7103 321.76 61.4255 321.76 61.165C321.776 60.8883 321.792 60.693 321.809 60.5791C321.809 60.4814 321.825 60.3838 321.857 60.2861C321.89 60.1722 321.931 60.0664 321.979 59.9688C322.028 59.8711 322.093 59.7897 322.175 59.7246C322.272 59.6595 322.378 59.627 322.492 59.627C322.736 59.627 322.907 59.7165 323.005 59.8955C323.103 60.0745 323.168 60.3105 323.2 60.6035C323.249 60.8965 323.282 61.2383 323.298 61.6289C323.33 62.0033 323.387 62.3857 323.469 62.7764C323.55 63.167 323.688 63.5576 323.884 63.9482C324.079 64.3226 324.364 64.6644 324.738 64.9736C325.113 65.2666 325.601 65.5189 326.203 65.7305C326.805 65.9258 327.562 66.0316 328.474 66.0479C328.474 66.0804 328.474 66.1211 328.474 66.1699C328.474 66.2188 328.474 66.2594 328.474 66.292C328.474 66.5361 328.368 66.7152 328.156 66.8291C327.945 66.9268 327.684 66.9919 327.375 67.0244C327.082 67.057 326.789 67.0651 326.496 67.0488C326.203 67.0326 325.983 67.0244 325.837 67.0244C325.349 67.0244 324.909 66.9105 324.519 66.6826C324.128 66.4548 323.778 66.2106 323.469 65.9502C323.16 65.6735 322.907 65.4212 322.712 65.1934C322.533 64.9655 322.427 64.8516 322.395 64.8516ZM331.086 66.7803C330.956 66.6989 330.85 66.5931 330.769 66.4629C330.687 66.3164 330.622 66.1618 330.573 65.999C330.524 65.8363 330.476 65.6735 330.427 65.5107C330.394 65.348 330.378 65.2178 330.378 65.1201C330.345 64.9411 330.305 64.6644 330.256 64.29C330.207 63.9157 330.15 63.4844 330.085 62.9961C330.02 62.4915 329.955 61.9626 329.89 61.4092C329.825 60.8558 329.759 60.3268 329.694 59.8223C329.629 59.3014 329.572 58.8376 329.523 58.4307C329.475 58.0238 329.442 57.7145 329.426 57.5029C329.426 57.4704 329.418 57.4053 329.401 57.3076C329.401 57.21 329.401 57.1449 329.401 57.1123C329.401 56.8682 329.45 56.7135 329.548 56.6484C329.646 56.5671 329.816 56.5264 330.061 56.5264C330.354 56.5264 330.565 56.6403 330.695 56.8682C330.826 57.0798 330.915 57.3564 330.964 57.6982C331.029 58.04 331.062 58.4062 331.062 58.7969C331.078 59.1875 331.102 59.5537 331.135 59.8955C331.184 60.2373 331.257 60.5221 331.354 60.75C331.452 60.9616 331.623 61.0674 331.867 61.0674C332.225 61.0674 332.583 61.043 332.941 60.9941C333.299 60.9453 333.658 60.8883 334.016 60.8232C334.374 60.7419 334.732 60.6849 335.09 60.6523C335.464 60.6035 335.83 60.5791 336.188 60.5791H336.433C336.563 60.5791 336.693 60.5791 336.823 60.5791C336.97 60.5791 337.108 60.5791 337.238 60.5791H337.482C337.857 60.7744 338.174 61.0267 338.435 61.3359C338.711 61.6289 338.939 61.9544 339.118 62.3125C339.313 62.6543 339.468 63.0286 339.582 63.4355C339.696 63.8262 339.794 64.2168 339.875 64.6074C339.794 64.9818 339.623 65.2992 339.362 65.5596C339.118 65.82 338.825 66.0397 338.483 66.2188C338.142 66.3978 337.767 66.5443 337.36 66.6582C336.953 66.7559 336.538 66.8372 336.115 66.9023C335.708 66.9512 335.318 66.9837 334.943 67C334.569 67.0163 334.235 67.0244 333.942 67.0244C333.666 67.0244 333.413 67.0163 333.186 67C332.974 67 332.762 66.9919 332.551 66.9756C332.339 66.9593 332.111 66.9349 331.867 66.9023C331.639 66.8698 331.379 66.8291 331.086 66.7803ZM331.77 63.5576C331.77 64.2575 331.908 64.7783 332.185 65.1201C332.461 65.4456 332.958 65.6084 333.674 65.6084C333.82 65.6084 334.04 65.6084 334.333 65.6084C334.626 65.5921 334.935 65.5677 335.261 65.5352C335.603 65.5026 335.952 65.4619 336.311 65.4131C336.669 65.348 336.986 65.2666 337.263 65.1689C337.556 65.055 337.792 64.9248 337.971 64.7783C338.15 64.6156 338.239 64.4121 338.239 64.168C338.239 63.8099 338.174 63.5007 338.044 63.2402C337.914 62.9635 337.735 62.7357 337.507 62.5566C337.279 62.3613 337.019 62.2148 336.726 62.1172C336.433 62.0195 336.123 61.9707 335.798 61.9707C335.456 61.9707 335.106 61.987 334.748 62.0195C334.406 62.0521 334.056 62.1009 333.698 62.166C333.34 62.2148 332.998 62.3125 332.673 62.459C332.347 62.5892 332.046 62.752 331.77 62.9473C331.77 63.0124 331.77 63.1182 331.77 63.2646C331.77 63.4111 331.77 63.5088 331.77 63.5576ZM340.29 62.9229C340.29 62.0602 340.323 61.2464 340.388 60.4814C340.469 59.7165 340.542 58.9434 340.607 58.1621C340.689 57.3809 340.746 56.5915 340.778 55.7939C340.827 54.9964 340.835 54.1338 340.803 53.2061C340.819 53.141 340.843 53.0677 340.876 52.9863C340.909 52.9049 340.949 52.8317 340.998 52.7666C341.063 52.6852 341.128 52.6201 341.193 52.5713C341.258 52.5062 341.332 52.4736 341.413 52.4736C341.608 52.4736 341.771 52.5794 341.901 52.791C342.032 52.9863 342.121 53.2467 342.17 53.5723C342.235 53.8815 342.276 54.2233 342.292 54.5977C342.308 54.972 342.308 55.3382 342.292 55.6963C342.292 56.0381 342.284 56.3392 342.268 56.5996C342.251 56.86 342.243 57.0391 342.243 57.1367C342.243 58.097 342.194 59.0492 342.097 59.9932C342.015 60.9209 341.975 61.873 341.975 62.8496V63.2402C341.975 63.4355 341.975 63.639 341.975 63.8506C341.975 64.0622 341.975 64.2656 341.975 64.4609V64.8516C341.991 65.0143 342.048 65.1527 342.146 65.2666C342.243 65.3643 342.349 65.4538 342.463 65.5352C342.593 65.6003 342.723 65.6572 342.854 65.7061C342.984 65.7549 343.098 65.7874 343.195 65.8037C343.26 65.8037 343.366 65.8118 343.513 65.8281C343.675 65.8281 343.846 65.8281 344.025 65.8281C344.204 65.8281 344.367 65.8281 344.514 65.8281C344.676 65.8281 344.79 65.8281 344.855 65.8281C345.132 65.8281 345.352 65.8281 345.515 65.8281C345.694 65.8118 345.832 65.7956 345.93 65.7793C346.044 65.763 346.149 65.7467 346.247 65.7305C346.345 65.6979 346.451 65.6816 346.564 65.6816C346.678 65.6654 346.817 65.6491 346.979 65.6328C347.142 65.6165 347.362 65.6084 347.639 65.6084C347.639 66.1455 347.533 66.5199 347.321 66.7314C347.11 66.943 346.833 67.0651 346.491 67.0977C346.166 67.1465 345.799 67.1465 345.393 67.0977C345.002 67.0488 344.619 67.0244 344.245 67.0244H343.903C343.741 67.0244 343.562 67.0163 343.366 67C343.171 67 342.984 67 342.805 67H342.487C341.983 66.9023 341.584 66.7233 341.291 66.4629C340.998 66.1862 340.778 65.8607 340.632 65.4863C340.502 65.0957 340.412 64.6807 340.363 64.2412C340.314 63.8018 340.29 63.3623 340.29 62.9229ZM346.979 62.7031C346.979 62.1497 347.134 61.6126 347.443 61.0918C347.753 60.571 348.143 60.1152 348.615 59.7246C349.104 59.334 349.632 59.0247 350.202 58.7969C350.788 58.569 351.341 58.4551 351.862 58.4551C352.285 58.4551 352.701 58.512 353.107 58.626C353.531 58.7236 353.905 58.8864 354.23 59.1143C354.556 59.3421 354.816 59.627 355.012 59.9688C355.223 60.2943 355.329 60.6849 355.329 61.1406C355.329 61.3522 355.313 61.5231 355.28 61.6533C355.264 61.7673 355.215 61.873 355.134 61.9707C355.052 62.0521 354.947 62.1335 354.816 62.2148C354.702 62.2799 354.556 62.3695 354.377 62.4834C354.279 62.4997 354.133 62.5404 353.938 62.6055C353.742 62.6543 353.514 62.7113 353.254 62.7764C353.01 62.8415 352.749 62.9066 352.473 62.9717C352.196 63.0368 351.927 63.1019 351.667 63.167C351.423 63.2321 351.203 63.2891 351.008 63.3379C350.812 63.3867 350.666 63.4193 350.568 63.4355C350.52 63.4518 350.414 63.4681 350.251 63.4844C350.088 63.5007 349.909 63.5251 349.714 63.5576C349.535 63.5739 349.364 63.5983 349.201 63.6309C349.038 63.6471 348.941 63.6634 348.908 63.6797C348.859 63.696 348.802 63.7367 348.737 63.8018C348.688 63.8506 348.664 63.8831 348.664 63.8994C348.664 64.2249 348.754 64.5016 348.933 64.7295C349.112 64.9411 349.34 65.1201 349.616 65.2666C349.893 65.4131 350.202 65.527 350.544 65.6084C350.902 65.6735 351.252 65.7305 351.594 65.7793C351.936 65.8118 352.253 65.8281 352.546 65.8281C352.839 65.8281 353.075 65.8281 353.254 65.8281C354.068 65.8281 354.865 65.7874 355.646 65.7061C356.428 65.6084 357.225 65.5596 358.039 65.5596V65.7549C358.039 65.8525 358.023 65.9583 357.99 66.0723C357.974 66.1699 357.941 66.2676 357.893 66.3652C357.844 66.4466 357.779 66.4954 357.697 66.5117C357.079 66.6419 356.525 66.7477 356.037 66.8291C355.565 66.8942 355.118 66.943 354.694 66.9756C354.271 66.9919 353.832 67 353.376 67C352.92 67.0163 352.416 67.0244 351.862 67.0244H351.447C351.268 67.0244 351.073 67.0163 350.861 67C350.65 67 350.446 67 350.251 67H349.836C349.331 66.8698 348.892 66.6663 348.518 66.3896C348.16 66.0967 347.867 65.7549 347.639 65.3643C347.411 64.9736 347.24 64.5505 347.126 64.0947C347.028 63.639 346.979 63.1751 346.979 62.7031ZM352.448 59.8223C352.237 59.8223 351.993 59.8467 351.716 59.8955C351.455 59.9281 351.179 59.9932 350.886 60.0908C350.609 60.1722 350.332 60.2861 350.056 60.4326C349.779 60.5628 349.535 60.7256 349.323 60.9209C349.112 61.0999 348.933 61.3034 348.786 61.5312C348.656 61.7591 348.591 62.0114 348.591 62.2881H349.592C349.95 62.2881 350.316 62.2718 350.69 62.2393C351.065 62.2067 351.431 62.1579 351.789 62.0928C352.147 62.0114 352.456 61.8975 352.717 61.751C352.993 61.5882 353.213 61.3848 353.376 61.1406C353.555 60.8965 353.645 60.5954 353.645 60.2373V60.1152L353.4 59.8711C353.368 59.8711 353.303 59.8711 353.205 59.8711C353.124 59.8548 353.034 59.8467 352.937 59.8467C352.839 59.8304 352.741 59.8223 352.644 59.8223C352.562 59.8223 352.497 59.8223 352.448 59.8223ZM366.853 56.5264C366.706 56.4775 366.617 56.4206 366.584 56.3555C366.568 56.2741 366.56 56.1764 366.56 56.0625C366.56 55.7044 366.674 55.4115 366.901 55.1836C367.146 54.9395 367.438 54.7441 367.78 54.5977C368.122 54.4512 368.513 54.3454 368.952 54.2803C369.392 54.2152 369.815 54.1663 370.222 54.1338C370.645 54.1012 371.044 54.0931 371.418 54.1094C371.792 54.1094 372.085 54.1094 372.297 54.1094C372.378 54.1094 372.525 54.1175 372.736 54.1338C372.948 54.1338 373.168 54.1419 373.396 54.1582C373.623 54.1582 373.835 54.1582 374.03 54.1582C374.226 54.1582 374.364 54.1582 374.445 54.1582C374.657 54.2559 374.909 54.3535 375.202 54.4512C375.511 54.5326 375.804 54.6383 376.081 54.7686C376.358 54.8988 376.594 55.0697 376.789 55.2812C376.984 55.4928 377.082 55.7533 377.082 56.0625C377.082 56.388 376.993 56.6729 376.813 56.917C376.651 57.1449 376.439 57.3483 376.179 57.5273C375.918 57.7064 375.625 57.8691 375.3 58.0156C374.991 58.1458 374.681 58.2842 374.372 58.4307C374.063 58.5609 373.786 58.6992 373.542 58.8457C373.314 58.9922 373.143 59.1712 373.029 59.3828C373.469 59.4967 373.941 59.6514 374.445 59.8467C374.95 60.042 375.414 60.2861 375.837 60.5791C376.276 60.8558 376.634 61.2057 376.911 61.6289C377.204 62.0358 377.351 62.516 377.351 63.0693C377.351 63.7529 377.196 64.347 376.887 64.8516C376.594 65.3398 376.203 65.7467 375.715 66.0723C375.243 66.3815 374.698 66.6175 374.079 66.7803C373.477 66.9268 372.85 67 372.199 67H372.077C372.012 66.9837 371.931 66.9674 371.833 66.9512C371.735 66.9349 371.63 66.9186 371.516 66.9023C371.418 66.8698 371.328 66.8454 371.247 66.8291C371.166 66.8128 371.125 66.7965 371.125 66.7803L367.316 64.6074C367.284 64.5911 367.235 64.526 367.17 64.4121C367.121 64.2982 367.089 64.2168 367.072 64.168C366.991 63.582 366.926 62.9554 366.877 62.2881C366.844 61.6208 366.82 60.9535 366.804 60.2861C366.787 59.6025 366.787 58.9434 366.804 58.3086C366.82 57.6576 366.836 57.0635 366.853 56.5264ZM368.22 60.4814C368.22 61.2464 368.326 61.9463 368.537 62.5811C368.765 63.2158 369.09 63.7529 369.514 64.1924C369.937 64.6318 370.458 64.9818 371.076 65.2422C371.711 65.4863 372.435 65.6084 373.249 65.6084C373.526 65.6084 373.819 65.5596 374.128 65.4619C374.437 65.348 374.722 65.2015 374.982 65.0225C375.259 64.8271 375.479 64.5993 375.642 64.3389C375.821 64.0785 375.91 63.7936 375.91 63.4844C375.91 62.9147 375.764 62.4427 375.471 62.0684C375.194 61.694 374.828 61.401 374.372 61.1895C373.933 60.9616 373.428 60.7988 372.858 60.7012C372.289 60.6035 371.719 60.5384 371.149 60.5059C370.58 60.457 370.035 60.4408 369.514 60.457C369.009 60.4733 368.578 60.4814 368.22 60.4814ZM371.833 55.3057C371.019 55.3057 370.376 55.3626 369.904 55.4766C369.432 55.5905 369.066 55.8021 368.806 56.1113C368.562 56.4043 368.399 56.8112 368.317 57.332C368.236 57.8366 368.195 58.4714 368.195 59.2363C368.423 59.2363 368.757 59.1956 369.196 59.1143C369.652 59.0166 370.148 58.8945 370.686 58.748C371.223 58.5853 371.768 58.4062 372.321 58.2109C372.891 57.9993 373.404 57.7878 373.859 57.5762C374.315 57.3483 374.689 57.1204 374.982 56.8926C375.275 56.6484 375.422 56.4124 375.422 56.1846C375.422 56.0706 375.349 55.9648 375.202 55.8672C375.056 55.7695 374.86 55.6882 374.616 55.623C374.372 55.5579 374.104 55.5091 373.811 55.4766C373.518 55.4277 373.233 55.3952 372.956 55.3789C372.696 55.3464 372.46 55.3301 372.248 55.3301C372.053 55.3138 371.914 55.3057 371.833 55.3057ZM386.481 64.8516C386.058 64.8516 385.635 64.9574 385.212 65.1689C384.805 65.3643 384.382 65.5921 383.942 65.8525C383.503 66.113 383.047 66.349 382.575 66.5605C382.103 66.7559 381.623 66.8535 381.135 66.8535C381.07 66.8535 380.972 66.8535 380.842 66.8535C380.712 66.8372 380.565 66.8291 380.402 66.8291C380.256 66.8128 380.118 66.8047 379.987 66.8047C379.857 66.8047 379.768 66.7965 379.719 66.7803C379.41 66.6012 379.157 66.3896 378.962 66.1455C378.783 65.9014 378.636 65.641 378.522 65.3643C378.425 65.0713 378.352 64.7702 378.303 64.4609C378.254 64.1517 378.229 63.8424 378.229 63.5332V62.8496C378.229 62.5566 378.238 62.2393 378.254 61.8975C378.286 61.5557 378.319 61.2057 378.352 60.8477C378.4 60.4896 378.465 60.1641 378.547 59.8711C378.628 59.5618 378.742 59.3014 378.889 59.0898C379.035 58.8783 379.23 58.7399 379.475 58.6748C379.572 58.6423 379.67 58.6667 379.768 58.748C379.865 58.8294 379.938 58.9271 379.987 59.041C380.052 59.1387 380.101 59.2526 380.134 59.3828C380.166 59.4967 380.183 59.5781 380.183 59.627C380.183 59.6758 380.158 59.7816 380.109 59.9443C380.061 60.1071 380.004 60.2861 379.938 60.4814C379.89 60.6605 379.841 60.8314 379.792 60.9941C379.743 61.1569 379.719 61.2546 379.719 61.2871C379.719 61.3034 379.711 61.3766 379.694 61.5068C379.694 61.6208 379.686 61.751 379.67 61.8975C379.67 62.0439 379.67 62.2067 379.67 62.3857C379.67 62.5485 379.67 62.6787 379.67 62.7764C379.67 62.988 379.662 63.2321 379.646 63.5088C379.629 63.7692 379.637 64.0296 379.67 64.29C379.719 64.5505 379.792 64.7946 379.89 65.0225C379.987 65.2503 380.166 65.4294 380.427 65.5596C380.443 65.5596 380.492 65.5677 380.573 65.584C380.671 65.584 380.769 65.584 380.866 65.584C380.98 65.584 381.078 65.5921 381.159 65.6084C381.257 65.6084 381.322 65.6084 381.354 65.6084C382.233 65.6084 383.063 65.4131 383.845 65.0225C384.626 64.6318 385.31 64.1029 385.896 63.4355C385.879 63.3379 385.863 63.1507 385.847 62.874C385.847 62.5973 385.847 62.3125 385.847 62.0195C385.847 61.7103 385.847 61.4255 385.847 61.165C385.863 60.8883 385.879 60.693 385.896 60.5791C385.896 60.4814 385.912 60.3838 385.944 60.2861C385.977 60.1722 386.018 60.0664 386.066 59.9688C386.115 59.8711 386.18 59.7897 386.262 59.7246C386.359 59.6595 386.465 59.627 386.579 59.627C386.823 59.627 386.994 59.7165 387.092 59.8955C387.189 60.0745 387.255 60.3105 387.287 60.6035C387.336 60.8965 387.368 61.2383 387.385 61.6289C387.417 62.0033 387.474 62.3857 387.556 62.7764C387.637 63.167 387.775 63.5576 387.971 63.9482C388.166 64.3226 388.451 64.6644 388.825 64.9736C389.2 65.2666 389.688 65.5189 390.29 65.7305C390.892 65.9258 391.649 66.0316 392.561 66.0479C392.561 66.0804 392.561 66.1211 392.561 66.1699C392.561 66.2188 392.561 66.2594 392.561 66.292C392.561 66.5361 392.455 66.7152 392.243 66.8291C392.032 66.9268 391.771 66.9919 391.462 67.0244C391.169 67.057 390.876 67.0651 390.583 67.0488C390.29 67.0326 390.07 67.0244 389.924 67.0244C389.436 67.0244 388.996 66.9105 388.605 66.6826C388.215 66.4548 387.865 66.2106 387.556 65.9502C387.246 65.6735 386.994 65.4212 386.799 65.1934C386.62 64.9655 386.514 64.8516 386.481 64.8516ZM393.439 72.9082C393.635 72.9082 393.814 72.9977 393.977 73.1768C394.156 73.3721 394.326 73.5918 394.489 73.8359C394.652 74.0801 394.807 74.3242 394.953 74.5684C395.1 74.8288 395.254 75.0078 395.417 75.1055C395.759 75.3822 396.141 75.61 396.564 75.7891C397.004 75.9681 397.451 76.1064 397.907 76.2041C398.363 76.318 398.819 76.3994 399.274 76.4482C399.746 76.5133 400.202 76.5459 400.642 76.5459C400.674 76.5459 400.731 76.5378 400.812 76.5215C400.91 76.5215 401.008 76.5215 401.105 76.5215C401.203 76.5215 401.293 76.5133 401.374 76.4971C401.472 76.4971 401.537 76.4971 401.569 76.4971C401.813 76.3831 402.001 76.2285 402.131 76.0332C402.277 75.8542 402.375 75.6507 402.424 75.4229C402.489 75.2113 402.53 74.9834 402.546 74.7393C402.562 74.4951 402.57 74.251 402.57 74.0068C402.57 73.8278 402.554 73.5186 402.521 73.0791C402.505 72.6559 402.473 72.1514 402.424 71.5654C402.375 70.9958 402.31 70.3936 402.229 69.7588C402.163 69.124 402.066 68.5218 401.936 67.9521C401.822 67.3825 401.675 66.8861 401.496 66.4629C401.317 66.0397 401.114 65.7467 400.886 65.584C400.723 65.763 400.56 65.9421 400.397 66.1211C400.235 66.2839 400.048 66.4303 399.836 66.5605C399.641 66.6908 399.437 66.7965 399.226 66.8779C399.014 66.9593 398.778 67 398.518 67C397.997 67 397.443 66.943 396.857 66.8291C396.271 66.7152 395.726 66.5199 395.222 66.2432C394.717 65.9665 394.302 65.6165 393.977 65.1934C393.651 64.7539 393.488 64.2087 393.488 63.5576C393.488 62.9554 393.651 62.4508 393.977 62.0439C394.302 61.6208 394.701 61.2871 395.173 61.043C395.661 60.7826 396.19 60.5954 396.76 60.4814C397.329 60.3675 397.867 60.3105 398.371 60.3105C398.534 60.3105 398.729 60.3187 398.957 60.335C399.201 60.335 399.445 60.3512 399.689 60.3838C399.934 60.4163 400.161 60.4652 400.373 60.5303C400.585 60.5954 400.756 60.693 400.886 60.8232C400.902 60.8558 400.918 60.9453 400.935 61.0918C400.967 61.222 400.992 61.3685 401.008 61.5312C401.04 61.694 401.065 61.8486 401.081 61.9951C401.097 62.1416 401.105 62.223 401.105 62.2393C401.171 62.5322 401.26 62.8171 401.374 63.0938C401.504 63.3542 401.643 63.6309 401.789 63.9238C401.936 64.2005 402.074 64.4772 402.204 64.7539C402.334 65.0306 402.44 65.3073 402.521 65.584C402.961 66.9837 403.319 68.3753 403.596 69.7588C403.872 71.1423 404.011 72.5664 404.011 74.0312C404.011 74.0964 404.003 74.2103 403.986 74.373C403.986 74.5521 403.986 74.7311 403.986 74.9102C403.986 75.1055 403.978 75.2845 403.962 75.4473C403.962 75.6263 403.962 75.7484 403.962 75.8135C403.946 76.2367 403.815 76.5866 403.571 76.8633C403.327 77.1562 403.026 77.376 402.668 77.5225C402.326 77.6852 401.952 77.7992 401.545 77.8643C401.154 77.9456 400.804 77.9863 400.495 77.9863C399.974 77.9863 399.429 77.9375 398.859 77.8398C398.306 77.7585 397.769 77.6283 397.248 77.4492C396.727 77.2702 396.231 77.0423 395.759 76.7656C395.303 76.5052 394.904 76.1878 394.562 75.8135C394.221 75.4391 393.944 75.016 393.732 74.5439C393.537 74.0719 393.439 73.5267 393.439 72.9082ZM394.904 63.7041C394.904 64.0296 395.002 64.3145 395.197 64.5586C395.393 64.8027 395.637 65.0062 395.93 65.1689C396.223 65.3154 396.532 65.4294 396.857 65.5107C397.183 65.5758 397.468 65.6084 397.712 65.6084C398.64 65.6084 399.283 65.3805 399.641 64.9248C399.999 64.4528 400.178 63.7692 400.178 62.874C400.178 62.6136 400.129 62.4102 400.031 62.2637C399.934 62.1009 399.803 61.987 399.641 61.9219C399.478 61.8568 399.291 61.8161 399.079 61.7998C398.868 61.7673 398.656 61.751 398.444 61.751C398.151 61.751 397.801 61.7835 397.395 61.8486C396.988 61.8975 396.597 61.9951 396.223 62.1416C395.865 62.2881 395.555 62.4915 395.295 62.752C395.035 62.9961 394.904 63.3135 394.904 63.7041ZM403.962 62.7031C403.962 62.1497 404.117 61.6126 404.426 61.0918C404.735 60.571 405.126 60.1152 405.598 59.7246C406.086 59.334 406.615 59.0247 407.185 58.7969C407.771 58.569 408.324 58.4551 408.845 58.4551C409.268 58.4551 409.683 58.512 410.09 58.626C410.513 58.7236 410.887 58.8864 411.213 59.1143C411.538 59.3421 411.799 59.627 411.994 59.9688C412.206 60.2943 412.312 60.6849 412.312 61.1406C412.312 61.3522 412.295 61.5231 412.263 61.6533C412.246 61.7673 412.198 61.873 412.116 61.9707C412.035 62.0521 411.929 62.1335 411.799 62.2148C411.685 62.2799 411.538 62.3695 411.359 62.4834C411.262 62.4997 411.115 62.5404 410.92 62.6055C410.725 62.6543 410.497 62.7113 410.236 62.7764C409.992 62.8415 409.732 62.9066 409.455 62.9717C409.178 63.0368 408.91 63.1019 408.649 63.167C408.405 63.2321 408.186 63.2891 407.99 63.3379C407.795 63.3867 407.648 63.4193 407.551 63.4355C407.502 63.4518 407.396 63.4681 407.233 63.4844C407.071 63.5007 406.892 63.5251 406.696 63.5576C406.517 63.5739 406.346 63.5983 406.184 63.6309C406.021 63.6471 405.923 63.6634 405.891 63.6797C405.842 63.696 405.785 63.7367 405.72 63.8018C405.671 63.8506 405.646 63.8831 405.646 63.8994C405.646 64.2249 405.736 64.5016 405.915 64.7295C406.094 64.9411 406.322 65.1201 406.599 65.2666C406.875 65.4131 407.185 65.527 407.526 65.6084C407.884 65.6735 408.234 65.7305 408.576 65.7793C408.918 65.8118 409.235 65.8281 409.528 65.8281C409.821 65.8281 410.057 65.8281 410.236 65.8281C411.05 65.8281 411.848 65.7874 412.629 65.7061C413.41 65.6084 414.208 65.5596 415.021 65.5596V65.7549C415.021 65.8525 415.005 65.9583 414.973 66.0723C414.956 66.1699 414.924 66.2676 414.875 66.3652C414.826 66.4466 414.761 66.4954 414.68 66.5117C414.061 66.6419 413.508 66.7477 413.02 66.8291C412.548 66.8942 412.1 66.943 411.677 66.9756C411.254 66.9919 410.814 67 410.358 67C409.903 67.0163 409.398 67.0244 408.845 67.0244H408.43C408.251 67.0244 408.055 67.0163 407.844 67C407.632 67 407.429 67 407.233 67H406.818C406.314 66.8698 405.874 66.6663 405.5 66.3896C405.142 66.0967 404.849 65.7549 404.621 65.3643C404.393 64.9736 404.222 64.5505 404.108 64.0947C404.011 63.639 403.962 63.1751 403.962 62.7031ZM409.431 59.8223C409.219 59.8223 408.975 59.8467 408.698 59.8955C408.438 59.9281 408.161 59.9932 407.868 60.0908C407.591 60.1722 407.315 60.2861 407.038 60.4326C406.761 60.5628 406.517 60.7256 406.306 60.9209C406.094 61.0999 405.915 61.3034 405.769 61.5312C405.638 61.7591 405.573 62.0114 405.573 62.2881H406.574C406.932 62.2881 407.299 62.2718 407.673 62.2393C408.047 62.2067 408.413 62.1579 408.771 62.0928C409.13 62.0114 409.439 61.8975 409.699 61.751C409.976 61.5882 410.196 61.3848 410.358 61.1406C410.537 60.8965 410.627 60.5954 410.627 60.2373V60.1152L410.383 59.8711C410.35 59.8711 410.285 59.8711 410.188 59.8711C410.106 59.8548 410.017 59.8467 409.919 59.8467C409.821 59.8304 409.724 59.8223 409.626 59.8223C409.545 59.8223 409.479 59.8223 409.431 59.8223ZM416.096 62.2393C416.079 62.2393 416.039 62.2148 415.974 62.166C415.909 62.1009 415.876 62.0439 415.876 61.9951C415.86 61.9951 415.852 61.9788 415.852 61.9463V61.8242C415.852 61.8079 415.86 61.7917 415.876 61.7754C416.055 61.5964 416.201 61.4661 416.315 61.3848C416.446 61.3034 416.617 61.2627 416.828 61.2627C416.893 61.2627 416.95 61.279 416.999 61.3115C417.064 61.3441 417.113 61.3766 417.146 61.4092C417.178 61.4417 417.211 61.4743 417.243 61.5068C417.292 61.5394 417.341 61.5557 417.39 61.5557C417.438 61.5557 417.536 61.4824 417.683 61.3359C417.829 61.1732 418.024 60.9779 418.269 60.75C418.513 60.5221 418.814 60.278 419.172 60.0176C419.53 59.7409 419.929 59.4886 420.368 59.2607C420.824 59.0329 421.312 58.8457 421.833 58.6992C422.37 58.5365 422.956 58.4551 423.591 58.4551H423.737C423.802 58.4714 423.933 58.5039 424.128 58.5527C424.34 58.5853 424.559 58.6341 424.787 58.6992C425.015 58.748 425.227 58.7969 425.422 58.8457C425.633 58.8783 425.78 58.9027 425.861 58.9189C425.878 58.9352 425.91 58.9678 425.959 59.0166C426.008 59.0492 426.057 59.0898 426.105 59.1387C426.154 59.1712 426.195 59.2119 426.228 59.2607C426.276 59.3096 426.309 59.3503 426.325 59.3828C426.325 59.3991 426.333 59.4235 426.35 59.4561C426.35 59.4561 426.35 59.4642 426.35 59.4805C426.366 59.4967 426.374 59.5049 426.374 59.5049L426.35 59.5537C426.35 59.5537 426.35 59.5618 426.35 59.5781C426.333 59.5944 426.325 59.6107 426.325 59.627C426.309 59.6758 426.268 59.7327 426.203 59.7979C426.138 59.8467 426.105 59.8711 426.105 59.8711H421.809C421.451 59.8711 421.06 59.9769 420.637 60.1885C420.23 60.3838 419.839 60.6442 419.465 60.9697C419.107 61.279 418.806 61.637 418.562 62.0439C418.334 62.4346 418.22 62.8171 418.22 63.1914V66.6582C418.041 66.6582 417.91 66.6826 417.829 66.7314C417.748 66.764 417.674 66.8047 417.609 66.8535C417.561 66.9023 417.504 66.943 417.438 66.9756C417.373 67.0081 417.284 67.0244 417.17 67.0244H417.121C417.105 67.0244 417.089 67.0163 417.072 67C417.007 66.9837 416.95 66.9512 416.901 66.9023C416.853 66.8372 416.828 66.7965 416.828 66.7803L416.096 62.2393Z" fill="black"/>
<g filter="url(#filter0_d_110_260)">
<path d="M31.5649 47.5157C31.558 47.8867 31.426 48.1577 31.1689 48.3287C30.9309 48.5196 30.6654 48.6124 30.3725 48.6069C30.0796 48.6014 29.8178 48.4989 29.5871 48.2992C29.356 48.1191 29.244 47.8435 29.2509 47.4725C29.3054 45.5982 29.3794 43.7243 29.4729 41.8507C29.5469 39.9767 29.6112 38.1026 29.6657 36.2283C29.7201 34.354 29.7453 32.4791 29.7412 30.6037C29.7368 28.7479 29.6739 26.8811 29.5526 25.0035C29.5393 24.6712 29.6617 24.3902 29.92 24.1606C30.1778 23.9506 30.4532 23.8483 30.7461 23.8537C31.0781 23.8599 31.3397 23.9722 31.531 24.1907C31.7414 24.429 31.8631 24.7145 31.896 25.0472C32.0172 26.9248 32.0801 28.7915 32.0846 30.6474C32.0887 32.5228 32.0635 34.3977 32.009 36.272C31.9545 38.1463 31.8805 40.0202 31.787 41.8938C31.6934 43.7674 31.6194 45.6414 31.5649 47.5157ZM31.1034 72.2672C31.0965 72.6383 30.9645 72.9093 30.7074 73.0803C30.4694 73.2712 30.2039 73.3639 29.911 73.3585C29.6181 73.353 29.3563 73.2504 29.1256 73.0508C28.8946 72.8707 28.7825 72.5951 28.7894 72.2241C28.8439 70.3498 28.9179 68.4758 29.0114 66.6022C29.0854 64.7283 29.1497 62.8542 29.2042 60.9799C29.2586 59.1055 29.2838 57.2307 29.2797 55.3553C29.2753 53.4994 29.2124 51.6327 29.0911 49.7551C29.0778 49.4228 29.2002 49.1418 29.4585 48.9122C29.7163 48.7021 29.9917 48.5998 30.2846 48.6053C30.6166 48.6115 30.8782 48.7238 31.0695 48.9422C31.2799 49.1806 31.4016 49.4661 31.4345 49.7988C31.5557 51.6764 31.6186 53.5431 31.6231 55.399C31.6272 57.2744 31.602 59.1492 31.5475 61.0235C31.493 62.8979 31.419 64.7718 31.3255 66.6454C31.2319 68.519 31.1579 70.3929 31.1034 72.2672ZM30.642 97.0188C30.635 97.3898 30.503 97.6608 30.2459 97.8318C30.0079 98.0228 29.7424 98.1155 29.4495 98.11C29.1566 98.1046 28.8948 98.002 28.6641 97.8024C28.4331 97.6222 28.321 97.3467 28.3279 96.9756C28.3824 95.1013 28.4564 93.2274 28.5499 91.3538C28.6239 89.4798 28.6882 87.6057 28.7427 85.7314C28.7971 83.8571 28.8223 81.9822 28.8182 80.1068C28.8138 78.251 28.7509 76.3842 28.6296 74.5067C28.6163 74.1743 28.7387 73.8933 28.997 73.6637C29.2548 73.4537 29.5302 73.3514 29.8231 73.3568C30.1551 73.363 30.4167 73.4753 30.608 73.6938C30.8185 73.9321 30.9401 74.2176 30.973 74.5503C31.0942 76.4279 31.1571 78.2947 31.1616 80.1505C31.1657 82.0259 31.1405 83.9008 31.086 85.7751C31.0315 87.6494 30.9575 89.5234 30.864 91.3969C30.7704 93.2705 30.6964 95.1445 30.642 97.0188Z" fill="black"/>
</g>
<g filter="url(#filter1_d_110_260)">
<path d="M33.1219 64.3316C33.1056 64.7024 32.9669 64.97 32.7055 65.1345C32.4628 65.3194 32.1951 65.4054 31.9024 65.3926C31.6097 65.3797 31.3506 65.2706 31.125 65.0653C30.8985 64.8794 30.7934 64.6011 30.8097 64.2303C30.9112 62.358 31.0323 60.4865 31.1729 58.6159C31.294 56.7444 31.4053 54.8724 31.5069 53.0001C31.6084 51.1277 31.6807 49.2541 31.7238 47.3792C31.7659 45.5238 31.75 43.6561 31.676 41.776C31.671 41.4435 31.8004 41.1657 32.0644 40.9426C32.3274 40.7391 32.6053 40.6437 32.898 40.6566C33.2297 40.6711 33.4884 40.79 33.6742 41.0131C33.8785 41.2567 33.993 41.5452 34.0175 41.8786C34.0915 43.7586 34.1074 45.6264 34.0653 47.4818C34.0222 49.3567 33.9499 51.2303 33.8484 53.1027C33.7468 54.975 33.6257 56.8465 33.4851 58.7171C33.3445 60.5878 33.2235 62.4593 33.1219 64.3316ZM32.0385 89.0638C32.0223 89.4345 31.8835 89.7021 31.6221 89.8666C31.3794 90.0515 31.1117 90.1375 30.819 90.1247C30.5263 90.1119 30.2672 90.0028 30.0416 89.7974C29.8151 89.6115 29.71 89.3332 29.7263 88.9625C29.8278 87.0901 29.9489 85.2186 30.0895 83.348C30.2106 81.4765 30.3219 79.6046 30.4235 77.7322C30.525 75.8599 30.5973 73.9863 30.6404 72.1113C30.6826 70.2559 30.6666 68.3882 30.5926 66.5082C30.5876 66.1756 30.7171 65.8978 30.981 65.6748C31.244 65.4712 31.5219 65.3759 31.8146 65.3887C32.1463 65.4032 32.405 65.5221 32.5908 65.7453C32.7951 65.9888 32.9096 66.2773 32.9341 66.6107C33.0081 68.4908 33.0241 70.3585 32.9819 72.2139C32.9389 74.0888 32.8666 75.9625 32.765 77.8348C32.6634 79.7072 32.5423 81.5786 32.4017 83.4493C32.2612 85.3199 32.1401 87.1914 32.0385 89.0638ZM30.9551 113.796C30.9389 114.167 30.8001 114.434 30.5387 114.599C30.296 114.784 30.0283 114.87 29.7356 114.857C29.443 114.844 29.1838 114.735 28.9582 114.53C28.7318 114.344 28.6266 114.065 28.6429 113.695C28.7445 111.822 28.8655 109.951 29.0061 108.08C29.1272 106.209 29.2385 104.337 29.3401 102.464C29.4417 100.592 29.514 98.7184 29.557 96.8435C29.5992 94.9881 29.5832 93.1204 29.5092 91.2403C29.5042 90.9078 29.6337 90.6299 29.8976 90.4069C30.1607 90.2034 30.4385 90.108 30.7312 90.1209C31.0629 90.1354 31.3217 90.2542 31.5074 90.4774C31.7118 90.721 31.8262 91.0095 31.8507 91.3429C31.9247 93.2229 31.9407 95.0907 31.8985 96.9461C31.8555 98.821 31.7832 100.695 31.6816 102.567C31.58 104.439 31.459 106.311 31.3184 108.181C31.1778 110.052 31.0567 111.924 30.9551 113.796Z" fill="black"/>
</g>
<g filter="url(#filter2_d_110_260)">
<path d="M56.931 106.544C57.3005 106.578 57.561 106.73 57.7125 106.999C57.8853 107.25 57.9581 107.522 57.931 107.814C57.9038 108.105 57.7822 108.359 57.566 108.574C57.3693 108.791 57.0862 108.883 56.7167 108.848C54.8515 108.655 52.9882 108.443 51.1267 108.211C49.2634 107.998 47.3991 107.795 45.534 107.602C43.6689 107.409 41.801 107.245 39.9304 107.11C38.0793 106.977 36.2131 106.902 34.3317 106.884C33.9992 106.873 33.7281 106.73 33.5183 106.455C33.3279 106.182 33.2462 105.9 33.2733 105.609C33.3041 105.278 33.4355 105.025 33.6675 104.851C33.9207 104.659 34.2145 104.558 34.5487 104.55C36.4301 104.568 38.2964 104.644 40.1475 104.777C42.0181 104.911 43.8859 105.075 45.751 105.268C47.6162 105.462 49.4795 105.674 51.341 105.906C53.2025 106.138 55.0659 106.351 56.931 106.544ZM81.5805 108.836C81.95 108.871 82.2105 109.022 82.362 109.291C82.5348 109.543 82.6076 109.814 82.5804 110.106C82.5533 110.398 82.4317 110.651 82.2155 110.867C82.0187 111.084 81.7356 111.175 81.3661 111.141C79.501 110.948 77.6377 110.735 75.7762 110.503C73.9128 110.291 72.0486 110.088 70.1835 109.895C68.3183 109.702 66.4505 109.538 64.5799 109.403C62.7288 109.27 60.8626 109.194 58.9811 109.176C58.6487 109.165 58.3776 109.022 58.1677 108.748C57.9773 108.475 57.8957 108.193 57.9228 107.901C57.9536 107.57 58.0849 107.318 58.317 107.143C58.5702 106.951 58.864 106.851 59.1982 106.843C61.0796 106.861 62.9459 106.936 64.797 107.069C66.6675 107.204 68.5354 107.368 70.4005 107.561C72.2656 107.754 74.129 107.967 75.9905 108.199C77.852 108.431 79.7153 108.643 81.5805 108.836ZM106.23 111.129C106.599 111.163 106.86 111.315 107.011 111.584C107.184 111.835 107.257 112.107 107.23 112.399C107.203 112.69 107.081 112.944 106.865 113.159C106.668 113.376 106.385 113.468 106.016 113.433C104.15 113.24 102.287 113.028 100.426 112.796C98.5623 112.583 96.6981 112.38 94.8329 112.187C92.9678 111.994 91.1 111.83 89.2294 111.695C87.3783 111.563 85.512 111.487 83.6306 111.469C83.2982 111.458 83.0271 111.315 82.8172 111.04C82.6268 110.768 82.5452 110.485 82.5723 110.194C82.6031 109.863 82.7344 109.61 82.9664 109.436C83.2197 109.244 83.5134 109.143 83.8477 109.135C85.7291 109.153 87.5953 109.229 89.4465 109.362C91.317 109.497 93.1849 109.66 95.05 109.854C96.9151 110.047 98.7785 110.259 100.64 110.491C102.501 110.723 104.365 110.936 106.23 111.129Z" fill="black"/>
</g>
<g filter="url(#filter3_d_110_260)">
<path d="M104.383 84.5336C104.371 84.1627 104.489 83.8855 104.738 83.7019C104.966 83.4994 105.226 83.3936 105.519 83.3845C105.812 83.3754 106.079 83.4648 106.319 83.6527C106.559 83.8211 106.684 84.0908 106.696 84.4617C106.735 86.3364 106.754 88.2117 106.754 90.0876C106.773 91.9629 106.802 93.8379 106.841 95.7126C106.879 97.5873 106.947 99.4611 107.045 101.334C107.141 103.187 107.297 105.049 107.511 106.918C107.541 107.249 107.433 107.536 107.186 107.778C106.939 108.001 106.669 108.117 106.377 108.126C106.045 108.136 105.778 108.037 105.576 107.828C105.354 107.601 105.218 107.321 105.169 106.991C104.954 105.122 104.799 103.26 104.702 101.407C104.605 99.534 104.537 97.6602 104.498 95.7855C104.459 93.9108 104.44 92.0355 104.44 90.1596C104.441 88.2836 104.421 86.4083 104.383 84.5336ZM103.613 59.7897C103.602 59.4188 103.72 59.1416 103.968 58.958C104.197 58.7555 104.457 58.6497 104.75 58.6406C105.043 58.6315 105.309 58.7209 105.55 58.9088C105.789 59.0772 105.915 59.3469 105.926 59.7178C105.965 61.5925 105.984 63.4678 105.984 65.3437C106.003 67.219 106.032 69.094 106.071 70.9687C106.11 72.8434 106.178 74.7172 106.275 76.5901C106.372 78.4435 106.528 80.3048 106.742 82.174C106.772 82.5053 106.664 82.792 106.417 83.0341C106.17 83.2568 105.9 83.3726 105.607 83.3817C105.275 83.3921 105.008 83.2929 104.806 83.0842C104.584 82.8566 104.449 82.5775 104.399 82.2469C104.185 80.3776 104.029 78.5163 103.933 76.663C103.835 74.7901 103.767 72.9163 103.729 71.0416C103.69 69.1669 103.671 67.2916 103.671 65.4157C103.671 63.5397 103.652 61.6644 103.613 59.7897ZM102.844 35.0458C102.832 34.6749 102.951 34.3977 103.199 34.2141C103.427 34.0116 103.688 33.9058 103.98 33.8967C104.273 33.8876 104.54 33.977 104.78 34.1649C105.02 34.3333 105.146 34.603 105.157 34.9739C105.196 36.8486 105.215 38.7239 105.215 40.5998C105.234 42.4751 105.263 44.3501 105.302 46.2248C105.341 48.0995 105.409 49.9733 105.506 51.8462C105.603 53.6996 105.758 55.5609 105.973 57.4301C106.002 57.7614 105.894 58.0481 105.648 58.2902C105.401 58.5129 105.131 58.6287 104.838 58.6378C104.506 58.6482 104.239 58.549 104.037 58.3403C103.815 58.1127 103.679 57.8336 103.63 57.503C103.416 55.6337 103.26 53.7724 103.163 51.9191C103.066 50.0462 102.998 48.1724 102.959 46.2977C102.92 44.423 102.901 42.5477 102.901 40.6718C102.902 38.7958 102.883 36.9205 102.844 35.0458Z" fill="black"/>
</g>
<g filter="url(#filter4_d_110_260)">
<path d="M57.2926 36.6053C57.6603 36.5549 57.9484 36.6435 58.1571 36.8712C58.3824 37.0768 58.515 37.3248 58.5548 37.615C58.5946 37.9053 58.5337 38.1798 58.372 38.4385C58.2297 38.6946 57.9747 38.8479 57.6071 38.8983C55.7468 39.1337 53.8839 39.3498 52.0183 39.5465C50.1554 39.7626 48.2938 39.9883 46.4335 40.2237C44.5733 40.4591 42.717 40.7236 40.8647 41.017C39.0317 41.3079 37.1971 41.658 35.3607 42.0676C35.0344 42.1321 34.7379 42.0545 34.4712 41.8348C34.2238 41.6124 34.0803 41.3561 34.0405 41.0658C33.9953 40.7369 34.0659 40.4611 34.2523 40.2384C34.4553 39.9937 34.7186 39.8294 35.0422 39.7456C36.8786 39.336 38.7133 38.9858 40.5462 38.695C42.3985 38.4016 44.2548 38.1371 46.1151 37.9017C47.9754 37.6663 49.8383 37.4502 51.7038 37.2535C53.5694 37.0568 55.4323 36.8407 57.2926 36.6053ZM81.8189 33.2416C82.1865 33.1911 82.4747 33.2798 82.6833 33.5074C82.9087 33.7131 83.0412 33.961 83.0811 34.2513C83.1209 34.5416 83.0599 34.816 82.8983 35.0748C82.756 35.3309 82.501 35.4841 82.1333 35.5345C80.2731 35.77 78.4102 35.986 76.5446 36.1828C74.6817 36.3988 72.8201 36.6246 70.9598 36.86C69.0996 37.0954 67.2433 37.3598 65.391 37.6533C63.558 37.9441 61.7233 38.2943 59.887 38.7039C59.5607 38.7683 59.2642 38.6907 58.9975 38.471C58.7501 38.2487 58.6065 37.9924 58.5667 37.7021C58.5216 37.3732 58.5922 37.0973 58.7785 36.8746C58.9815 36.6299 59.2449 36.4657 59.5685 36.3819C61.4049 35.9723 63.2396 35.6221 65.0725 35.3313C66.9248 35.0378 68.7811 34.7734 70.6414 34.538C72.5016 34.3025 74.3645 34.0865 76.2301 33.8898C78.0957 33.693 79.9586 33.477 81.8189 33.2416ZM106.345 29.8778C106.713 29.8274 107.001 29.916 107.21 30.1437C107.435 30.3494 107.568 30.5973 107.607 30.8876C107.647 31.1778 107.586 31.4523 107.425 31.7111C107.282 31.9671 107.027 32.1204 106.66 32.1708C104.799 32.4062 102.936 32.6223 101.071 32.819C99.2079 33.0351 97.3463 33.2608 95.4861 33.4962C93.6258 33.7317 91.7695 33.9961 89.9172 34.2896C88.0843 34.5804 86.2496 34.9306 84.4132 35.3402C84.0869 35.4046 83.7904 35.327 83.5237 35.1073C83.2764 34.8849 83.1328 34.6286 83.093 34.3384C83.0479 34.0094 83.1185 33.7336 83.3048 33.5109C83.5078 33.2662 83.7711 33.102 84.0948 33.0181C85.9312 32.6086 87.7658 32.2584 89.5988 31.9676C91.4511 31.6741 93.3074 31.4097 95.1676 31.1742C97.0279 30.9388 98.8908 30.7227 100.756 30.526C102.622 30.3293 104.485 30.1132 106.345 29.8778Z" fill="black"/>
</g>
<g filter="url(#filter5_d_110_260)">
<path d="M304.565 109.516C304.558 109.887 304.426 110.158 304.169 110.329C303.931 110.52 303.665 110.612 303.373 110.607C303.08 110.601 302.818 110.499 302.587 110.299C302.356 110.119 302.244 109.844 302.251 109.473C302.305 107.598 302.379 105.724 302.473 103.851C302.547 101.977 302.611 100.103 302.666 98.2283C302.72 96.354 302.745 94.4791 302.741 92.6037C302.737 90.7479 302.674 88.8811 302.553 87.0035C302.539 86.6712 302.662 86.3902 302.92 86.1606C303.178 85.9506 303.453 85.8483 303.746 85.8537C304.078 85.8599 304.34 85.9722 304.531 86.1907C304.741 86.429 304.863 86.7145 304.896 87.0472C305.017 88.9248 305.08 90.7915 305.085 92.6474C305.089 94.5228 305.063 96.3977 305.009 98.272C304.955 100.146 304.881 102.02 304.787 103.894C304.693 105.767 304.619 107.641 304.565 109.516ZM304.103 134.267C304.097 134.638 303.965 134.909 303.707 135.08C303.469 135.271 303.204 135.364 302.911 135.358C302.618 135.353 302.356 135.25 302.126 135.051C301.895 134.871 301.782 134.595 301.789 134.224C301.844 132.35 301.918 130.476 302.011 128.602C302.085 126.728 302.15 124.854 302.204 122.98C302.259 121.106 302.284 119.231 302.28 117.355C302.275 115.499 302.212 113.633 302.091 111.755C302.078 111.423 302.2 111.142 302.458 110.912C302.716 110.702 302.992 110.6 303.285 110.605C303.617 110.611 303.878 110.724 304.07 110.942C304.28 111.181 304.402 111.466 304.434 111.799C304.556 113.676 304.619 115.543 304.623 117.399C304.627 119.274 304.602 121.149 304.548 123.024C304.493 124.898 304.419 126.772 304.325 128.645C304.232 130.519 304.158 132.393 304.103 134.267ZM303.642 159.019C303.635 159.39 303.503 159.661 303.246 159.832C303.008 160.023 302.742 160.115 302.45 160.11C302.157 160.105 301.895 160.002 301.664 159.802C301.433 159.622 301.321 159.347 301.328 158.976C301.382 157.101 301.456 155.227 301.55 153.354C301.624 151.48 301.688 149.606 301.743 147.731C301.797 145.857 301.822 143.982 301.818 142.107C301.814 140.251 301.751 138.384 301.63 136.507C301.616 136.174 301.739 135.893 301.997 135.664C302.255 135.454 302.53 135.351 302.823 135.357C303.155 135.363 303.417 135.475 303.608 135.694C303.818 135.932 303.94 136.218 303.973 136.55C304.094 138.428 304.157 140.295 304.162 142.151C304.166 144.026 304.14 145.901 304.086 147.775C304.032 149.649 303.958 151.523 303.864 153.397C303.77 155.271 303.696 157.144 303.642 159.019Z" fill="black"/>
</g>
<g filter="url(#filter6_d_110_260)">
<path d="M306.122 126.332C306.106 126.702 305.967 126.97 305.705 127.134C305.463 127.319 305.195 127.405 304.902 127.393C304.61 127.38 304.351 127.271 304.125 127.065C303.899 126.879 303.793 126.601 303.81 126.23C303.911 124.358 304.032 122.487 304.173 120.616C304.294 118.744 304.405 116.872 304.507 115C304.608 113.128 304.681 111.254 304.724 109.379C304.766 107.524 304.75 105.656 304.676 103.776C304.671 103.443 304.8 103.166 305.064 102.943C305.327 102.739 305.605 102.644 305.898 102.657C306.23 102.671 306.488 102.79 306.674 103.013C306.879 103.257 306.993 103.545 307.017 103.879C307.092 105.759 307.107 107.626 307.065 109.482C307.022 111.357 306.95 113.23 306.848 115.103C306.747 116.975 306.626 118.847 306.485 120.717C306.345 122.588 306.223 124.459 306.122 126.332ZM305.039 151.064C305.022 151.435 304.883 151.702 304.622 151.867C304.379 152.052 304.112 152.138 303.819 152.125C303.526 152.112 303.267 152.003 303.042 151.797C302.815 151.612 302.71 151.333 302.726 150.962C302.828 149.09 302.949 147.219 303.09 145.348C303.211 143.477 303.322 141.605 303.423 139.732C303.525 137.86 303.597 135.986 303.64 134.111C303.683 132.256 303.667 130.388 303.593 128.508C303.588 128.176 303.717 127.898 303.981 127.675C304.244 127.471 304.522 127.376 304.815 127.389C305.146 127.403 305.405 127.522 305.591 127.745C305.795 127.989 305.91 128.277 305.934 128.611C306.008 130.491 306.024 132.359 305.982 134.214C305.939 136.089 305.867 137.962 305.765 139.835C305.663 141.707 305.542 143.579 305.402 145.449C305.261 147.32 305.14 149.191 305.039 151.064ZM303.955 175.796C303.939 176.167 303.8 176.434 303.539 176.599C303.296 176.784 303.028 176.87 302.736 176.857C302.443 176.844 302.184 176.735 301.958 176.53C301.732 176.344 301.627 176.065 301.643 175.695C301.744 173.822 301.866 171.951 302.006 170.08C302.127 168.209 302.239 166.337 302.34 164.464C302.442 162.592 302.514 160.718 302.557 158.843C302.599 156.988 302.583 155.12 302.509 153.24C302.504 152.908 302.634 152.63 302.898 152.407C303.161 152.203 303.439 152.108 303.731 152.121C304.063 152.135 304.322 152.254 304.507 152.477C304.712 152.721 304.826 153.009 304.851 153.343C304.925 155.223 304.941 157.091 304.898 158.946C304.855 160.821 304.783 162.695 304.682 164.567C304.58 166.439 304.459 168.311 304.318 170.181C304.178 172.052 304.057 173.924 303.955 175.796Z" fill="black"/>
</g>
<g filter="url(#filter7_d_110_260)">
<path d="M329.931 168.544C330.3 168.578 330.561 168.73 330.713 168.999C330.885 169.25 330.958 169.522 330.931 169.814C330.904 170.105 330.782 170.359 330.566 170.574C330.369 170.791 330.086 170.883 329.717 170.848C327.852 170.655 325.988 170.443 324.127 170.211C322.263 169.998 320.399 169.795 318.534 169.602C316.669 169.409 314.801 169.245 312.93 169.11C311.079 168.977 309.213 168.902 307.332 168.884C306.999 168.873 306.728 168.73 306.518 168.455C306.328 168.182 306.246 167.9 306.273 167.609C306.304 167.278 306.435 167.025 306.667 166.851C306.921 166.659 307.214 166.558 307.549 166.55C309.43 166.568 311.296 166.644 313.147 166.777C315.018 166.911 316.886 167.075 318.751 167.268C320.616 167.462 322.479 167.674 324.341 167.906C326.203 168.138 328.066 168.351 329.931 168.544ZM354.58 170.836C354.95 170.871 355.21 171.022 355.362 171.291C355.535 171.543 355.608 171.814 355.58 172.106C355.553 172.398 355.432 172.651 355.215 172.867C355.019 173.084 354.736 173.175 354.366 173.141C352.501 172.948 350.638 172.735 348.776 172.503C346.913 172.291 345.049 172.088 343.183 171.895C341.318 171.702 339.45 171.538 337.58 171.403C335.729 171.27 333.863 171.194 331.981 171.176C331.649 171.165 331.378 171.022 331.168 170.748C330.977 170.475 330.896 170.193 330.923 169.901C330.954 169.57 331.085 169.318 331.317 169.143C331.57 168.951 331.864 168.851 332.198 168.843C334.08 168.861 335.946 168.936 337.797 169.069C339.668 169.204 341.535 169.368 343.401 169.561C345.266 169.754 347.129 169.967 348.99 170.199C350.852 170.431 352.715 170.643 354.58 170.836ZM379.23 173.129C379.599 173.163 379.86 173.315 380.011 173.584C380.184 173.835 380.257 174.107 380.23 174.399C380.203 174.69 380.081 174.944 379.865 175.159C379.668 175.376 379.385 175.468 379.016 175.433C377.15 175.24 375.287 175.028 373.426 174.796C371.562 174.583 369.698 174.38 367.833 174.187C365.968 173.994 364.1 173.83 362.229 173.695C360.378 173.563 358.512 173.487 356.631 173.469C356.298 173.458 356.027 173.315 355.817 173.04C355.627 172.768 355.545 172.485 355.572 172.194C355.603 171.863 355.734 171.61 355.966 171.436C356.22 171.244 356.513 171.143 356.848 171.135C358.729 171.153 360.595 171.229 362.446 171.362C364.317 171.497 366.185 171.66 368.05 171.854C369.915 172.047 371.778 172.259 373.64 172.491C375.501 172.723 377.365 172.936 379.23 173.129Z" fill="black"/>
</g>
<g filter="url(#filter8_d_110_260)">
<path d="M377.383 146.534C377.371 146.163 377.489 145.885 377.738 145.702C377.966 145.499 378.226 145.394 378.519 145.384C378.812 145.375 379.079 145.465 379.319 145.653C379.559 145.821 379.684 146.091 379.696 146.462C379.735 148.336 379.754 150.212 379.754 152.088C379.773 153.963 379.802 155.838 379.841 157.713C379.879 159.587 379.947 161.461 380.045 163.334C380.141 165.187 380.297 167.049 380.511 168.918C380.541 169.249 380.433 169.536 380.186 169.778C379.939 170.001 379.669 170.117 379.377 170.126C379.045 170.136 378.778 170.037 378.576 169.828C378.354 169.601 378.218 169.321 378.169 168.991C377.954 167.122 377.799 165.26 377.702 163.407C377.605 161.534 377.537 159.66 377.498 157.785C377.459 155.911 377.44 154.035 377.44 152.16C377.441 150.284 377.421 148.408 377.383 146.534ZM376.613 121.79C376.602 121.419 376.72 121.142 376.968 120.958C377.197 120.755 377.457 120.65 377.75 120.641C378.043 120.631 378.309 120.721 378.55 120.909C378.789 121.077 378.915 121.347 378.926 121.718C378.965 123.593 378.984 125.468 378.984 127.344C379.003 129.219 379.032 131.094 379.071 132.969C379.11 134.843 379.178 136.717 379.275 138.59C379.372 140.443 379.528 142.305 379.742 144.174C379.772 144.505 379.664 144.792 379.417 145.034C379.17 145.257 378.9 145.373 378.607 145.382C378.275 145.392 378.008 145.293 377.806 145.084C377.584 144.857 377.449 144.578 377.399 144.247C377.185 142.378 377.029 140.516 376.933 138.663C376.835 136.79 376.767 134.916 376.729 133.042C376.69 131.167 376.671 129.292 376.671 127.416C376.671 125.54 376.652 123.664 376.613 121.79ZM375.844 97.0458C375.832 96.6749 375.951 96.3977 376.199 96.2141C376.427 96.0116 376.688 95.9058 376.98 95.8967C377.273 95.8876 377.54 95.977 377.78 96.1649C378.02 96.3333 378.146 96.603 378.157 96.9739C378.196 98.8486 378.215 100.724 378.215 102.6C378.234 104.475 378.263 106.35 378.302 108.225C378.341 110.1 378.409 111.973 378.506 113.846C378.603 115.7 378.758 117.561 378.973 119.43C379.002 119.761 378.894 120.048 378.648 120.29C378.401 120.513 378.131 120.629 377.838 120.638C377.506 120.648 377.239 120.549 377.037 120.34C376.815 120.113 376.679 119.834 376.63 119.503C376.416 117.634 376.26 115.772 376.163 113.919C376.066 112.046 375.998 110.172 375.959 108.298C375.92 106.423 375.901 104.548 375.901 102.672C375.902 100.796 375.883 98.9205 375.844 97.0458Z" fill="black"/>
</g>
<g filter="url(#filter9_d_110_260)">
<path d="M330.293 98.6053C330.66 98.5549 330.948 98.6435 331.157 98.8712C331.382 99.0768 331.515 99.3248 331.555 99.615C331.595 99.9053 331.534 100.18 331.372 100.439C331.23 100.695 330.975 100.848 330.607 100.898C328.747 101.134 326.884 101.35 325.018 101.546C323.155 101.763 321.294 101.988 319.434 102.224C317.573 102.459 315.717 102.724 313.865 103.017C312.032 103.308 310.197 103.658 308.361 104.068C308.034 104.132 307.738 104.054 307.471 103.835C307.224 103.612 307.08 103.356 307.04 103.066C306.995 102.737 307.066 102.461 307.252 102.238C307.455 101.994 307.719 101.829 308.042 101.746C309.879 101.336 311.713 100.986 313.546 100.695C315.399 100.402 317.255 100.137 319.115 99.9017C320.975 99.6663 322.838 99.4502 324.704 99.2535C326.569 99.0568 328.432 98.8407 330.293 98.6053ZM354.819 95.2416C355.187 95.1911 355.475 95.2798 355.683 95.5074C355.909 95.7131 356.041 95.961 356.081 96.2513C356.121 96.5416 356.06 96.816 355.898 97.0748C355.756 97.3309 355.501 97.4841 355.133 97.5345C353.273 97.77 351.41 97.986 349.545 98.1828C347.682 98.3988 345.82 98.6246 343.96 98.86C342.1 99.0954 340.243 99.3598 338.391 99.6533C336.558 99.9441 334.723 100.294 332.887 100.704C332.561 100.768 332.264 100.691 331.997 100.471C331.75 100.249 331.607 99.9924 331.567 99.7021C331.522 99.3732 331.592 99.0973 331.779 98.8746C331.982 98.6299 332.245 98.4657 332.569 98.3819C334.405 97.9723 336.24 97.6221 338.073 97.3313C339.925 97.0378 341.781 96.7734 343.641 96.538C345.502 96.3025 347.365 96.0865 349.23 95.8898C351.096 95.693 352.959 95.477 354.819 95.2416ZM379.345 91.8778C379.713 91.8274 380.001 91.916 380.21 92.1437C380.435 92.3494 380.568 92.5973 380.607 92.8876C380.647 93.1778 380.586 93.4523 380.425 93.7111C380.282 93.9671 380.027 94.1204 379.66 94.1708C377.799 94.4062 375.936 94.6223 374.071 94.819C372.208 95.0351 370.346 95.2608 368.486 95.4962C366.626 95.7317 364.77 95.9961 362.917 96.2896C361.084 96.5804 359.25 96.9306 357.413 97.3402C357.087 97.4046 356.79 97.327 356.524 97.1073C356.276 96.8849 356.133 96.6286 356.093 96.3384C356.048 96.0094 356.118 95.7336 356.305 95.5109C356.508 95.2662 356.771 95.102 357.095 95.0181C358.931 94.6086 360.766 94.2584 362.599 93.9676C364.451 93.6741 366.307 93.4097 368.168 93.1742C370.028 92.9388 371.891 92.7227 373.756 92.526C375.622 92.3293 377.485 92.1132 379.345 91.8778Z" fill="black"/>
</g>
<path d="M98.2442 171.704C97.5286 172.122 97.2869 173.04 97.7043 173.756L104.507 185.417C104.924 186.132 105.842 186.374 106.558 185.957C107.274 185.539 107.515 184.621 107.098 183.905L101.051 173.54L111.417 167.493C112.132 167.076 112.374 166.158 111.957 165.442C111.539 164.726 110.621 164.485 109.905 164.902L98.2442 171.704ZM117.618 179.451C118.419 179.661 119.24 179.183 119.451 178.382C119.661 177.581 119.183 176.76 118.382 176.549L117.618 179.451ZM98.6183 174.451L117.618 179.451L118.382 176.549L99.3817 171.549L98.6183 174.451Z" fill="black"/>
<path d="M118 178L144.641 184.391" stroke="black" stroke-width="3" stroke-linecap="round"/>
<path d="M145 185L158 201" stroke="black" stroke-width="3" stroke-linecap="round"/>
<path d="M158 201L155 223" stroke="black" stroke-width="3" stroke-linecap="round"/>
<path d="M155 223L140 235" stroke="black" stroke-width="3" stroke-linecap="round"/>
<path d="M140 235L86 232" stroke="black" stroke-width="3" stroke-linecap="round"/>
<path d="M86 232H37" stroke="black" stroke-width="3" stroke-linecap="round"/>
<path d="M37 232L22 237" stroke="black" stroke-width="3" stroke-linecap="round"/>
<path d="M22 237L15 251" stroke="black" stroke-width="3" stroke-linecap="round"/>
<path d="M15 251L15 267" stroke="black" stroke-width="3" stroke-linecap="round"/>
<path d="M15 267L24 284" stroke="black" stroke-width="3" stroke-linecap="round"/>
<path d="M24 284L43 290" stroke="black" stroke-width="3" stroke-linecap="round"/>
<path d="M43 290L62 287" stroke="black" stroke-width="3" stroke-linecap="round"/>
<path d="M63 287H99" stroke="black" stroke-width="3" stroke-linecap="round"/>
<path d="M99 287L136 296" stroke="black" stroke-width="3" stroke-linecap="round"/>
<path d="M136 296L177 299" stroke="black" stroke-width="3" stroke-linecap="round"/>
<path d="M177 299L195 292" stroke="black" stroke-width="3" stroke-linecap="round"/>
<path d="M195 292L207 276" stroke="black" stroke-width="3" stroke-linecap="round"/>
<path d="M207 276L209 255" stroke="black" stroke-width="3" stroke-linecap="round"/>
<path d="M209 255L207 234" stroke="black" stroke-width="3" stroke-linecap="round"/>
<path d="M207 234L200 214" stroke="black" stroke-width="3" stroke-linecap="round"/>
<path d="M200 214L190 194" stroke="black" stroke-width="3" stroke-linecap="round"/>
<path d="M190 194L174 156" stroke="black" stroke-width="3" stroke-linecap="round"/>
<path d="M174 156L160 116" stroke="black" stroke-width="3" stroke-linecap="round"/>
<path d="M160 116L153 76" stroke="black" stroke-width="3" stroke-linecap="round"/>
<path d="M153 76L155 36" stroke="black" stroke-width="3" stroke-linecap="round"/>
<path d="M155 36L167 17" stroke="black" stroke-width="3" stroke-linecap="round"/>
<path d="M167 17L190 8" stroke="black" stroke-width="3" stroke-linecap="round"/>
<path d="M190 8L215 10" stroke="black" stroke-width="3" stroke-linecap="round"/>
<path d="M215 10L240 26" stroke="black" stroke-width="3" stroke-linecap="round"/>
<path d="M240 26L259 49" stroke="black" stroke-width="3" stroke-linecap="round"/>
<path d="M259.946 47.8358C259.303 47.3134 258.358 47.4112 257.836 48.0541C257.313 48.6971 257.411 49.6418 258.054 50.1642L259.946 47.8358ZM275.154 63.492C275.978 63.4068 276.577 62.6697 276.492 61.8457L275.103 48.4173C275.018 47.5933 274.281 46.9944 273.457 47.0796C272.632 47.1649 272.034 47.902 272.119 48.726L273.354 60.6623L261.417 61.8971C260.593 61.9823 259.994 62.7195 260.08 63.5435C260.165 64.3675 260.902 64.9664 261.726 64.8812L275.154 63.492ZM258.054 50.1642L274.054 63.1642L275.946 60.8358L259.946 47.8358L258.054 50.1642Z" fill="black"/>
<path d="M96.8353 174.379C96.1449 174.852 95.961 175.784 96.4245 176.46L103.978 187.478C104.442 188.154 105.377 188.318 106.067 187.845C106.758 187.372 106.942 186.44 106.478 185.764L99.7639 175.97L109.764 169.114C110.454 168.641 110.638 167.709 110.175 167.033C109.711 166.357 108.776 166.193 108.085 166.666L96.8353 174.379ZM117.129 180.545C117.945 180.688 118.737 180.146 118.897 179.333C119.058 178.52 118.526 177.745 117.71 177.602L117.129 180.545ZM97.3841 177.075L117.129 180.545L117.71 177.602L97.965 174.132L97.3841 177.075Z" fill="black"/>
<path d="M117.419 179.073L145.061 183.332" stroke="black" stroke-width="3" stroke-linecap="round"/>
<path d="M145.471 183.901L159.881 198.578" stroke="black" stroke-width="3" stroke-linecap="round"/>
<path d="M159.881 198.578L158.396 220.317" stroke="black" stroke-width="3" stroke-linecap="round"/>
<path d="M158.396 220.317L143.95 233.174" stroke="black" stroke-width="3" stroke-linecap="round"/>
<path d="M143.95 233.174L88.6351 234.275" stroke="black" stroke-width="3" stroke-linecap="round"/>
<path d="M88.6357 234.275L38.6381 237.937" stroke="black" stroke-width="3" stroke-linecap="round"/>
<path d="M38.6381 237.937L23.6905 243.948" stroke="black" stroke-width="3" stroke-linecap="round"/>
<path d="M23.6909 243.948L17.5511 258.163" stroke="black" stroke-width="3" stroke-linecap="round"/>
<path d="M17.551 258.163L18.697 273.81" stroke="black" stroke-width="3" stroke-linecap="round"/>
<path d="M18.697 273.81L29.0979 289.764" stroke="black" stroke-width="3" stroke-linecap="round"/>
<path d="M29.0979 289.764L48.9149 294.212" stroke="black" stroke-width="3" stroke-linecap="round"/>
<path d="M48.9146 294.212L68.0866 289.858" stroke="black" stroke-width="3" stroke-linecap="round"/>
<path d="M69.1067 289.783L105.84 287.093" stroke="black" stroke-width="3" stroke-linecap="round"/>
<path d="M105.84 287.093L144.238 293.13" stroke="black" stroke-width="3" stroke-linecap="round"/>
<path d="M144.238 293.13L186.288 293" stroke="black" stroke-width="3" stroke-linecap="round"/>
<path d="M186.287 293L204.153 284.808" stroke="black" stroke-width="3" stroke-linecap="round"/>
<path d="M204.152 284.809L215.251 268.264" stroke="black" stroke-width="3" stroke-linecap="round"/>
<path d="M215.251 268.264L215.787 247.577" stroke="black" stroke-width="3" stroke-linecap="round"/>
<path d="M215.787 247.577L212.243 227.189" stroke="black" stroke-width="3" stroke-linecap="round"/>
<path d="M212.243 227.189L203.668 208.153" stroke="black" stroke-width="3" stroke-linecap="round"/>
<path d="M203.668 208.153L192.031 189.34" stroke="black" stroke-width="3" stroke-linecap="round"/>
<path d="M192.031 189.34L172.984 153.373" stroke="black" stroke-width="3" stroke-linecap="round"/>
<path d="M172.984 153.373L155.834 115.3" stroke="black" stroke-width="3" stroke-linecap="round"/>
<path d="M155.834 115.3L145.826 76.7039" stroke="black" stroke-width="3" stroke-linecap="round"/>
<path d="M145.826 76.7039L145.002 37.4353" stroke="black" stroke-width="3" stroke-linecap="round"/>
<path d="M145.002 37.4353L155.886 17.9569" stroke="black" stroke-width="3" stroke-linecap="round"/>
<path d="M155.885 17.9569L178.71 7.43605" stroke="black" stroke-width="3" stroke-linecap="round"/>
<path d="M178.709 7.43635L204.362 7.52452" stroke="black" stroke-width="3" stroke-linecap="round"/>
<path d="M204.362 7.52408L231.017 21.3035" stroke="black" stroke-width="3" stroke-linecap="round"/>
<path d="M231.016 21.3035L252.051 42.3772" stroke="black" stroke-width="3" stroke-linecap="round"/>
<path d="M253.17 41.3791C252.619 40.7607 251.671 40.7062 251.053 41.2575C250.434 41.8087 250.38 42.7569 250.931 43.3753L253.17 41.3791ZM273.914 68.4975C274.741 68.545 275.45 67.913 275.498 67.086L276.271 53.6082C276.319 52.7811 275.687 52.0721 274.86 52.0247C274.033 51.9772 273.324 52.6092 273.276 53.4362L272.588 65.4165L260.608 64.7288C259.781 64.6813 259.072 65.3133 259.025 66.1403C258.977 66.9674 259.609 67.6764 260.436 67.7238L273.914 68.4975ZM250.931 43.3753L272.88 67.9981L275.12 66.0019L253.17 41.3791L250.931 43.3753Z" fill="black"/>
<defs>
<filter id="filter0_d_110_260" x="24.1606" y="23.8313" width="12.1086" height="82.3055" filterUnits="userSpaceOnUse" color-interpolation-filters="sRGB">
<feFlood flood-opacity="0" result="BackgroundImageFix"/>
<feColorMatrix in="SourceAlpha" type="matrix" values="0 0 0 0 0 0 0 0 0 0 0 0 0 0 0 0 0 0 127 0" result="hardAlpha"/>
<feOffset dy="4"/>
<feGaussianBlur stdDeviation="2"/>
<feComposite in2="hardAlpha" operator="out"/>
<feColorMatrix type="matrix" values="0 0 0 0 0 0 0 0 0 0 0 0 0 0 0 0 0 0 0.25 0"/>
<feBlend mode="normal" in2="BackgroundImageFix" result="effect1_dropShadow_110_260"/>
<feBlend mode="normal" in="SourceGraphic" in2="effect1_dropShadow_110_260" result="shape"/>
</filter>
<filter id="filter1_d_110_260" x="24.4479" y="40.604" width="13.972" height="82.3157" filterUnits="userSpaceOnUse" color-interpolation-filters="sRGB">
<feFlood flood-opacity="0" result="BackgroundImageFix"/>
<feColorMatrix in="SourceAlpha" type="matrix" values="0 0 0 0 0 0 0 0 0 0 0 0 0 0 0 0 0 0 127 0" result="hardAlpha"/>
<feOffset dy="4"/>
<feGaussianBlur stdDeviation="2"/>
<feComposite in2="hardAlpha" operator="out"/>
<feColorMatrix type="matrix" values="0 0 0 0 0 0 0 0 0 0 0 0 0 0 0 0 0 0 0.25 0"/>
<feBlend mode="normal" in2="BackgroundImageFix" result="effect1_dropShadow_110_260"/>
<feBlend mode="normal" in="SourceGraphic" in2="effect1_dropShadow_110_260" result="shape"/>
</filter>
<filter id="filter2_d_110_260" x="29.1621" y="104.092" width="82.2008" height="17.5905" filterUnits="userSpaceOnUse" color-interpolation-filters="sRGB">
<feFlood flood-opacity="0" result="BackgroundImageFix"/>
<feColorMatrix in="SourceAlpha" type="matrix" values="0 0 0 0 0 0 0 0 0 0 0 0 0 0 0 0 0 0 127 0" result="hardAlpha"/>
<feOffset dy="4"/>
<feGaussianBlur stdDeviation="2"/>
<feComposite in2="hardAlpha" operator="out"/>
<feColorMatrix type="matrix" values="0 0 0 0 0 0 0 0 0 0 0 0 0 0 0 0 0 0 0.25 0"/>
<feBlend mode="normal" in2="BackgroundImageFix" result="effect1_dropShadow_110_260"/>
<feBlend mode="normal" in="SourceGraphic" in2="effect1_dropShadow_110_260" result="shape"/>
</filter>
<filter id="filter3_d_110_260" x="98.5457" y="33.8566" width="13.0315" height="82.3164" filterUnits="userSpaceOnUse" color-interpolation-filters="sRGB">
<feFlood flood-opacity="0" result="BackgroundImageFix"/>
<feColorMatrix in="SourceAlpha" type="matrix" values="0 0 0 0 0 0 0 0 0 0 0 0 0 0 0 0 0 0 127 0" result="hardAlpha"/>
<feOffset dy="4"/>
<feGaussianBlur stdDeviation="2"/>
<feComposite in2="hardAlpha" operator="out"/>
<feColorMatrix type="matrix" values="0 0 0 0 0 0 0 0 0 0 0 0 0 0 0 0 0 0 0.25 0"/>
<feBlend mode="normal" in2="BackgroundImageFix" result="effect1_dropShadow_110_260"/>
<feBlend mode="normal" in="SourceGraphic" in2="effect1_dropShadow_110_260" result="shape"/>
</filter>
<filter id="filter4_d_110_260" x="29.8335" y="29.4653" width="81.949" height="20.7905" filterUnits="userSpaceOnUse" color-interpolation-filters="sRGB">
<feFlood flood-opacity="0" result="BackgroundImageFix"/>
<feColorMatrix in="SourceAlpha" type="matrix" values="0 0 0 0 0 0 0 0 0 0 0 0 0 0 0 0 0 0 127 0" result="hardAlpha"/>
<feOffset dy="4"/>
<feGaussianBlur stdDeviation="2"/>
<feComposite in2="hardAlpha" operator="out"/>
<feColorMatrix type="matrix" values="0 0 0 0 0 0 0 0 0 0 0 0 0 0 0 0 0 0 0.25 0"/>
<feBlend mode="normal" in2="BackgroundImageFix" result="effect1_dropShadow_110_260"/>
<feBlend mode="normal" in="SourceGraphic" in2="effect1_dropShadow_110_260" result="shape"/>
</filter>
<filter id="filter5_d_110_260" x="297.161" y="85.8313" width="12.1086" height="82.3055" filterUnits="userSpaceOnUse" color-interpolation-filters="sRGB">
<feFlood flood-opacity="0" result="BackgroundImageFix"/>
<feColorMatrix in="SourceAlpha" type="matrix" values="0 0 0 0 0 0 0 0 0 0 0 0 0 0 0 0 0 0 127 0" result="hardAlpha"/>
<feOffset dy="4"/>
<feGaussianBlur stdDeviation="2"/>
<feComposite in2="hardAlpha" operator="out"/>
<feColorMatrix type="matrix" values="0 0 0 0 0 0 0 0 0 0 0 0 0 0 0 0 0 0 0.25 0"/>
<feBlend mode="normal" in2="BackgroundImageFix" result="effect1_dropShadow_110_260"/>
<feBlend mode="normal" in="SourceGraphic" in2="effect1_dropShadow_110_260" result="shape"/>
</filter>
<filter id="filter6_d_110_260" x="297.448" y="102.604" width="13.972" height="82.3157" filterUnits="userSpaceOnUse" color-interpolation-filters="sRGB">
<feFlood flood-opacity="0" result="BackgroundImageFix"/>
<feColorMatrix in="SourceAlpha" type="matrix" values="0 0 0 0 0 0 0 0 0 0 0 0 0 0 0 0 0 0 127 0" result="hardAlpha"/>
<feOffset dy="4"/>
<feGaussianBlur stdDeviation="2"/>
<feComposite in2="hardAlpha" operator="out"/>
<feColorMatrix type="matrix" values="0 0 0 0 0 0 0 0 0 0 0 0 0 0 0 0 0 0 0.25 0"/>
<feBlend mode="normal" in2="BackgroundImageFix" result="effect1_dropShadow_110_260"/>
<feBlend mode="normal" in="SourceGraphic" in2="effect1_dropShadow_110_260" result="shape"/>
</filter>
<filter id="filter7_d_110_260" x="302.162" y="166.092" width="82.2008" height="17.5905" filterUnits="userSpaceOnUse" color-interpolation-filters="sRGB">
<feFlood flood-opacity="0" result="BackgroundImageFix"/>
<feColorMatrix in="SourceAlpha" type="matrix" values="0 0 0 0 0 0 0 0 0 0 0 0 0 0 0 0 0 0 127 0" result="hardAlpha"/>
<feOffset dy="4"/>
<feGaussianBlur stdDeviation="2"/>
<feComposite in2="hardAlpha" operator="out"/>
<feColorMatrix type="matrix" values="0 0 0 0 0 0 0 0 0 0 0 0 0 0 0 0 0 0 0.25 0"/>
<feBlend mode="normal" in2="BackgroundImageFix" result="effect1_dropShadow_110_260"/>
<feBlend mode="normal" in="SourceGraphic" in2="effect1_dropShadow_110_260" result="shape"/>
</filter>
<filter id="filter8_d_110_260" x="371.546" y="95.8566" width="13.0315" height="82.3164" filterUnits="userSpaceOnUse" color-interpolation-filters="sRGB">
<feFlood flood-opacity="0" result="BackgroundImageFix"/>
<feColorMatrix in="SourceAlpha" type="matrix" values="0 0 0 0 0 0 0 0 0 0 0 0 0 0 0 0 0 0 127 0" result="hardAlpha"/>
<feOffset dy="4"/>
<feGaussianBlur stdDeviation="2"/>
<feComposite in2="hardAlpha" operator="out"/>
<feColorMatrix type="matrix" values="0 0 0 0 0 0 0 0 0 0 0 0 0 0 0 0 0 0 0.25 0"/>
<feBlend mode="normal" in2="BackgroundImageFix" result="effect1_dropShadow_110_260"/>
<feBlend mode="normal" in="SourceGraphic" in2="effect1_dropShadow_110_260" result="shape"/>
</filter>
<filter id="filter9_d_110_260" x="302.833" y="91.4653" width="81.949" height="20.7905" filterUnits="userSpaceOnUse" color-interpolation-filters="sRGB">
<feFlood flood-opacity="0" result="BackgroundImageFix"/>
<feColorMatrix in="SourceAlpha" type="matrix" values="0 0 0 0 0 0 0 0 0 0 0 0 0 0 0 0 0 0 127 0" result="hardAlpha"/>
<feOffset dy="4"/>
<feGaussianBlur stdDeviation="2"/>
<feComposite in2="hardAlpha" operator="out"/>
<feColorMatrix type="matrix" values="0 0 0 0 0 0 0 0 0 0 0 0 0 0 0 0 0 0 0.25 0"/>
<feBlend mode="normal" in2="BackgroundImageFix" result="effect1_dropShadow_110_260"/>
<feBlend mode="normal" in="SourceGraphic" in2="effect1_dropShadow_110_260" result="shape"/>
</filter>
</defs>
</svg>