<svg width="375" height="204" viewBox="0 0 375 204" fill="none" xmlns="http://www.w3.org/2000/svg">
<path d="M0 183.171C0 187.722 18.8369 197.113 54 200.331C89.1631 203.549 137.772 203.156 187.5 203.156C237.228 203.156 285.337 203.549 320.5 200.331C355.663 197.113 375 187.722 375 183.171L187.5 183.171L0 183.171Z" fill="#FFAF37"/>
<path d="M0 82.1708C0 86.7219 18.8369 96.1128 54 99.331C89.1631 102.549 137.772 102.156 187.5 102.156C237.228 102.156 285.337 102.549 320.5 99.331C355.663 96.1128 375 86.722 375 82.1708L187.5 82.1708L0 82.1708Z" fill="#FFAF37"/>
<path d="M375 183.171L0 183.171V161.171L375 161.171V183.171Z" fill="#FFAF37"/>
<path d="M375 82.1708L0 82.1708V60.1708L375 60.1708V82.1708Z" fill="#FFAF37"/>
<path d="M375 121.171C375 116.461 355.896 106.742 320.733 103.411C285.57 100.08 239.461 101.45 189.733 101.45C140.005 101.45 90.896 100.08 55.7329 103.411C20.5699 106.742 7.50873e-06 116.461 0 121.171L187.5 121.171H375Z" fill="#FFAF37"/>
<path d="M375 20.1708C375 15.4605 355.896 5.7415 320.733 2.41087C285.57 -0.919765 235.728 0.170768 186 0.170768C136.272 0.170767 90.896 -0.919765 55.7329 2.41087C20.5699 5.7415 7.50873e-06 15.4605 0 20.1708L187.5 20.1708H375Z" fill="#FFAF37"/>
<path d="M0 121.171H375V143.171H0V121.171Z" fill="#FFAF37"/>
<path d="M0 20.1708H375V42.1708H0V20.1708Z" fill="#FFAF37"/>
<rect y="140.171" width="375" height="22" fill="#955C28"/>
<rect y="42.1708" width="375" height="22" fill="#955C28"/>
</svg>
