<svg width="144" height="144" viewBox="0 0 144 144" fill="none" xmlns="http://www.w3.org/2000/svg">
<rect width="144" height="144" fill="#E6E6E6"/>
<path d="M113.42 72.4875C113.42 76.0518 94.9696 78.9411 72.21 78.9411C49.4503 78.9411 31 76.0518 31 72.4875C31 68.9233 49.4503 66.0339 72.21 66.0339C94.9696 66.0339 113.42 68.9233 113.42 72.4875Z" fill="#955C28"/>
<path d="M33.5582 66H110.558V69H33.5582V66Z" fill="#71F85B"/>
<path d="M32.9741 74.6387H109.965V77.0719H32.9741V74.6387Z" fill="#9B231B"/>
<path d="M113.42 83.4875C113.42 87.0518 94.9696 89.9411 72.21 89.9411C49.4503 89.9411 31 87.0518 31 83.4875C31 79.9233 49.4503 77.0339 72.21 77.0339C94.9696 77.0339 113.42 79.9233 113.42 83.4875Z" fill="#955C28"/>
<path d="M33.5582 77H110.558V80H33.5582V77Z" fill="#71F85B"/>
<path d="M32.9741 85.6387H109.965V88.0719H32.9741V85.6387Z" fill="#9B231B"/>
<path d="M33.5582 87H110.558V91H33.5582V87Z" fill="#71F85B"/>
<path d="M23.9995 15.2476C23.9995 16.5496 23.8774 17.7703 23.6333 18.9097C23.3892 20.049 23.027 21.0459 22.5469 21.9004C22.0667 22.7467 21.4686 23.4181 20.7524 23.9146C20.0444 24.4028 19.2266 24.647 18.2988 24.647C17.3548 24.647 16.5247 24.4028 15.8086 23.9146C15.1006 23.4181 14.5065 22.7467 14.0264 21.9004C13.5544 21.0459 13.1963 20.049 12.9521 18.9097C12.7161 17.7703 12.5981 16.5496 12.5981 15.2476C12.5981 13.9536 12.7121 12.737 12.9399 11.5977C13.1759 10.4583 13.5299 9.46549 14.002 8.61914C14.474 7.77279 15.068 7.10547 15.7842 6.61719C16.5003 6.12077 17.3385 5.87256 18.2988 5.87256C19.2917 5.87256 20.1462 6.12077 20.8623 6.61719C21.5866 7.10547 22.1807 7.77279 22.6445 8.61914C23.1084 9.46549 23.4502 10.4583 23.6699 11.5977C23.8896 12.737 23.9995 13.9536 23.9995 15.2476ZM20.8013 15.2476C20.8013 14.2384 20.7606 13.2904 20.6792 12.4033C20.5978 11.5081 20.4595 10.731 20.2642 10.0718C20.077 9.40446 19.8206 8.87956 19.4951 8.49707C19.1777 8.11458 18.779 7.92334 18.2988 7.92334C17.835 7.92334 17.4443 8.11458 17.127 8.49707C16.8096 8.87956 16.5532 9.40446 16.3579 10.0718C16.1626 10.731 16.0202 11.5081 15.9307 12.4033C15.8411 13.2904 15.7964 14.2384 15.7964 15.2476C15.7964 16.2648 15.8411 17.221 15.9307 18.1162C16.0202 19.0033 16.1626 19.7804 16.3579 20.4478C16.5614 21.1069 16.8218 21.6318 17.1392 22.0225C17.4565 22.4049 17.8431 22.5962 18.2988 22.5962C18.7464 22.5962 19.1289 22.4049 19.4463 22.0225C19.7637 21.6318 20.0241 21.1069 20.2275 20.4478C20.431 19.7804 20.5775 19.0033 20.667 18.1162C20.7565 17.221 20.8013 16.2648 20.8013 15.2476ZM35.7671 20.0449C35.7671 20.6471 35.6735 21.2331 35.4863 21.8027C35.3073 22.3724 35.0265 22.881 34.644 23.3286C34.2697 23.7762 33.7936 24.1343 33.2158 24.4028C32.6462 24.6714 31.9666 24.8057 31.1772 24.8057C30.3797 24.8057 29.6188 24.6022 28.8945 24.1953C28.1702 23.7965 27.5314 23.1943 26.978 22.3887C26.4328 21.583 25.9933 20.578 25.6597 19.3735C25.3341 18.161 25.1714 16.745 25.1714 15.1255C25.1714 13.506 25.3423 12.1226 25.6841 10.9751C26.034 9.82764 26.4938 8.89176 27.0635 8.16748C27.6331 7.43506 28.2801 6.90202 29.0044 6.56836C29.7368 6.22656 30.4855 6.05566 31.2505 6.05566C32.0155 6.05566 32.6624 6.1696 33.1914 6.39746C33.7285 6.61719 34.1639 6.89795 34.4976 7.23975C34.8312 7.58154 35.0713 7.95996 35.2178 8.375C35.3724 8.7819 35.4497 9.17253 35.4497 9.54688C35.4497 9.92122 35.3927 10.2508 35.2788 10.5356C35.173 10.8123 35.0306 11.0443 34.8516 11.2314C34.6725 11.4105 34.4691 11.5488 34.2412 11.6465C34.0215 11.736 33.7977 11.7808 33.5698 11.7808C33.3501 11.7808 33.1304 11.7523 32.9106 11.6953C32.6991 11.6383 32.5119 11.5407 32.3491 11.4023C32.1864 11.2559 32.0521 11.0687 31.9463 10.8408C31.8486 10.6048 31.7998 10.3159 31.7998 9.97412C31.8079 9.80322 31.8283 9.63639 31.8608 9.47363C31.8934 9.33529 31.9422 9.18473 32.0073 9.02197C32.0806 8.85107 32.1864 8.69238 32.3247 8.5459C32.2026 8.40755 32.0684 8.30176 31.9219 8.22852C31.7754 8.15527 31.633 8.09831 31.4946 8.05762C31.34 8.01693 31.1813 7.98844 31.0186 7.97217C30.807 7.97217 30.5425 8.11458 30.2251 8.39941C29.9159 8.68424 29.6147 9.12777 29.3218 9.72998C29.0288 10.3241 28.7765 11.085 28.5649 12.0127C28.3534 12.9323 28.2476 14.0269 28.2476 15.2964C28.2476 16.5741 28.3534 17.6971 28.5649 18.6655C28.7765 19.6258 29.041 20.4315 29.3584 21.0825C29.6758 21.7336 30.0135 22.2259 30.3716 22.5596C30.7378 22.8851 31.0715 23.0479 31.3726 23.0479C31.9748 23.0479 32.4224 22.7752 32.7153 22.23C33.0164 21.6847 33.167 20.8424 33.167 19.7031C33.167 19.4427 33.1548 19.1701 33.1304 18.8853C33.1141 18.6493 33.0856 18.3807 33.0449 18.0796C33.0042 17.7785 32.9473 17.4774 32.874 17.1763C32.5892 17.217 32.2352 17.2699 31.812 17.335C31.3888 17.4001 30.9006 17.4896 30.3472 17.6035C30.4367 17.2373 30.4937 16.863 30.5181 16.4805C30.5506 16.0898 30.5669 15.7277 30.5669 15.394C30.5669 15.2313 30.5628 15.0807 30.5547 14.9424C30.5547 14.804 30.5506 14.686 30.5425 14.5884C30.5343 14.4744 30.5262 14.3687 30.5181 14.271C30.7622 14.3198 31.047 14.3605 31.3726 14.3931C31.6493 14.4256 31.987 14.4541 32.3857 14.4785C32.7926 14.4948 33.2565 14.5029 33.7773 14.5029C34.054 14.5029 34.3429 14.5029 34.644 14.5029C34.9533 14.4948 35.2788 14.4785 35.6206 14.4541C35.5718 14.7959 35.5474 15.1458 35.5474 15.5039C35.5474 15.8132 35.5596 16.1387 35.584 16.4805C35.6084 16.8223 35.6328 17.1803 35.6572 17.5547C35.6816 17.929 35.7061 18.3237 35.7305 18.7388C35.7549 19.1457 35.7671 19.5811 35.7671 20.0449ZM50.9648 5.22559C50.916 6.21842 50.8713 7.13802 50.8306 7.98438C50.7899 8.83073 50.7533 9.62826 50.7207 10.377C50.6963 11.1257 50.6759 11.8377 50.6597 12.5132C50.6434 13.1886 50.6271 13.856 50.6108 14.5151C50.6027 15.1743 50.5946 15.8376 50.5864 16.5049C50.5864 17.1722 50.5864 17.8721 50.5864 18.6045C50.5864 19.4183 50.5864 20.2891 50.5864 21.2168C50.5864 22.1445 50.5946 23.174 50.6108 24.3052L47.8398 24.2441C47.8887 23.0153 47.9212 21.8068 47.9375 20.6187C47.9538 19.4224 47.9619 18.1976 47.9619 16.9443C47.9619 16.1061 47.9578 15.2476 47.9497 14.3687C47.9416 13.4816 47.9294 12.5579 47.9131 11.5977C47.8968 10.6292 47.8765 9.61198 47.8521 8.5459C47.8358 7.47982 47.8154 6.34863 47.791 5.15234L50.9648 5.22559ZM56.7998 24.6958C55.9941 24.6958 55.2983 24.5208 54.7124 24.1709C54.1346 23.821 53.6545 23.3327 53.272 22.7061C52.8976 22.0794 52.6209 21.3348 52.4419 20.4722C52.2629 19.6095 52.1733 18.6696 52.1733 17.6523C52.1733 16.4723 52.2791 15.39 52.4907 14.4053C52.7023 13.4206 53.0116 12.5742 53.4185 11.8662C53.8335 11.1582 54.3421 10.6089 54.9443 10.2183C55.5547 9.8195 56.2546 9.62012 57.0439 9.62012C57.8415 9.62012 58.5291 9.78695 59.1069 10.1206C59.6847 10.4543 60.1608 10.9222 60.5352 11.5244C60.9176 12.1266 61.1984 12.8468 61.3774 13.6851C61.5565 14.5233 61.646 15.4469 61.646 16.4561C61.646 16.9769 61.6134 17.5425 61.5483 18.1528C61.4914 18.7632 61.3896 19.3735 61.2432 19.9839C61.1048 20.5942 60.9176 21.1842 60.6816 21.7539C60.4456 22.3154 60.1486 22.8159 59.7905 23.2554C59.4325 23.6948 59.0052 24.0448 58.5088 24.3052C58.0205 24.5656 57.4508 24.6958 56.7998 24.6958ZM58.7041 15.5527C58.7041 14.9342 58.6756 14.3809 58.6187 13.8926C58.5617 13.3962 58.4681 12.9771 58.3379 12.6353C58.2158 12.2935 58.0571 12.033 57.8618 11.854C57.6746 11.6668 57.4468 11.5732 57.1782 11.5732C56.8853 11.5732 56.6126 11.7279 56.3604 12.0371C56.1081 12.3464 55.8843 12.7939 55.689 13.3799C55.5018 13.9658 55.3512 14.682 55.2373 15.5283C55.1315 16.3665 55.0786 17.3146 55.0786 18.3726C55.0786 19.0562 55.1112 19.6706 55.1763 20.2158C55.2414 20.7529 55.339 21.2127 55.4692 21.5952C55.5994 21.9696 55.7581 22.2585 55.9453 22.4619C56.1406 22.6572 56.3685 22.7549 56.6289 22.7549C56.8893 22.7549 57.1213 22.6491 57.3247 22.4375C57.5282 22.2178 57.7031 21.9248 57.8496 21.5586C58.0042 21.1924 58.1344 20.7692 58.2402 20.2891C58.3542 19.8008 58.4437 19.2922 58.5088 18.7632C58.5739 18.2261 58.6227 17.6808 58.6553 17.1274C58.6878 16.5741 58.7041 16.0492 58.7041 15.5527ZM76.0259 10.8042C75.9933 11.5041 75.9689 12.2039 75.9526 12.9038C75.9445 13.5955 75.9364 14.2222 75.9282 14.7837C75.9201 15.4429 75.916 16.0736 75.916 16.6758C75.8997 17.2699 75.8713 17.8843 75.8306 18.519C75.7899 19.1457 75.7166 19.756 75.6108 20.3501C75.5132 20.9442 75.3748 21.5057 75.1958 22.0347C75.0249 22.5636 74.8011 23.0275 74.5244 23.4263C74.2477 23.825 73.91 24.1383 73.5112 24.3662C73.1206 24.6022 72.6567 24.7202 72.1196 24.7202C71.6802 24.6877 71.2611 24.5615 70.8623 24.3418C70.6914 24.2441 70.5164 24.1261 70.3374 23.9878C70.1584 23.8413 69.9875 23.6623 69.8247 23.4507C69.6619 23.2391 69.5073 22.9909 69.3608 22.7061C69.2144 22.4212 69.0923 22.0876 68.9946 21.7051C68.7261 22.4049 68.4128 22.9461 68.0547 23.3286C67.6966 23.7111 67.3589 23.9919 67.0415 24.1709C66.659 24.3825 66.2765 24.5086 65.894 24.5493C65.4546 24.5493 65.0802 24.4517 64.771 24.2563C64.4618 24.061 64.2013 23.7925 63.9897 23.4507C63.7782 23.1007 63.6113 22.6938 63.4893 22.23C63.3672 21.7661 63.2736 21.2656 63.2085 20.7285C63.1434 20.1914 63.0986 19.6299 63.0742 19.0439C63.0579 18.458 63.0498 17.8761 63.0498 17.2983C63.0498 17.103 63.0498 16.9647 63.0498 16.8833C63.0579 16.7938 63.062 16.7083 63.062 16.627C63.0701 16.5374 63.0783 16.4194 63.0864 16.2729C63.0946 16.1183 63.0986 15.8823 63.0986 15.5649C63.1068 15.2476 63.1108 14.8162 63.1108 14.271C63.119 13.7257 63.123 13.0096 63.123 12.1226C63.123 11.8459 63.123 11.5773 63.123 11.3169C63.123 11.0483 63.1149 10.8001 63.0986 10.5723L66.5654 10.6699C66.2887 12.1185 66.1016 13.5386 66.0039 14.9302C65.9144 16.3218 65.8696 17.7134 65.8696 19.105C65.8696 20.0083 65.9307 20.6634 66.0527 21.0703C66.1748 21.4772 66.4149 21.6807 66.7729 21.6807C66.9357 21.6807 67.0822 21.5911 67.2124 21.4121C67.3507 21.2249 67.4688 20.9808 67.5664 20.6797C67.6722 20.3704 67.7617 20.0205 67.835 19.6299C67.9163 19.2393 67.9814 18.8405 68.0303 18.4336C68.0791 18.0186 68.1157 17.6117 68.1401 17.2129C68.1646 16.8141 68.1768 16.452 68.1768 16.1265C68.1768 15.7847 68.1727 15.4551 68.1646 15.1377C68.1646 14.8203 68.1523 14.4907 68.1279 14.1489C68.1117 13.799 68.0872 13.4328 68.0547 13.0503C68.0303 12.6597 67.9937 12.2243 67.9448 11.7441L71.0698 11.9028C70.9071 12.8631 70.7687 13.7949 70.6548 14.6982C70.549 15.5934 70.4961 16.4845 70.4961 17.3716C70.4961 17.8761 70.5164 18.3929 70.5571 18.9219C70.606 19.4427 70.6792 19.9188 70.7769 20.3501C70.8826 20.7733 71.0169 21.1232 71.1797 21.3999C71.3424 21.6685 71.5378 21.8027 71.7656 21.8027C72.0505 21.8027 72.2824 21.6318 72.4614 21.29C72.6486 20.9401 72.791 20.4884 72.8887 19.9351C72.9945 19.3735 73.0677 18.7469 73.1084 18.0552C73.1491 17.3553 73.1694 16.6554 73.1694 15.9556C73.1694 15.8823 73.1654 15.7074 73.1572 15.4307C73.1491 15.154 73.1287 14.7918 73.0962 14.3442C73.0636 13.8966 73.0148 13.3677 72.9497 12.7573C72.8846 12.147 72.791 11.4715 72.6689 10.731L76.0259 10.8042ZM91.7974 13.624C91.7974 14.1855 91.7201 14.6331 91.5654 14.9668C91.4189 15.2923 91.2399 15.5405 91.0283 15.7114C90.8249 15.8742 90.6133 15.98 90.3936 16.0288C90.182 16.0776 90.007 16.1021 89.8687 16.1021C89.7303 16.1021 89.5635 16.0817 89.3682 16.041C89.1729 15.9922 88.9816 15.9027 88.7944 15.7725C88.6154 15.6341 88.4608 15.4429 88.3306 15.1987C88.2085 14.9465 88.1475 14.6209 88.1475 14.2222C88.1556 14.0024 88.1963 13.7868 88.2695 13.5752C88.3346 13.3962 88.4323 13.2131 88.5625 13.0259C88.6927 12.8387 88.8799 12.68 89.124 12.5498C88.9857 12.2406 88.8311 12.0046 88.6602 11.8418C88.4974 11.679 88.3387 11.557 88.1841 11.4756C88.005 11.3861 87.826 11.3291 87.647 11.3047C87.3459 11.3047 87.0732 11.443 86.8291 11.7197C86.585 11.9964 86.3774 12.387 86.2065 12.8916C86.0356 13.388 85.9014 13.9862 85.8037 14.686C85.7142 15.3859 85.6694 16.159 85.6694 17.0054C85.6694 17.8436 85.6979 18.6289 85.7549 19.3613C85.82 20.0856 85.9217 20.7204 86.0601 21.2656C86.1984 21.8027 86.3856 22.2259 86.6216 22.5352C86.8576 22.8444 87.1506 22.999 87.5005 22.999C87.6877 22.9909 87.8748 22.9461 88.062 22.8647C88.2248 22.7996 88.3957 22.6938 88.5747 22.5474C88.7619 22.3927 88.9287 22.1771 89.0752 21.9004C88.7904 21.762 88.5706 21.5952 88.416 21.3999C88.2695 21.1965 88.1637 21.0011 88.0986 20.814C88.0173 20.5942 87.9725 20.3664 87.9644 20.1304C87.9644 19.7397 88.0417 19.4224 88.1963 19.1782C88.3509 18.9341 88.534 18.7428 88.7456 18.6045C88.9572 18.458 89.1729 18.3604 89.3926 18.3115C89.6123 18.2546 89.7873 18.2261 89.9175 18.2261C90.0558 18.2261 90.2267 18.2546 90.4302 18.3115C90.6336 18.3685 90.8289 18.4784 91.0161 18.6411C91.2033 18.8039 91.362 19.0358 91.4922 19.3369C91.6305 19.6299 91.6997 20.0164 91.6997 20.4966C91.6997 20.9767 91.5817 21.4731 91.3457 21.9858C91.1178 22.4985 90.8045 22.9665 90.4058 23.3896C90.0151 23.8128 89.5594 24.1587 89.0386 24.4272C88.5259 24.6958 87.9847 24.8301 87.415 24.8301C87.0326 24.8301 86.646 24.7772 86.2554 24.6714C85.8647 24.5656 85.4904 24.3906 85.1323 24.1465C84.7743 23.9023 84.4365 23.5809 84.1191 23.1821C83.8018 22.7834 83.5251 22.2951 83.2891 21.7173C83.0612 21.1395 82.8781 20.464 82.7397 19.6909C82.6095 18.9097 82.5444 18.0145 82.5444 17.0054C82.5444 15.9963 82.6177 15.1133 82.7642 14.3564C82.9106 13.5915 83.11 12.9364 83.3623 12.3911C83.6227 11.8459 83.9198 11.3942 84.2534 11.0361C84.5871 10.6781 84.9411 10.3932 85.3154 10.1816C85.6979 9.97005 86.0885 9.82357 86.4873 9.74219C86.8861 9.66081 87.2726 9.62012 87.647 9.62012C88.2004 9.62012 88.7293 9.72591 89.2339 9.9375C89.7384 10.141 90.1779 10.4258 90.5522 10.792C90.9347 11.1501 91.2358 11.5732 91.4556 12.0615C91.6834 12.5498 91.7974 13.0706 91.7974 13.624ZM98.853 24.5005C98.8042 24.2482 98.7594 23.9919 98.7188 23.7314C98.6781 23.471 98.6455 23.2025 98.6211 22.9258C98.2467 23.4792 97.7992 23.9023 97.2783 24.1953C96.7575 24.4964 96.1878 24.647 95.5693 24.647C95.252 24.647 94.9264 24.5941 94.5928 24.4883C94.2591 24.3906 93.9539 24.2157 93.6772 23.9634C93.4087 23.7111 93.1849 23.3693 93.0059 22.938C92.835 22.4985 92.7495 21.9451 92.7495 21.2778C92.7495 20.7244 92.8309 20.2443 92.9937 19.8374C93.1564 19.4224 93.368 19.0602 93.6284 18.751C93.8888 18.4417 94.1818 18.1732 94.5073 17.9453C94.8328 17.7174 95.1543 17.514 95.4717 17.335C95.7972 17.1559 96.1064 16.9891 96.3994 16.8345C96.6924 16.6799 96.9325 16.5252 97.1196 16.3706C97.4777 16.0858 97.7869 15.7847 98.0474 15.4673C98.3159 15.1418 98.5316 14.804 98.6943 14.4541C98.6618 13.8926 98.6007 13.4328 98.5112 13.0747C98.4299 12.7085 98.32 12.4196 98.1816 12.208C98.0433 11.9883 97.8724 11.8377 97.6689 11.7563C97.4736 11.6668 97.2498 11.6221 96.9976 11.6221C96.6232 11.6221 96.3058 11.7035 96.0454 11.8662C95.7931 12.029 95.5856 12.2243 95.4229 12.4521C95.6263 12.5824 95.7809 12.7207 95.8867 12.8672C96.0007 13.0137 96.0861 13.1561 96.1431 13.2944C96.2082 13.4491 96.2448 13.6077 96.2529 13.7705C96.2529 14.3239 96.0942 14.7471 95.7769 15.04C95.4676 15.333 95.0688 15.4795 94.5806 15.4795C94.3283 15.4795 94.0964 15.4225 93.8848 15.3086C93.6732 15.1865 93.486 15.0197 93.3232 14.8081C93.1686 14.5965 93.0465 14.3442 92.957 14.0513C92.8675 13.7583 92.8228 13.4409 92.8228 13.0991C92.8228 12.7573 92.9001 12.3952 93.0547 12.0127C93.2093 11.6302 93.4575 11.2762 93.7993 10.9507C94.1411 10.617 94.5806 10.3444 95.1177 10.1328C95.6548 9.91309 96.3058 9.80322 97.0708 9.80322C97.8358 9.80322 98.4909 9.95378 99.0361 10.2549C99.5814 10.5479 100.029 10.9425 100.379 11.439C100.729 11.9272 100.981 12.4928 101.136 13.1357C101.299 13.7786 101.38 14.4419 101.38 15.1255C101.38 15.6382 101.376 16.1956 101.368 16.7979C101.36 17.4001 101.355 18.0186 101.355 18.6533C101.355 19.1823 101.36 19.7113 101.368 20.2402C101.376 20.7692 101.392 21.2819 101.417 21.7783C101.441 22.2666 101.473 22.7305 101.514 23.1699C101.555 23.6012 101.608 23.9878 101.673 24.3296L98.853 24.5005ZM98.6699 17.3472C98.3851 17.689 98.0799 17.9819 97.7544 18.2261C97.5103 18.397 97.2458 18.5882 96.9609 18.7998C96.6842 19.0114 96.4238 19.2352 96.1797 19.4712C95.9437 19.7072 95.7443 19.9554 95.5815 20.2158C95.4269 20.4681 95.3496 20.7285 95.3496 20.9971C95.3496 21.3633 95.4391 21.6766 95.6182 21.937C95.7972 22.1974 96.0495 22.3276 96.375 22.3276C96.6761 22.3276 96.9447 22.2463 97.1807 22.0835C97.4167 21.9207 97.6242 21.7214 97.8032 21.4854C97.9904 21.2412 98.145 20.9808 98.2671 20.7041C98.3973 20.4274 98.499 20.1751 98.5723 19.9473L98.6699 17.3472ZM106.287 24.5005L103.028 24.7446C103.158 23.2879 103.252 21.8841 103.309 20.5332C103.374 19.1742 103.406 17.8151 103.406 16.4561C103.406 15.4958 103.39 14.5355 103.357 13.5752C103.333 12.6068 103.284 11.6139 103.211 10.5967L105.958 10.4502C105.941 10.6292 105.929 10.8042 105.921 10.9751C105.913 11.146 105.909 11.3128 105.909 11.4756C106.194 11.0361 106.503 10.6943 106.836 10.4502C107.178 10.1979 107.496 10.0148 107.789 9.90088C108.122 9.76253 108.46 9.67708 108.802 9.64453C109.396 9.64453 109.904 9.73812 110.328 9.92529C110.751 10.1043 111.097 10.3403 111.365 10.6333C111.634 10.9181 111.829 11.2396 111.951 11.5977C112.073 11.9476 112.134 12.2894 112.134 12.623C112.134 12.9648 112.098 13.3107 112.024 13.6606C111.951 14.0106 111.825 14.328 111.646 14.6128C111.475 14.8895 111.243 15.1174 110.95 15.2964C110.665 15.4673 110.311 15.5527 109.888 15.5527C109.465 15.5527 109.131 15.4754 108.887 15.3208C108.643 15.1662 108.456 14.9831 108.326 14.7715C108.204 14.5518 108.122 14.328 108.082 14.1001C108.049 13.8641 108.033 13.6647 108.033 13.502C108.033 13.388 108.053 13.2619 108.094 13.1235C108.134 12.9771 108.195 12.8306 108.277 12.6841C108.358 12.5376 108.46 12.3952 108.582 12.2568C108.704 12.1104 108.847 11.9761 109.009 11.854C108.96 11.8377 108.908 11.8255 108.851 11.8174C108.802 11.8092 108.753 11.8052 108.704 11.8052C108.297 11.8052 107.935 11.9354 107.618 12.1958C107.3 12.4481 107.024 12.8021 106.788 13.2578C106.56 13.7135 106.368 14.2507 106.214 14.8691C106.067 15.4876 105.958 16.1631 105.884 16.8955C105.925 18.1569 105.982 19.4061 106.055 20.6431C106.128 21.88 106.206 23.1659 106.287 24.5005ZM116.517 5.62842C116.419 6.6945 116.333 7.75244 116.26 8.80225C116.187 9.84391 116.122 10.8937 116.065 11.9517C116.342 11.4552 116.639 11.0728 116.956 10.8042C117.273 10.5275 117.57 10.3241 117.847 10.1938C118.173 10.0474 118.49 9.95785 118.799 9.92529C119.385 9.92529 119.906 10.0474 120.362 10.2915C120.818 10.5356 121.2 10.9548 121.509 11.5488C121.827 12.1348 122.067 12.9201 122.229 13.9048C122.392 14.8813 122.474 16.1061 122.474 17.5791C122.474 18.9382 122.343 20.0815 122.083 21.0093C121.831 21.9289 121.501 22.6735 121.094 23.2432C120.695 23.8047 120.248 24.2075 119.751 24.4517C119.263 24.7039 118.779 24.8301 118.299 24.8301C118.25 24.8301 118.14 24.8179 117.969 24.7935C117.806 24.7772 117.607 24.7161 117.371 24.6104C117.135 24.5127 116.883 24.3621 116.614 24.1587C116.346 23.9552 116.089 23.6704 115.845 23.3042V24.647L113.099 24.5981C113.172 23.41 113.221 22.2259 113.245 21.0459C113.278 19.8659 113.294 18.6859 113.294 17.5059C113.294 15.5202 113.261 13.5508 113.196 11.5977C113.131 9.63639 113.054 7.66292 112.964 5.67725L116.517 5.62842ZM117.396 22.5718C117.436 22.5881 117.477 22.5962 117.518 22.5962C117.566 22.5962 117.615 22.5962 117.664 22.5962C117.884 22.5962 118.112 22.5229 118.348 22.3765C118.592 22.2218 118.812 21.9533 119.007 21.5708C119.202 21.1883 119.365 20.6715 119.495 20.0205C119.625 19.3613 119.69 18.5231 119.69 17.5059C119.69 16.5944 119.646 15.8376 119.556 15.2354C119.475 14.625 119.361 14.1367 119.214 13.7705C119.068 13.4043 118.897 13.1479 118.702 13.0015C118.506 12.8468 118.303 12.7695 118.091 12.7695C117.872 12.7695 117.668 12.8306 117.481 12.9526C117.302 13.0666 117.139 13.2212 116.993 13.4165C116.846 13.6037 116.712 13.8193 116.59 14.0635C116.476 14.3076 116.374 14.5518 116.285 14.7959C116.195 15.0319 116.118 15.2638 116.053 15.4917C115.996 15.7114 115.951 15.8986 115.918 16.0532C115.87 17.6564 115.845 19.2474 115.845 20.8262C116.032 21.2168 116.22 21.526 116.407 21.7539C116.594 21.9818 116.761 22.1567 116.907 22.2788C117.078 22.4253 117.241 22.5229 117.396 22.5718Z" fill="black"/>
</svg>
