<svg width="144" height="144" viewBox="0 0 144 144" fill="none" xmlns="http://www.w3.org/2000/svg">
<rect width="144" height="144" fill="#E6E6E6"/>
<path d="M26.4941 25.1953H26.1523C25.6478 25.1953 25.1676 25.2197 24.7119 25.2686C24.2643 25.3255 23.7842 25.4028 23.2715 25.5005C23.3773 23.7101 23.4587 22.0296 23.5156 20.459C23.5726 18.8802 23.6011 17.3503 23.6011 15.8691C23.6011 13.973 23.5522 12.1012 23.4546 10.2539L20.3784 10.4736C20.3703 10.1969 20.3621 9.94466 20.354 9.7168C20.3459 9.48079 20.3337 9.257 20.3174 9.04541C20.3011 8.82568 20.2808 8.60596 20.2563 8.38623C20.2319 8.15837 20.2035 7.90609 20.1709 7.62939H21.6479C22.299 7.62939 22.9338 7.62533 23.5522 7.61719C24.1789 7.60905 24.8014 7.59684 25.4199 7.58057C26.0465 7.56429 26.6772 7.54395 27.312 7.51953C27.9549 7.49512 28.6182 7.46257 29.3018 7.42188C29.2611 7.83691 29.2326 8.19092 29.2163 8.48389C29.2082 8.76872 29.2041 9.06576 29.2041 9.375V10.022L26.2012 10.0952C26.1768 10.8765 26.1605 11.6455 26.1523 12.4023C26.1523 13.151 26.1523 13.9079 26.1523 14.6729C26.1523 16.4469 26.1808 18.2048 26.2378 19.9463C26.2948 21.6878 26.3802 23.4375 26.4941 25.1953ZM33.5254 6.4209C33.4603 7.47884 33.3993 8.52865 33.3423 9.57031C33.2853 10.612 33.2365 11.6618 33.1958 12.7197C33.4806 12.1826 33.798 11.7676 34.1479 11.4746C34.4979 11.1735 34.8275 10.9538 35.1367 10.8154C35.4948 10.6527 35.8569 10.555 36.2231 10.5225C36.8091 10.5225 37.3096 10.6649 37.7246 10.9497C38.1396 11.2345 38.4814 11.6414 38.75 12.1704C39.0186 12.6994 39.2139 13.3382 39.3359 14.0869C39.458 14.8275 39.519 15.6576 39.519 16.5771C39.519 18.1152 39.4661 19.6045 39.3604 21.0449C39.2627 22.4772 39.0511 23.877 38.7256 25.2441L35.8691 24.9023C36.0563 23.9339 36.1987 23.0306 36.2964 22.1924C36.4022 21.3542 36.4795 20.6217 36.5283 19.9951C36.5853 19.2627 36.6178 18.5913 36.626 17.981C36.626 17.2078 36.6138 16.5365 36.5894 15.9668C36.5731 15.389 36.5161 14.9129 36.4185 14.5386C36.3289 14.1561 36.1865 13.8713 35.9912 13.6841C35.7959 13.4969 35.5233 13.4033 35.1733 13.4033C34.9048 13.444 34.6403 13.6068 34.3799 13.8916C34.266 14.0137 34.152 14.1683 34.0381 14.3555C33.9242 14.5426 33.8062 14.7746 33.6841 15.0513C33.5701 15.3198 33.4603 15.6372 33.3545 16.0034C33.2487 16.3696 33.1551 16.7928 33.0737 17.2729C33.0493 18.103 33.033 18.929 33.0249 19.751C33.0249 20.5729 33.0249 21.3908 33.0249 22.2046C33.0249 22.7173 33.0249 23.234 33.0249 23.7549C33.0249 24.2757 33.033 24.7925 33.0493 25.3052L30.2783 25.2441C30.3678 23.7549 30.4329 22.2656 30.4736 20.7764C30.5225 19.2871 30.5469 17.7856 30.5469 16.272C30.5469 14.6118 30.5184 12.9639 30.4614 11.3281C30.4045 9.68424 30.3231 8.03223 30.2173 6.37207L33.5254 6.4209ZM49.8584 22.3755C49.8584 22.8556 49.7485 23.3073 49.5288 23.7305C49.3091 24.1536 49.012 24.5199 48.6377 24.8291C48.2633 25.1383 47.8239 25.3825 47.3193 25.5615C46.8148 25.7406 46.2777 25.8301 45.708 25.8301C45.3255 25.8301 44.939 25.7772 44.5483 25.6714C44.1577 25.5656 43.7834 25.3906 43.4253 25.1465C43.0672 24.9023 42.7295 24.5809 42.4121 24.1821C42.0947 23.7834 41.818 23.2951 41.582 22.7173C41.3542 22.1395 41.1711 21.464 41.0327 20.6909C40.9025 19.9097 40.8374 19.0145 40.8374 18.0054C40.8374 17.0532 40.9025 16.2109 41.0327 15.4785C41.1711 14.7461 41.3542 14.1073 41.582 13.562C41.818 13.0168 42.0907 12.561 42.3999 12.1948C42.7091 11.8205 43.0387 11.5194 43.3887 11.2915C43.7467 11.0555 44.113 10.8887 44.4873 10.791C44.8698 10.6934 45.2441 10.6445 45.6104 10.6445C46.1556 10.6445 46.6724 10.734 47.1606 10.9131C47.6489 11.084 48.0762 11.3403 48.4424 11.6821C48.8086 12.0239 49.0975 12.4471 49.3091 12.9517C49.5288 13.4481 49.6387 14.0218 49.6387 14.6729C49.6387 15.2588 49.5166 15.8529 49.2725 16.4551C49.0365 17.0492 48.6825 17.6147 48.2104 18.1519C47.7384 18.6808 47.1525 19.165 46.4526 19.6045C45.7609 20.0358 44.9634 20.3776 44.0601 20.6299C44.1089 21.1344 44.1781 21.5942 44.2676 22.0093C44.3652 22.4243 44.4832 22.7783 44.6216 23.0713C44.7681 23.3643 44.9349 23.5921 45.1221 23.7549C45.3174 23.9176 45.5412 23.999 45.7935 23.999C45.9562 23.9909 46.1108 23.9624 46.2573 23.9136C46.3875 23.8729 46.5177 23.8078 46.6479 23.7183C46.7863 23.6287 46.9002 23.4985 46.9897 23.3276C46.7782 23.23 46.6154 23.1038 46.5015 22.9492C46.3875 22.7946 46.3021 22.6481 46.2451 22.5098C46.18 22.347 46.1434 22.1761 46.1353 21.9971C46.1353 21.6064 46.2126 21.2891 46.3672 21.0449C46.5218 20.8008 46.7049 20.6095 46.9165 20.4712C47.1281 20.3328 47.3438 20.2393 47.5635 20.1904C47.7832 20.1335 47.9582 20.105 48.0884 20.105C48.2267 20.105 48.3936 20.1335 48.5889 20.1904C48.7923 20.2474 48.9876 20.3573 49.1748 20.52C49.362 20.6828 49.5207 20.9147 49.6509 21.2158C49.7892 21.5088 49.8584 21.8953 49.8584 22.3755ZM46.8433 14.6973C46.8433 14.4043 46.8148 14.1276 46.7578 13.8672C46.709 13.5986 46.6317 13.3667 46.5259 13.1714C46.4282 12.9761 46.3021 12.8215 46.1475 12.7075C46.001 12.5854 45.8301 12.5244 45.6348 12.5244C45.3011 12.5244 45.0285 12.679 44.8169 12.9883C44.6053 13.2894 44.4344 13.6922 44.3042 14.1968C44.174 14.7013 44.0845 15.2832 44.0356 15.9424C43.9868 16.6016 43.9624 17.2892 43.9624 18.0054V18.8965C44.3774 18.6768 44.7599 18.4163 45.1099 18.1152C45.4679 17.8141 45.7731 17.4845 46.0254 17.1265C46.2858 16.7603 46.4852 16.3737 46.6235 15.9668C46.77 15.5599 46.8433 15.1367 46.8433 14.6973ZM60.7471 25.6958C59.9414 25.6958 59.2456 25.5208 58.6597 25.1709C58.0819 24.821 57.6017 24.3327 57.2192 23.7061C56.8449 23.0794 56.5682 22.3348 56.3892 21.4722C56.2101 20.6095 56.1206 19.6696 56.1206 18.6523C56.1206 17.4723 56.2264 16.39 56.438 15.4053C56.6496 14.4206 56.9588 13.5742 57.3657 12.8662C57.7808 12.1582 58.2894 11.6089 58.8916 11.2183C59.502 10.8195 60.2018 10.6201 60.9912 10.6201C61.7887 10.6201 62.4764 10.7869 63.0542 11.1206C63.632 11.4543 64.1081 11.9222 64.4824 12.5244C64.8649 13.1266 65.1457 13.8468 65.3247 14.6851C65.5037 15.5233 65.5933 16.4469 65.5933 17.4561C65.5933 17.9769 65.5607 18.5425 65.4956 19.1528C65.4386 19.7632 65.3369 20.3735 65.1904 20.9839C65.0521 21.5942 64.8649 22.1842 64.6289 22.7539C64.3929 23.3154 64.0959 23.8159 63.7378 24.2554C63.3797 24.6948 62.9525 25.0448 62.4561 25.3052C61.9678 25.5656 61.3981 25.6958 60.7471 25.6958ZM62.6514 16.5527C62.6514 15.9342 62.6229 15.3809 62.5659 14.8926C62.509 14.3962 62.4154 13.9771 62.2852 13.6353C62.1631 13.2935 62.0044 13.033 61.8091 12.854C61.6219 12.6668 61.394 12.5732 61.1255 12.5732C60.8325 12.5732 60.5599 12.7279 60.3076 13.0371C60.0553 13.3464 59.8315 13.7939 59.6362 14.3799C59.4491 14.9658 59.2985 15.682 59.1846 16.5283C59.0788 17.3665 59.0259 18.3146 59.0259 19.3726C59.0259 20.0562 59.0584 20.6706 59.1235 21.2158C59.1886 21.7529 59.2863 22.2127 59.4165 22.5952C59.5467 22.9696 59.7054 23.2585 59.8926 23.4619C60.0879 23.6572 60.3158 23.7549 60.5762 23.7549C60.8366 23.7549 61.0685 23.6491 61.272 23.4375C61.4754 23.2178 61.6504 22.9248 61.7969 22.5586C61.9515 22.1924 62.0817 21.7692 62.1875 21.2891C62.3014 20.8008 62.391 20.2922 62.4561 19.7632C62.5212 19.2261 62.57 18.6808 62.6025 18.1274C62.6351 17.5741 62.6514 17.0492 62.6514 16.5527ZM70.0977 25.5005L66.8384 25.7446C66.9686 24.2879 67.0622 22.8841 67.1191 21.5332C67.1842 20.1742 67.2168 18.8151 67.2168 17.4561C67.2168 16.4958 67.2005 15.5355 67.168 14.5752C67.1436 13.6068 67.0947 12.6139 67.0215 11.5967L69.7681 11.4502C69.7518 11.6292 69.7396 11.8042 69.7314 11.9751C69.7233 12.146 69.7192 12.3128 69.7192 12.4756C70.0041 12.0361 70.3133 11.6943 70.647 11.4502C70.9888 11.1979 71.3062 11.0148 71.5991 10.9009C71.9328 10.7625 72.2705 10.6771 72.6123 10.6445C73.2064 10.6445 73.715 10.7381 74.1382 10.9253C74.5614 11.1043 74.9072 11.3403 75.1758 11.6333C75.4443 11.9181 75.6396 12.2396 75.7617 12.5977C75.8838 12.9476 75.9448 13.2894 75.9448 13.623C75.9448 13.9648 75.9082 14.3107 75.835 14.6606C75.7617 15.0106 75.6356 15.328 75.4565 15.6128C75.2856 15.8895 75.0537 16.1174 74.7607 16.2964C74.4759 16.4673 74.1219 16.5527 73.6987 16.5527C73.2756 16.5527 72.9419 16.4754 72.6978 16.3208C72.4536 16.1662 72.2664 15.9831 72.1362 15.7715C72.0142 15.5518 71.9328 15.328 71.8921 15.1001C71.8595 14.8641 71.8433 14.6647 71.8433 14.502C71.8433 14.388 71.8636 14.2619 71.9043 14.1235C71.945 13.9771 72.006 13.8306 72.0874 13.6841C72.1688 13.5376 72.2705 13.3952 72.3926 13.2568C72.5146 13.1104 72.6571 12.9761 72.8198 12.854C72.771 12.8377 72.7181 12.8255 72.6611 12.8174C72.6123 12.8092 72.5635 12.8052 72.5146 12.8052C72.1077 12.8052 71.7456 12.9354 71.4282 13.1958C71.1108 13.4481 70.8341 13.8021 70.5981 14.2578C70.3703 14.7135 70.179 15.2507 70.0244 15.8691C69.8779 16.4876 69.7681 17.1631 69.6948 17.8955C69.7355 19.1569 69.7925 20.4061 69.8657 21.6431C69.939 22.88 70.0163 24.1659 70.0977 25.5005ZM80.3271 7.87354C80.3271 8.13395 80.2783 8.38216 80.1807 8.61816C80.083 8.84603 79.9487 9.04541 79.7778 9.21631C79.6069 9.38721 79.4035 9.52555 79.1675 9.63135C78.9396 9.729 78.6955 9.77783 78.4351 9.77783C78.1746 9.77783 77.9264 9.729 77.6904 9.63135C77.4626 9.52555 77.2632 9.38721 77.0923 9.21631C76.9214 9.04541 76.783 8.84603 76.6772 8.61816C76.5796 8.38216 76.5308 8.13395 76.5308 7.87354C76.5308 7.61312 76.5796 7.36898 76.6772 7.14111C76.783 6.90511 76.9214 6.70166 77.0923 6.53076C77.2632 6.35986 77.4626 6.22559 77.6904 6.12793C77.9264 6.02214 78.1746 5.96924 78.4351 5.96924C78.6955 5.96924 78.9396 6.02214 79.1675 6.12793C79.4035 6.22559 79.6069 6.35986 79.7778 6.53076C79.9487 6.70166 80.083 6.90511 80.1807 7.14111C80.2783 7.36898 80.3271 7.61312 80.3271 7.87354ZM80.3271 11.5723C80.262 12.2152 80.2051 12.911 80.1562 13.6597C80.1156 14.4002 80.0789 15.1611 80.0464 15.9424C80.022 16.7236 80.0016 17.509 79.9854 18.2983C79.9691 19.0877 79.9569 19.8405 79.9487 20.5566C79.9406 21.2728 79.9325 21.9442 79.9243 22.5708C79.9243 23.1893 79.9243 23.7223 79.9243 24.1699V25.5493L77.1533 25.647C77.1696 25.0854 77.1777 24.5402 77.1777 24.0112C77.1777 23.4823 77.1777 22.9533 77.1777 22.4243C77.1777 21.5047 77.1696 20.6095 77.1533 19.7388C77.137 18.8599 77.1086 17.981 77.0679 17.1021C77.0353 16.2231 76.9906 15.332 76.9336 14.4287C76.8766 13.5254 76.8075 12.5895 76.7261 11.6211L80.3271 11.5723ZM91.1548 11.3281C91.1141 11.8083 91.0734 12.3047 91.0327 12.8174C91.0002 13.3219 90.9676 13.8306 90.9351 14.3433C90.9025 14.8478 90.874 15.3483 90.8496 15.8447C90.8333 16.333 90.8171 16.7969 90.8008 17.2363C90.7601 18.278 90.7316 19.2993 90.7153 20.3003C90.6665 21.2606 90.638 22.2127 90.6299 23.1567C90.6299 24.0926 90.6014 24.9837 90.5444 25.8301C90.4875 26.6846 90.3776 27.474 90.2148 28.1982C90.0602 28.9307 89.8039 29.5614 89.4458 30.0903C89.0877 30.6274 88.6035 31.0465 87.9932 31.3477C87.391 31.6488 86.6138 31.7993 85.6616 31.7993C84.9373 31.7993 84.3595 31.6935 83.9282 31.4819C83.505 31.2785 83.1795 31.0262 82.9517 30.7251C82.7319 30.4321 82.5854 30.1188 82.5122 29.7852C82.4471 29.4515 82.4146 29.1545 82.4146 28.894C82.4146 28.6174 82.4552 28.3569 82.5366 28.1128C82.6261 27.8768 82.7482 27.6693 82.9028 27.4902C83.0575 27.3112 83.2446 27.1688 83.4644 27.063C83.6922 26.9572 83.9486 26.9043 84.2334 26.9043C84.5345 26.9043 84.799 26.9613 85.0269 27.0752C85.2629 27.1891 85.4582 27.3356 85.6128 27.5146C85.7756 27.7018 85.8976 27.9093 85.979 28.1372C86.0685 28.3651 86.1133 28.5929 86.1133 28.8208C86.097 28.951 86.0645 29.0853 86.0156 29.2236C85.9668 29.3376 85.8936 29.4637 85.7959 29.6021C85.7064 29.7485 85.568 29.891 85.3809 30.0293C85.568 30.0944 85.743 30.127 85.9058 30.127C86.1174 30.127 86.3411 30.0618 86.5771 29.9316C86.8132 29.8096 87.0288 29.6143 87.2241 29.3457C87.4194 29.0771 87.5822 28.7394 87.7124 28.3325C87.8426 27.9256 87.9159 27.4414 87.9321 26.8799L87.981 23.4985C87.6636 24.0356 87.3381 24.4548 87.0044 24.7559C86.6789 25.0488 86.3818 25.2645 86.1133 25.4028C85.7959 25.5656 85.4948 25.6632 85.21 25.6958C84.7949 25.6958 84.3758 25.5778 83.9526 25.3418C83.5295 25.1058 83.147 24.6989 82.8052 24.1211C82.4634 23.5433 82.1826 22.7743 81.9629 21.814C81.7432 20.8455 81.6333 19.633 81.6333 18.1763C81.6333 17.216 81.6903 16.3696 81.8042 15.6372C81.9181 14.8966 82.0728 14.2537 82.2681 13.7085C82.4634 13.1632 82.6912 12.7075 82.9517 12.3413C83.2202 11.967 83.505 11.6659 83.8062 11.438C84.1154 11.2101 84.4368 11.0474 84.7705 10.9497C85.1042 10.8521 85.4338 10.8032 85.7593 10.8032C86.0116 10.8195 86.272 10.8765 86.5405 10.9741C86.7765 11.0636 87.041 11.202 87.334 11.3892C87.627 11.5763 87.9199 11.8449 88.2129 12.1948L88.2861 11.0229L91.1548 11.3281ZM88.1396 14.4287C87.9525 14.1113 87.7327 13.8346 87.4805 13.5986C87.2363 13.3626 86.9637 13.2446 86.6626 13.2446C86.4347 13.2446 86.2028 13.326 85.9668 13.4888C85.7389 13.6434 85.5314 13.916 85.3442 14.3066C85.1571 14.6891 85.0024 15.2018 84.8804 15.8447C84.7664 16.4876 84.7095 17.2974 84.7095 18.2739C84.7095 19.1772 84.7502 19.9259 84.8315 20.52C84.9129 21.1141 85.0228 21.5902 85.1611 21.9482C85.2995 22.2982 85.4582 22.5464 85.6372 22.6929C85.8162 22.8312 86.0075 22.9004 86.2109 22.9004C86.4795 22.9004 86.7114 22.819 86.9067 22.6562C87.1102 22.4935 87.2811 22.2982 87.4194 22.0703C87.5578 21.8343 87.6717 21.5902 87.7612 21.3379C87.8589 21.0856 87.9403 20.8659 88.0054 20.6787C88.0216 19.6126 88.0379 18.5628 88.0542 17.5293C88.0705 16.4958 88.099 15.4622 88.1396 14.4287ZM96.123 7.87354C96.123 8.13395 96.0742 8.38216 95.9766 8.61816C95.8789 8.84603 95.7446 9.04541 95.5737 9.21631C95.4028 9.38721 95.1994 9.52555 94.9634 9.63135C94.7355 9.729 94.4914 9.77783 94.231 9.77783C93.9705 9.77783 93.7223 9.729 93.4863 9.63135C93.2585 9.52555 93.0591 9.38721 92.8882 9.21631C92.7173 9.04541 92.5789 8.84603 92.4731 8.61816C92.3755 8.38216 92.3267 8.13395 92.3267 7.87354C92.3267 7.61312 92.3755 7.36898 92.4731 7.14111C92.5789 6.90511 92.7173 6.70166 92.8882 6.53076C93.0591 6.35986 93.2585 6.22559 93.4863 6.12793C93.7223 6.02214 93.9705 5.96924 94.231 5.96924C94.4914 5.96924 94.7355 6.02214 94.9634 6.12793C95.1994 6.22559 95.4028 6.35986 95.5737 6.53076C95.7446 6.70166 95.8789 6.90511 95.9766 7.14111C96.0742 7.36898 96.123 7.61312 96.123 7.87354ZM96.123 11.5723C96.0579 12.2152 96.001 12.911 95.9521 13.6597C95.9115 14.4002 95.8748 15.1611 95.8423 15.9424C95.8179 16.7236 95.7975 17.509 95.7812 18.2983C95.765 19.0877 95.7528 19.8405 95.7446 20.5566C95.7365 21.2728 95.7284 21.9442 95.7202 22.5708C95.7202 23.1893 95.7202 23.7223 95.7202 24.1699V25.5493L92.9492 25.647C92.9655 25.0854 92.9736 24.5402 92.9736 24.0112C92.9736 23.4823 92.9736 22.9533 92.9736 22.4243C92.9736 21.5047 92.9655 20.6095 92.9492 19.7388C92.9329 18.8599 92.9045 17.981 92.8638 17.1021C92.8312 16.2231 92.7865 15.332 92.7295 14.4287C92.6725 13.5254 92.6034 12.5895 92.522 11.6211L96.123 11.5723ZM100.908 11.4746L100.835 12.4756C101.104 12.028 101.388 11.6862 101.689 11.4502C101.999 11.2142 102.284 11.0474 102.544 10.9497C102.804 10.8521 103.02 10.7992 103.191 10.791C103.37 10.7829 103.468 10.7788 103.484 10.7788C104.086 10.7788 104.611 10.9172 105.059 11.1938C105.506 11.4705 105.876 11.8734 106.169 12.4023C106.462 12.9232 106.678 13.562 106.816 14.3188C106.963 15.0675 107.036 15.918 107.036 16.8701C107.036 17.57 107.024 18.2861 107 19.0186C106.983 19.7428 106.943 20.4671 106.877 21.1914C106.82 21.9076 106.739 22.6074 106.633 23.291C106.536 23.9746 106.401 24.6257 106.23 25.2441L103.386 24.9023C103.573 23.9339 103.72 23.0306 103.826 22.1924C103.931 21.3542 104.009 20.6217 104.058 19.9951C104.115 19.2627 104.147 18.5913 104.155 17.981C104.155 17.2078 104.131 16.5365 104.082 15.9668C104.033 15.389 103.944 14.9129 103.813 14.5386C103.691 14.1561 103.521 13.8713 103.301 13.6841C103.081 13.4969 102.8 13.4033 102.458 13.4033C102.231 13.4521 102.003 13.6149 101.775 13.8916C101.58 14.1276 101.372 14.506 101.152 15.0269C100.933 15.5396 100.741 16.2638 100.579 17.1997C100.554 17.8345 100.538 18.4652 100.53 19.0918C100.53 19.7103 100.53 20.3695 100.53 21.0693C100.53 21.6634 100.53 22.3022 100.53 22.9858C100.53 23.6694 100.538 24.4425 100.554 25.3052L97.7832 25.2441C97.8076 24.4141 97.8239 23.5352 97.832 22.6074C97.8483 21.6715 97.8564 20.634 97.8564 19.4946C97.8564 18.3634 97.8483 17.1387 97.832 15.8203C97.8158 14.502 97.7832 13.0371 97.7344 11.4258L100.908 11.4746ZM114.373 25.5005C114.324 25.2482 114.279 24.9919 114.238 24.7314C114.198 24.471 114.165 24.2025 114.141 23.9258C113.766 24.4792 113.319 24.9023 112.798 25.1953C112.277 25.4964 111.707 25.647 111.089 25.647C110.771 25.647 110.446 25.5941 110.112 25.4883C109.779 25.3906 109.473 25.2157 109.197 24.9634C108.928 24.7111 108.704 24.3693 108.525 23.938C108.354 23.4985 108.269 22.9451 108.269 22.2778C108.269 21.7244 108.35 21.2443 108.513 20.8374C108.676 20.4224 108.888 20.0602 109.148 19.751C109.408 19.4417 109.701 19.1732 110.027 18.9453C110.352 18.7174 110.674 18.514 110.991 18.335C111.317 18.1559 111.626 17.9891 111.919 17.8345C112.212 17.6799 112.452 17.5252 112.639 17.3706C112.997 17.0858 113.306 16.7847 113.567 16.4673C113.835 16.1418 114.051 15.804 114.214 15.4541C114.181 14.8926 114.12 14.4328 114.031 14.0747C113.949 13.7085 113.84 13.4196 113.701 13.208C113.563 12.9883 113.392 12.8377 113.188 12.7563C112.993 12.6668 112.769 12.6221 112.517 12.6221C112.143 12.6221 111.825 12.7035 111.565 12.8662C111.313 13.029 111.105 13.2243 110.942 13.4521C111.146 13.5824 111.3 13.7207 111.406 13.8672C111.52 14.0137 111.606 14.1561 111.663 14.2944C111.728 14.4491 111.764 14.6077 111.772 14.7705C111.772 15.3239 111.614 15.7471 111.296 16.04C110.987 16.333 110.588 16.4795 110.1 16.4795C109.848 16.4795 109.616 16.4225 109.404 16.3086C109.193 16.1865 109.006 16.0197 108.843 15.8081C108.688 15.5965 108.566 15.3442 108.477 15.0513C108.387 14.7583 108.342 14.4409 108.342 14.0991C108.342 13.7573 108.42 13.3952 108.574 13.0127C108.729 12.6302 108.977 12.2762 109.319 11.9507C109.661 11.617 110.1 11.3444 110.637 11.1328C111.174 10.9131 111.825 10.8032 112.59 10.8032C113.355 10.8032 114.01 10.9538 114.556 11.2549C115.101 11.5479 115.549 11.9425 115.898 12.439C116.248 12.9272 116.501 13.4928 116.655 14.1357C116.818 14.7786 116.899 15.4419 116.899 16.1255C116.899 16.6382 116.895 17.1956 116.887 17.7979C116.879 18.4001 116.875 19.0186 116.875 19.6533C116.875 20.1823 116.879 20.7113 116.887 21.2402C116.895 21.7692 116.912 22.2819 116.936 22.7783C116.96 23.2666 116.993 23.7305 117.034 24.1699C117.074 24.6012 117.127 24.9878 117.192 25.3296L114.373 25.5005ZM114.189 18.3472C113.905 18.689 113.599 18.9819 113.274 19.2261C113.03 19.397 112.765 19.5882 112.48 19.7998C112.204 20.0114 111.943 20.2352 111.699 20.4712C111.463 20.7072 111.264 20.9554 111.101 21.2158C110.946 21.4681 110.869 21.7285 110.869 21.9971C110.869 22.3633 110.959 22.6766 111.138 22.937C111.317 23.1974 111.569 23.3276 111.895 23.3276C112.196 23.3276 112.464 23.2463 112.7 23.0835C112.936 22.9207 113.144 22.7214 113.323 22.4854C113.51 22.2412 113.665 21.9808 113.787 21.7041C113.917 21.4274 114.019 21.1751 114.092 20.9473L114.189 18.3472ZM121.855 6.22559C121.807 7.21842 121.762 8.13802 121.721 8.98438C121.681 9.83073 121.644 10.6283 121.611 11.377C121.587 12.1257 121.567 12.8377 121.55 13.5132C121.534 14.1886 121.518 14.856 121.501 15.5151C121.493 16.1743 121.485 16.8376 121.477 17.5049C121.477 18.1722 121.477 18.8721 121.477 19.6045C121.477 20.4183 121.477 21.2891 121.477 22.2168C121.477 23.1445 121.485 24.174 121.501 25.3052L118.73 25.2441C118.779 24.0153 118.812 22.8068 118.828 21.6187C118.844 20.4224 118.853 19.1976 118.853 17.9443C118.853 17.1061 118.848 16.2476 118.84 15.3687C118.832 14.4816 118.82 13.5579 118.804 12.5977C118.787 11.6292 118.767 10.612 118.743 9.5459C118.726 8.47982 118.706 7.34863 118.682 6.15234L121.855 6.22559Z" fill="black"/>
<path d="M110.862 72.4875C110.862 76.0518 92.4114 78.9411 69.6518 78.9411C46.8921 78.9411 28.4418 76.0518 28.4418 72.4875C28.4418 68.9233 46.8921 66.0339 69.6518 66.0339C92.4114 66.0339 110.862 68.9233 110.862 72.4875Z" fill="#955C28"/>
<mask id="mask0_104_399" style="mask-type:alpha" maskUnits="userSpaceOnUse" x="26" y="77" width="84" height="10">
<rect x="109.381" y="86.399" width="82.42" height="9.3271" transform="rotate(-180 109.381 86.399)" fill="#C4C4C4"/>
</mask>
<g mask="url(#mask0_104_399)">
<ellipse cx="68.6647" cy="75.8553" rx="39.7294" ry="13.3824" transform="rotate(-180 68.6647 75.8553)" fill="#FFAF37"/>
</g>
<mask id="mask1_104_399" style="mask-type:alpha" maskUnits="userSpaceOnUse" x="28" y="45" width="83" height="22">
<rect x="28.4418" y="45" width="82.42" height="21.4929" fill="#C4C4C4"/>
</mask>
<g mask="url(#mask1_104_399)">
<ellipse cx="69.1583" cy="64.668" rx="39.7294" ry="16.4238" fill="#FFAF37"/>
</g>
<path d="M30.9094 66.5701H107.901V69.0033H30.9094V66.5701Z" fill="#71F85B"/>
<path d="M30.4159 74.6387H107.407V77.0719H30.4159V74.6387Z" fill="#9B231B"/>
<mask id="mask2_104_399" style="mask-type:alpha" maskUnits="userSpaceOnUse" x="28" y="109" width="83" height="12">
<rect x="110.862" y="120.108" width="82.42" height="10.6403" transform="rotate(-180 110.862 120.108)" fill="#C4C4C4"/>
</mask>
<g mask="url(#mask2_104_399)">
<ellipse cx="70.1453" cy="108.08" rx="39.7294" ry="15.2665" transform="rotate(-180 70.1453 108.08)" fill="#FFAF37"/>
</g>
<mask id="mask3_104_399" style="mask-type:alpha" maskUnits="userSpaceOnUse" x="24" y="86" width="97" height="12">
<rect x="24" y="86.5775" width="96.7324" height="10.6403" fill="#C4C4C4"/>
</mask>
<g mask="url(#mask3_104_399)">
<ellipse cx="69.6518" cy="96.2925" rx="41.7035" ry="12.0281" fill="#FFAF37"/>
</g>
<path d="M111.355 103.176C111.355 106.37 92.9049 108.959 70.1453 108.959C47.3856 108.959 28.9353 106.37 28.9353 103.176C28.9353 99.9827 47.3856 97.3937 70.1453 97.3937C92.9049 97.3937 111.355 99.9827 111.355 103.176Z" fill="#955C28"/>
<path d="M31.403 97.2177H108.394V99.9935H31.403V97.2177Z" fill="#71F85B"/>
<path d="M31.8965 106.692H108.888V109.467H31.8965V106.692Z" fill="#9B231B"/>
</svg>
