<svg width="223" height="223" viewBox="0 0 223 223" fill="none" xmlns="http://www.w3.org/2000/svg">
<mask id="mask0" mask-type="alpha" maskUnits="userSpaceOnUse" x="36" y="140" width="150" height="21">
<rect x="185.536" y="160.56" width="148.964" height="20.516" transform="rotate(-180 185.536 160.56)" fill="#C4C4C4"/>
</mask>
<g mask="url(#mask0)">
<ellipse cx="111.946" cy="137.368" rx="71.806" ry="29.436" transform="rotate(-180 111.946 137.368)" fill="#FFAF37"/>
</g>
<mask id="mask1" mask-type="alpha" maskUnits="userSpaceOnUse" x="36" y="55" width="150" height="48">
<rect x="36.572" y="55.304" width="148.964" height="47.276" fill="#C4C4C4"/>
</mask>
<g mask="url(#mask1)">
<ellipse cx="110.162" cy="98.566" rx="71.806" ry="36.126" fill="#FFAF37"/>
</g>
<path d="M185.536 116.406C185.536 122.564 152.189 127.556 111.054 127.556C69.9187 127.556 36.572 122.564 36.572 116.406C36.572 110.248 69.9187 105.256 111.054 105.256C152.189 105.256 185.536 110.248 185.536 116.406Z" fill="#955C28"/>
<path d="M185.536 128.002C185.536 134.16 152.189 139.152 111.054 139.152C69.9187 139.152 36.572 134.16 36.572 128.002C36.572 121.844 69.9187 116.852 111.054 116.852C152.189 116.852 185.536 121.844 185.536 128.002Z" fill="#955C28"/>
<path d="M41.032 102.58H180.184V107.932H41.032V102.58Z" fill="#71F85B"/>
<path d="M42.816 134.692H181.968V140.044H42.816V134.692Z" fill="#9B231B"/>
<path fill-rule="evenodd" clip-rule="evenodd" d="M111.5 223C173.08 223 223 173.08 223 111.5C223 49.9202 173.08 0 111.5 0C49.9202 0 0 49.9202 0 111.5C0 173.08 49.9202 223 111.5 223ZM111.5 208.457C165.048 208.457 208.457 165.048 208.457 111.5C208.457 57.9524 165.048 14.5435 111.5 14.5435C57.9524 14.5435 14.5435 57.9524 14.5435 111.5C14.5435 165.048 57.9524 208.457 111.5 208.457Z" fill="#AC0404"/>
</svg>
